<svg version="1.1" xmlns="http://www.w3.org/2000/svg" viewBox="0 0 1071.5185546875 364.4140625" width="1071.5185546875" height="364.4140625">
  <!-- svg-source:excalidraw -->
  
  <defs>
    <style class="style-fonts">
      @font-face {
        font-family: "Virgil";
        src: url("https://excalidraw.com/Virgil.woff2");
      }
      @font-face {
        font-family: "Cascadia";
        src: url("https://excalidraw.com/Cascadia.woff2");
      }
    </style>
  </defs>
  <rect x="0" y="0" width="1071.5185546875" height="364.4140625" fill="#ffffff"></rect><g stroke-linecap="round" transform="translate(10.982421875 89.9462890625) rotate(0 81.41796875 23.1875)"><path d="M3.09 2.68 C3.09 2.68, 3.09 2.68, 3.09 2.68 M3.09 2.68 C3.09 2.68, 3.09 2.68, 3.09 2.68 M1.51 10.59 C3.22 8.91, 5.57 6.84, 10.04 0.78 M1.51 10.59 C4.78 7.86, 7.12 3.62, 10.04 0.78 M1.91 16.23 C4.27 12.15, 8.1 8.66, 14.37 1.89 M1.91 16.23 C4.22 13.71, 6.6 10.06, 14.37 1.89 M1.65 22.63 C8.31 14.15, 11.45 10.6, 19.36 2.25 M1.65 22.63 C6.19 16.68, 12.17 12, 19.36 2.25 M2.04 28.27 C8.56 20.12, 16.82 12.1, 24.35 2.61 M2.04 28.27 C8.12 20.66, 15.09 13.34, 24.35 2.61 M1.78 34.67 C7.87 25.63, 16.99 16.45, 29.99 2.22 M1.78 34.67 C11.1 23.17, 21.57 11.99, 29.99 2.22 M2.83 39.56 C9.81 30.05, 18.19 18.49, 34.98 2.58 M2.83 39.56 C15.54 25.49, 26.27 11.81, 34.98 2.58 M3.88 44.45 C10.79 35.26, 20.7 26.12, 40.62 2.18 M3.88 44.45 C16.63 29.55, 29.01 13.99, 40.62 2.18 M7.55 46.32 C16.48 35.54, 23.66 25.77, 45.61 2.54 M7.55 46.32 C16.09 36.31, 23.41 26.23, 45.61 2.54 M12.54 46.68 C23.56 33.58, 38.2 19.04, 51.25 2.15 M12.54 46.68 C25.43 29.95, 40.08 13.39, 51.25 2.15 M18.19 46.28 C25.98 34.42, 34.63 26.16, 56.24 2.51 M18.19 46.28 C28.66 33.32, 40.06 20.21, 56.24 2.51 M23.17 46.64 C32.4 34.91, 43.98 21.76, 61.88 2.12 M23.17 46.64 C35.71 30.73, 49.99 14.14, 61.88 2.12 M28.82 46.25 C39.68 30.49, 54.14 16.66, 66.87 2.48 M28.82 46.25 C39.69 33.92, 51.71 21.98, 66.87 2.48 M33.8 46.61 C42.16 34.96, 52.84 21.92, 71.85 2.84 M33.8 46.61 C43.91 35.14, 55.09 22.24, 71.85 2.84 M38.79 46.97 C52.66 31.62, 65.49 16.53, 77.5 2.44 M38.79 46.97 C50.26 32.77, 63.94 19.54, 77.5 2.44 M44.43 46.57 C57.43 31.67, 75.16 14.16, 82.48 2.8 M44.43 46.57 C54.99 33.65, 66.15 21.9, 82.48 2.8 M49.42 46.93 C59.14 31.37, 74 19.46, 88.13 2.41 M49.42 46.93 C61.43 33.54, 72.33 21.15, 88.13 2.41 M55.06 46.54 C68.98 28.98, 87.39 13.06, 93.11 2.77 M55.06 46.54 C67.92 31.58, 81.82 15.47, 93.11 2.77 M60.05 46.9 C70.46 36.41, 78.4 23.26, 98.76 2.37 M60.05 46.9 C73.6 32.81, 86.3 18.13, 98.76 2.37 M65.69 46.51 C79.92 28.02, 93.68 13.35, 103.74 2.73 M65.69 46.51 C74.16 36.5, 84.16 25.75, 103.74 2.73 M70.68 46.87 C83.47 29.46, 98.32 13.9, 109.39 2.34 M70.68 46.87 C84.46 31.61, 98.89 15.09, 109.39 2.34 M76.32 46.47 C86.3 33.65, 99.01 22.12, 114.37 2.7 M76.32 46.47 C87.89 32.72, 100.99 17.76, 114.37 2.7 M81.31 46.83 C93.07 34.3, 103.74 21.15, 119.36 3.06 M81.31 46.83 C93.34 34.2, 104.83 19.84, 119.36 3.06 M86.3 47.19 C101.26 31.05, 116.97 13.66, 125 2.66 M86.3 47.19 C93.72 38.71, 102.49 29.23, 125 2.66 M91.94 46.8 C108.78 29.49, 122.54 14.06, 129.99 3.02 M91.94 46.8 C103.34 32.98, 115.21 20.44, 129.99 3.02 M96.93 47.16 C106.04 37.36, 113.44 30.12, 135.63 2.63 M96.93 47.16 C106.2 37.06, 117.1 25.2, 135.63 2.63 M102.57 46.76 C113.4 33.43, 128.25 17.38, 140.62 2.99 M102.57 46.76 C113.36 34.94, 124.78 20.88, 140.62 2.99 M107.56 47.12 C114.24 37.11, 121.8 28.63, 146.26 2.59 M107.56 47.12 C119.04 34.3, 128.13 22.22, 146.26 2.59 M113.2 46.73 C126.74 31.2, 142.06 11.86, 151.25 2.95 M113.2 46.73 C121.92 36.6, 132.43 26.09, 151.25 2.95 M118.19 47.09 C128.61 34.88, 140.98 16.94, 157.55 1.81 M118.19 47.09 C129.05 34.63, 139.95 21.41, 157.55 1.81 M123.83 46.69 C132.28 36.68, 141.76 26.2, 161.23 3.67 M123.83 46.69 C135.72 33.96, 144.87 21.71, 161.23 3.67 M128.82 47.05 C141.43 32.4, 152.84 19.53, 162.93 7.81 M128.82 47.05 C136.83 36.73, 147.05 26.25, 162.93 7.81 M133.8 47.41 C140.72 41.14, 149.94 33.05, 165.29 11.19 M133.8 47.41 C145.31 34.11, 159.45 19.08, 165.29 11.19 M139.45 47.02 C145.65 37.27, 155.77 29.73, 165.03 17.59 M139.45 47.02 C146.33 40.56, 152.25 32.11, 165.03 17.59 M144.43 47.38 C152.13 38.32, 157.79 30.25, 164.77 23.98 M144.43 47.38 C150.75 38.91, 158.87 31.02, 164.77 23.98 M150.08 46.98 C153.64 43.37, 160.19 37.2, 165.17 29.63 M150.08 46.98 C153.7 42.72, 157.83 39.83, 165.17 29.63 M153.75 48.85 C156.36 43.7, 161.93 41.58, 164.9 36.02 M153.75 48.85 C157.35 45.95, 160.11 40.9, 164.9 36.02" stroke="#ced4da" stroke-width="0.5" fill="none"></path><path d="M11.59 0 M11.59 0 C50.44 1.64, 89.4 1.61, 151.24 0 M11.59 0 C50.15 -0.02, 89.61 -1.22, 151.24 0 M151.24 0 C159.92 1.31, 164.07 3.02, 162.84 11.59 M151.24 0 C158.27 1.08, 163.91 2.26, 162.84 11.59 M162.84 11.59 C162.8 18.42, 164.23 26.27, 162.84 34.78 M162.84 11.59 C162.07 19.47, 162.54 30.3, 162.84 34.78 M162.84 34.78 C163.76 42.3, 158.81 46.6, 151.24 46.38 M162.84 34.78 C162.8 44.34, 159.95 45.72, 151.24 46.38 M151.24 46.38 C95.54 44.49, 41.7 44.99, 11.59 46.38 M151.24 46.38 C105.99 45.87, 61.91 46.67, 11.59 46.38 M11.59 46.38 C4.74 48.17, 0.93 41.78, 0 34.78 M11.59 46.38 C2.95 45.07, -0.55 44.19, 0 34.78 M0 34.78 C-1.57 27.36, 0.65 19.02, 0 11.59 M0 34.78 C0.47 25.58, -0.76 18.38, 0 11.59 M0 11.59 C-0.12 5.6, 5.66 1.1, 11.59 0 M0 11.59 C1.57 2.96, 4.96 0.06, 11.59 0" stroke="#000000" stroke-width="1" fill="none"></path></g><g transform="translate(37.900390625 100.6337890625) rotate(0 54.5 12.5)"><text x="54.5" y="18" font-family="Virgil, Segoe UI Emoji" font-size="20px" fill="#000000" text-anchor="middle" style="white-space: pre;" direction="ltr">Fact table</text></g><g stroke-linecap="round" transform="translate(239.681640625 142.8056640625) rotate(0 137.5 23.5)"><path d="M3.13 2.72 C3.13 2.72, 3.13 2.72, 3.13 2.72 M3.13 2.72 C3.13 2.72, 3.13 2.72, 3.13 2.72 M0.24 12.14 C4.57 8.35, 8.5 3.37, 10.08 0.81 M0.24 12.14 C3.92 7.24, 7.91 2.72, 10.08 0.81 M0.64 17.78 C3.61 13.93, 7.94 6.41, 14.41 1.93 M0.64 17.78 C4.28 12.69, 9.63 8.56, 14.41 1.93 M0.38 24.18 C4.18 19.26, 10.56 10.18, 19.4 2.29 M0.38 24.18 C5.45 19.69, 8.88 14.32, 19.4 2.29 M0.77 29.82 C11.7 18.26, 19.44 8.23, 25.04 1.9 M0.77 29.82 C9.94 19.62, 17.06 11.87, 25.04 1.9 M1.16 35.46 C6.43 29.04, 14.5 22.54, 30.03 2.26 M1.16 35.46 C8.24 27.68, 15.94 18.51, 30.03 2.26 M1.56 41.11 C13.46 24.63, 30.51 11.46, 35.67 1.86 M1.56 41.11 C8.97 31.67, 17 22.29, 35.67 1.86 M3.92 44.48 C15.03 33, 25.55 20.35, 40.66 2.22 M3.92 44.48 C16.38 28.72, 29.03 15.55, 40.66 2.22 M6.94 47.11 C16.73 34.08, 25.34 24.76, 46.3 1.83 M6.94 47.11 C19.47 31.1, 33.59 17.24, 46.3 1.83 M11.27 48.22 C26.49 33.11, 39.68 17.86, 51.29 2.19 M11.27 48.22 C26.19 30.59, 40.73 14.33, 51.29 2.19 M16.26 48.58 C22.88 40.1, 32.37 32.21, 56.28 2.55 M16.26 48.58 C30.23 32.33, 43.19 17.54, 56.28 2.55 M21.9 48.19 C34.4 33.2, 47.3 21.64, 61.92 2.15 M21.9 48.19 C37.09 30.09, 52.89 13.44, 61.92 2.15 M26.89 48.55 C41.82 31.83, 54.51 15.98, 66.91 2.51 M26.89 48.55 C42.66 32.41, 56.08 14.99, 66.91 2.51 M31.88 48.91 C47.19 29.42, 63.02 11.18, 72.55 2.12 M31.88 48.91 C42.34 36.63, 53.32 24.76, 72.55 2.12 M37.52 48.51 C48.71 35.67, 61.99 20.7, 77.54 2.48 M37.52 48.51 C52.61 33.25, 66.73 15.82, 77.54 2.48 M42.51 48.87 C56.6 35.47, 66.8 20.8, 83.18 2.08 M42.51 48.87 C53.54 36.77, 64.82 24.55, 83.18 2.08 M48.15 48.48 C64.63 31.85, 78.55 13.12, 88.17 2.44 M48.15 48.48 C56.9 38.45, 66.57 27.9, 88.17 2.44 M53.14 48.84 C65.17 38.68, 74.02 26.7, 93.81 2.05 M53.14 48.84 C66.52 33.35, 79.14 18.85, 93.81 2.05 M58.78 48.45 C71.75 31.03, 88.74 13.7, 98.8 2.41 M58.78 48.45 C71.85 34.15, 84.83 18.92, 98.8 2.41 M63.77 48.81 C75.65 34.7, 87.8 18.6, 104.44 2.01 M63.77 48.81 C76.25 34.89, 89.18 21.42, 104.44 2.01 M69.41 48.41 C83.75 31.83, 100.43 13.35, 109.43 2.37 M69.41 48.41 C85.61 30.27, 100.77 11.72, 109.43 2.37 M74.4 48.77 C87.38 35.8, 99.36 21.17, 115.07 1.98 M74.4 48.77 C86.59 34.67, 99.13 21.1, 115.07 1.98 M80.04 48.38 C94.51 32.06, 109.38 15.05, 120.06 2.34 M80.04 48.38 C96.19 29.65, 111.77 12.56, 120.06 2.34 M85.03 48.74 C97.88 35.63, 106.04 22.74, 125.7 1.94 M85.03 48.74 C94.97 37.91, 104.86 27.76, 125.7 1.94 M90.67 48.34 C100.49 39.12, 109.68 24.3, 130.69 2.3 M90.67 48.34 C102 35.71, 111.88 23.95, 130.69 2.3 M95.66 48.7 C106.29 38.31, 114.51 27.03, 136.33 1.91 M95.66 48.7 C104.62 39.39, 112.43 29.15, 136.33 1.91 M101.3 48.31 C117.99 29.59, 131.08 12.99, 141.32 2.27 M101.3 48.31 C109.49 37.99, 117.42 29.06, 141.32 2.27 M106.29 48.67 C115.69 36.27, 127.15 25.72, 146.96 1.88 M106.29 48.67 C118.62 33.26, 133.98 18.12, 146.96 1.88 M111.93 48.27 C120.42 36.88, 128.11 27.59, 151.95 2.24 M111.93 48.27 C127.67 31.78, 141.55 14.54, 151.95 2.24 M116.92 48.63 C126.84 33.4, 139.57 23.12, 156.94 2.6 M116.92 48.63 C131.07 31.95, 144.48 16.5, 156.94 2.6 M121.9 48.99 C135.35 34, 149.47 15.58, 162.58 2.2 M121.9 48.99 C133.86 33.87, 148.16 19.6, 162.58 2.2 M127.55 48.6 C141.89 32.58, 157.03 13.59, 167.57 2.56 M127.55 48.6 C143.91 30.6, 157.88 13.01, 167.57 2.56 M132.53 48.96 C142.48 41.06, 150.98 31.31, 173.21 2.17 M132.53 48.96 C144.24 36.86, 153.6 24.13, 173.21 2.17 M138.18 48.56 C152.13 34.45, 161.16 19.93, 178.2 2.53 M138.18 48.56 C153.12 30.54, 167.7 14.37, 178.2 2.53 M143.16 48.92 C156.44 31.96, 172.17 15.38, 183.84 2.13 M143.16 48.92 C158.86 31.66, 173.17 15.1, 183.84 2.13 M148.81 48.53 C162.11 35.03, 170.8 21.39, 188.83 2.49 M148.81 48.53 C159.3 38.19, 168.55 25.84, 188.83 2.49 M153.79 48.89 C164.4 39.64, 172 27.38, 194.47 2.1 M153.79 48.89 C163.34 36.46, 173.35 24.8, 194.47 2.1 M159.44 48.5 C170.06 36.35, 182.22 21.34, 199.46 2.46 M159.44 48.5 C175.09 30.92, 189.32 14.93, 199.46 2.46 M164.42 48.86 C180.26 33, 192.63 15.65, 205.1 2.06 M164.42 48.86 C176.46 35.82, 188.57 22.2, 205.1 2.06 M170.07 48.46 C181.16 32.81, 198.36 19.21, 210.09 2.42 M170.07 48.46 C181.68 35.88, 193.71 21.47, 210.09 2.42 M175.05 48.82 C191.03 29.64, 208.46 11.65, 215.73 2.03 M175.05 48.82 C187.62 32.88, 201.71 18.58, 215.73 2.03 M180.7 48.43 C193.31 31.62, 206.67 16.11, 220.72 2.39 M180.7 48.43 C195.05 30.73, 210.44 14.66, 220.72 2.39 M185.68 48.79 C193.86 38.1, 204.02 24.03, 226.36 1.99 M185.68 48.79 C200.7 32.78, 214.56 15.63, 226.36 1.99 M191.33 48.39 C204.31 33.14, 218.19 18, 231.35 2.35 M191.33 48.39 C206.84 30.5, 222.17 12.46, 231.35 2.35 M196.31 48.75 C208.92 34.94, 222.89 18.37, 236.99 1.96 M196.31 48.75 C212.6 31.22, 228.17 13.26, 236.99 1.96 M201.96 48.36 C209.93 37.76, 221.75 23.76, 241.98 2.32 M201.96 48.36 C213.46 34.37, 226.55 21.43, 241.98 2.32 M206.94 48.72 C221.61 30.71, 236.94 15.56, 246.96 2.68 M206.94 48.72 C216.55 36.77, 227.83 23.55, 246.96 2.68 M212.59 48.32 C224.56 36.22, 236.51 21.1, 252.61 2.29 M212.59 48.32 C224.98 35.26, 237.16 20.41, 252.61 2.29 M217.57 48.68 C233.22 31.71, 246.59 13.63, 257.59 2.65 M217.57 48.68 C227.18 38.02, 235.36 26.92, 257.59 2.65 M222.56 49.04 C236.14 32.99, 247.14 17.29, 263.24 2.25 M222.56 49.04 C238.91 31.53, 253.51 14.28, 263.24 2.25 M228.2 48.65 C234.89 37.03, 245.21 29.13, 268.22 2.61 M228.2 48.65 C240.35 34.22, 253.24 20.3, 268.22 2.61 M233.19 49.01 C246.29 32.7, 262.66 16.74, 272.55 3.73 M233.19 49.01 C246.11 35.58, 257.52 20.29, 272.55 3.73 M238.83 48.61 C249.96 36.07, 261.06 23.3, 274.92 7.1 M238.83 48.61 C252.13 35.23, 263.29 19.42, 274.92 7.1 M243.82 48.97 C252.98 38.12, 263.62 23.52, 275.31 12.75 M243.82 48.97 C254.78 37.81, 264.32 27.4, 275.31 12.75 M249.46 48.58 C256.19 37.67, 264.68 29.3, 275.05 19.15 M249.46 48.58 C254.16 42.53, 259.72 36.41, 275.05 19.15 M254.45 48.94 C261.56 40.2, 271.57 30.2, 275.45 24.79 M254.45 48.94 C262.05 39.57, 271.44 31.05, 275.45 24.79 M260.09 48.54 C265.95 44.4, 266.12 38.53, 275.18 31.19 M260.09 48.54 C264.99 43.22, 271.09 36.64, 275.18 31.19 M265.08 48.91 C270.19 42.9, 274.11 38.69, 275.58 36.83 M265.08 48.91 C268.53 44.43, 272.33 40.79, 275.58 36.83" stroke="#ced4da" stroke-width="0.5" fill="none"></path><path d="M11.75 0 M11.75 0 C110.07 -2.76, 206.07 -2.17, 263.25 0 M11.75 0 C62.2 -0.79, 112.63 -0.9, 263.25 0 M263.25 0 C271.44 -0.77, 274.42 2.49, 275 11.75 M263.25 0 C273.26 0.58, 272.86 5.82, 275 11.75 M275 11.75 C276.76 17.83, 273.57 26.58, 275 35.25 M275 11.75 C274.3 20.39, 274.26 30.31, 275 35.25 M275 35.25 C275.63 42.18, 269.72 48.46, 263.25 47 M275 35.25 C274.62 42.66, 270.07 45.64, 263.25 47 M263.25 47 C172.89 46.74, 82.08 46.86, 11.75 47 M263.25 47 C178.44 45.62, 92.97 46.08, 11.75 47 M11.75 47 C2.62 47.26, -1.75 44.57, 0 35.25 M11.75 47 C2.88 45.79, -0.07 43.28, 0 35.25 M0 35.25 C-2.14 30.31, -1.07 24.09, 0 11.75 M0 35.25 C-0.93 27.77, 0.71 20.86, 0 11.75 M0 11.75 C1.67 5.51, 2.48 0.95, 11.75 0 M0 11.75 C-1.75 3.22, 5.81 0.62, 11.75 0" stroke="#000000" stroke-width="1" fill="none"></path></g><g transform="translate(251.181640625 153.8056640625) rotate(0 126 12.5)"><text x="126" y="18" font-family="Virgil, Segoe UI Emoji" font-size="20px" fill="#000000" text-anchor="middle" style="white-space: pre;" direction="ltr">Event time Temporal Join</text></g><g stroke-linecap="round"><g transform="translate(174.83183646394878 131.4463676184314) rotate(0 30.380349476250785 6.596116977372958)"><path d="M0.27 -0.34 C10.48 2.07, 51.43 12.39, 61.81 14.76 M-1.05 -1.57 C8.93 0.51, 50.19 10.4, 60.72 13.22" stroke="#000000" stroke-width="1" fill="none"></path></g><g transform="translate(174.83183646394878 131.4463676184314) rotate(0 30.380349476250785 6.596116977372958)"><path d="M30.3 15.83 C42.97 15.99, 51.78 12.48, 61.98 15.08 M31.34 16.65 C39.71 16.22, 49 15.37, 60.59 12.72" stroke="#000000" stroke-width="1" fill="none"></path></g><g transform="translate(174.83183646394878 131.4463676184314) rotate(0 30.380349476250785 6.596116977372958)"><path d="M35.3 -4.07 C46.3 2.94, 53.39 6.27, 61.98 15.08 M36.35 -3.26 C43.33 2.16, 51.15 7.14, 60.59 12.72" stroke="#000000" stroke-width="1" fill="none"></path></g></g><mask></mask><g stroke-linecap="round"><g transform="translate(518.8258660326269 167.88575617663537) rotate(0 75.43639745029981 -1.6202025162822338)"><path d="M-0.34 -0.28 C24.81 -0.51, 126.1 -0.71, 151.22 -1.09 M1.68 -1.48 C26.74 -2.09, 126.18 -2.91, 150.85 -2.96" stroke="#000000" stroke-width="1" fill="none"></path></g><g transform="translate(518.8258660326269 167.88575617663537) rotate(0 75.43639745029981 -1.6202025162822338)"><path d="M122.25 9.31 C132.65 4.57, 139.33 2.04, 152.7 -3.1 M123.06 7.58 C133.2 4.44, 142.86 0.09, 150.35 -2.9" stroke="#000000" stroke-width="1" fill="none"></path></g><g transform="translate(518.8258660326269 167.88575617663537) rotate(0 75.43639745029981 -1.6202025162822338)"><path d="M122.13 -11.21 C132.61 -9.29, 139.34 -5.15, 152.7 -3.1 M122.94 -12.94 C133.18 -9.08, 142.88 -6.42, 150.35 -2.9" stroke="#000000" stroke-width="1" fill="none"></path></g></g><mask></mask><g stroke-linecap="round" transform="translate(10 187.4453125) rotate(0 81.41796875 23.1875)"><path d="M3.09 2.68 C3.09 2.68, 3.09 2.68, 3.09 2.68 M3.09 2.68 C3.09 2.68, 3.09 2.68, 3.09 2.68 M1.51 10.59 C5.33 7.31, 6.08 4.51, 10.04 0.78 M1.51 10.59 C3.63 7.81, 5.96 5.45, 10.04 0.78 M1.91 16.23 C6.06 11.33, 7.94 9.76, 14.37 1.89 M1.91 16.23 C5.81 9.94, 12.06 4.87, 14.37 1.89 M1.65 22.63 C4.51 19.82, 10.01 13.83, 19.36 2.25 M1.65 22.63 C6.14 17.78, 10.78 11.32, 19.36 2.25 M2.04 28.27 C8.05 21.94, 14.57 11.47, 24.35 2.61 M2.04 28.27 C10.79 18.31, 19.36 9.69, 24.35 2.61 M1.78 34.67 C11.6 22.95, 22.18 12.79, 29.99 2.22 M1.78 34.67 C10.66 23.8, 18.69 15.43, 29.99 2.22 M2.83 39.56 C14.74 24.1, 27.57 9.47, 34.98 2.58 M2.83 39.56 C13.08 28.41, 23.31 16.91, 34.98 2.58 M3.88 44.45 C13.51 32.05, 21.67 20.09, 40.62 2.18 M3.88 44.45 C17.37 28.09, 31.26 11.2, 40.62 2.18 M7.55 46.32 C19.49 30.31, 31.17 17.31, 45.61 2.54 M7.55 46.32 C21.94 31.14, 35.7 14.89, 45.61 2.54 M12.54 46.68 C24.89 31.08, 37.36 15.26, 51.25 2.15 M12.54 46.68 C23.96 32.42, 36.93 19.48, 51.25 2.15 M18.19 46.28 C32.34 30.02, 46.09 11.79, 56.24 2.51 M18.19 46.28 C30.35 32.68, 41.81 19.2, 56.24 2.51 M23.17 46.64 C37.1 30.24, 49.42 15.56, 61.88 2.12 M23.17 46.64 C34.7 32.99, 47.3 18.12, 61.88 2.12 M28.82 46.25 C38.67 37.48, 49.1 24.14, 66.87 2.48 M28.82 46.25 C41.88 30.81, 54.45 15.52, 66.87 2.48 M33.8 46.61 C43.12 37.2, 49.73 29.27, 71.85 2.84 M33.8 46.61 C44.13 34.53, 54.59 23.49, 71.85 2.84 M38.79 46.97 C50.4 35.21, 63.79 21.9, 77.5 2.44 M38.79 46.97 C49.79 36.45, 59.48 23.86, 77.5 2.44 M44.43 46.57 C55.2 33.14, 68.42 20.38, 82.48 2.8 M44.43 46.57 C58.04 30.54, 73.66 13.07, 82.48 2.8 M49.42 46.93 C58.01 35.85, 68.88 26.34, 88.13 2.41 M49.42 46.93 C59.07 37.13, 69.39 25.62, 88.13 2.41 M55.06 46.54 C67.84 33.21, 78.26 18.61, 93.11 2.77 M55.06 46.54 C68.15 31, 80.08 17.52, 93.11 2.77 M60.05 46.9 C71.84 35.71, 82.38 23.99, 98.76 2.37 M60.05 46.9 C71.31 32.46, 84.49 18.16, 98.76 2.37 M65.69 46.51 C75.06 36.99, 82.97 28.93, 103.74 2.73 M65.69 46.51 C79.1 30.23, 93.61 15.03, 103.74 2.73 M70.68 46.87 C81.62 36.91, 89.71 24.99, 109.39 2.34 M70.68 46.87 C81.33 35.04, 92.62 22.64, 109.39 2.34 M76.32 46.47 C89.29 32.68, 99.84 20.12, 114.37 2.7 M76.32 46.47 C89.96 30.74, 103.46 15.26, 114.37 2.7 M81.31 46.83 C95.45 33.48, 105.83 18.57, 119.36 3.06 M81.31 46.83 C95.1 32.11, 108.22 15.08, 119.36 3.06 M86.3 47.19 C100.22 33.45, 112.39 19.83, 125 2.66 M86.3 47.19 C100.64 30.84, 115.77 14.32, 125 2.66 M91.94 46.8 C98.66 37.73, 108.02 25.93, 129.99 3.02 M91.94 46.8 C105.42 31.24, 120.04 14.58, 129.99 3.02 M96.93 47.16 C113.27 32.35, 126.4 15.43, 135.63 2.63 M96.93 47.16 C107.6 35.98, 117.1 22.9, 135.63 2.63 M102.57 46.76 C113.74 35.36, 120.71 23.82, 140.62 2.99 M102.57 46.76 C114.95 31.61, 128 17.41, 140.62 2.99 M107.56 47.12 C120.53 29.42, 134.87 17.3, 146.26 2.59 M107.56 47.12 C122.75 30.73, 135.82 13.87, 146.26 2.59 M113.2 46.73 C124.19 37.07, 134.21 23.99, 151.25 2.95 M113.2 46.73 C126.18 32.42, 136.26 19.37, 151.25 2.95 M118.19 47.09 C132.28 31.56, 144.64 14.45, 157.55 1.81 M118.19 47.09 C131.68 31.72, 145.04 16.62, 157.55 1.81 M123.83 46.69 C131.64 35.17, 140.37 27.83, 161.23 3.67 M123.83 46.69 C136.14 31.67, 149.56 17.06, 161.23 3.67 M128.82 47.05 C138.77 36.97, 148.16 22.53, 162.93 7.81 M128.82 47.05 C139.42 37.17, 148.88 26.54, 162.93 7.81 M133.8 47.41 C147.78 35.75, 158.43 19.86, 165.29 11.19 M133.8 47.41 C141.28 39.04, 149.85 28.15, 165.29 11.19 M139.45 47.02 C146.54 41.06, 149.51 33.95, 165.03 17.59 M139.45 47.02 C146.17 38.17, 153.48 30.56, 165.03 17.59 M144.43 47.38 C148.52 42.71, 153.65 35.84, 164.77 23.98 M144.43 47.38 C151.86 40.47, 157.99 31.27, 164.77 23.98 M150.08 46.98 C153.93 43.38, 160.58 37.22, 165.17 29.63 M150.08 46.98 C153.7 42.9, 159.02 37.36, 165.17 29.63 M153.75 48.85 C158.18 45.17, 158.39 42.05, 164.9 36.02 M153.75 48.85 C156.81 45.66, 159.21 43.14, 164.9 36.02" stroke="#ced4da" stroke-width="0.5" fill="none"></path><path d="M11.59 0 M11.59 0 C53.65 1.86, 91.46 0.91, 151.24 0 M11.59 0 C62.35 1.05, 114.19 -0.11, 151.24 0 M151.24 0 C159.47 -0.13, 160.92 3.84, 162.84 11.59 M151.24 0 C158.15 1.62, 162.38 5.75, 162.84 11.59 M162.84 11.59 C160.99 18.55, 164.94 27.88, 162.84 34.78 M162.84 11.59 C162.8 19.11, 163.24 24.74, 162.84 34.78 M162.84 34.78 C164.74 40.8, 157.64 45.87, 151.24 46.38 M162.84 34.78 C161.74 43.49, 158.45 46.9, 151.24 46.38 M151.24 46.38 C96.84 47.66, 45.58 46.98, 11.59 46.38 M151.24 46.38 C96.4 45.3, 42.12 46.6, 11.59 46.38 M11.59 46.38 C4.21 44.57, -0.99 40.73, 0 34.78 M11.59 46.38 C3.8 46.88, -1.2 43.97, 0 34.78 M0 34.78 C-1.36 26.77, 1.11 21.95, 0 11.59 M0 34.78 C0.47 25.41, 0.27 16.86, 0 11.59 M0 11.59 C0.31 2.96, 4.67 -0.93, 11.59 0 M0 11.59 C1.92 5.84, 4.15 -0.52, 11.59 0" stroke="#000000" stroke-width="1" fill="none"></path></g><g transform="translate(15.41796875 198.1328125) rotate(0 76 12.5)"><text x="76" y="18" font-family="Virgil, Segoe UI Emoji" font-size="20px" fill="#000000" text-anchor="middle" style="white-space: pre;" direction="ltr">Dimension table</text></g><g stroke-linecap="round"><g transform="translate(171.0918394875946 212.7690881519702) rotate(0 30.032462309269818 -11.943859517631381)"><path d="M0.49 0.24 C10.3 -3.68, 48.55 -18.49, 58.58 -22.41 M-0.71 -0.68 C9.49 -4.42, 50.58 -20.58, 60.78 -24.13" stroke="#000000" stroke-width="1" fill="none"></path></g><g transform="translate(171.0918394875946 212.7690881519702) rotate(0 30.032462309269818 -11.943859517631381)"><path d="M38.37 -6.28 C45.36 -8.27, 50.25 -14.69, 61.38 -23.19 M38.62 -3.68 C45.44 -11.87, 53.27 -18.52, 61 -24.94" stroke="#000000" stroke-width="1" fill="none"></path></g><g transform="translate(171.0918394875946 212.7690881519702) rotate(0 30.032462309269818 -11.943859517631381)"><path d="M31.18 -25.51 C40.34 -22.21, 47.22 -23.31, 61.38 -23.19 M31.44 -22.91 C40.69 -24.73, 50.91 -24.95, 61 -24.94" stroke="#000000" stroke-width="1" fill="none"></path></g></g><mask></mask><g stroke-linecap="round" transform="translate(211.857421875 10) rotate(0 196 29.5)"><path d="M3.93 3.41 C3.93 3.41, 3.93 3.41, 3.93 3.41 M3.93 3.41 C3.93 3.41, 3.93 3.41, 3.93 3.41 M3.01 10.57 C5.95 6.62, 8.99 3.12, 10.23 2.26 M3.01 10.57 C4.89 7.58, 7.74 4.99, 10.23 2.26 M2.75 16.96 C8.31 12.95, 12.5 6.66, 16.52 1.11 M2.75 16.96 C5.4 12.81, 7.74 9.96, 16.52 1.11 M2.49 23.36 C6.93 17.44, 13.43 12.47, 21.51 1.47 M2.49 23.36 C7.55 17.33, 13.7 10.86, 21.51 1.47 M2.88 29 C8.34 23.97, 12.54 13.73, 27.15 1.08 M2.88 29 C11.06 20.74, 17.41 11.06, 27.15 1.08 M3.27 34.65 C12.01 24.16, 23.68 11.74, 32.14 1.44 M3.27 34.65 C14.18 24.3, 22.64 13.08, 32.14 1.44 M3.01 41.04 C11.08 30.49, 21.66 18.19, 37.78 1.05 M3.01 41.04 C13.92 28.55, 24.52 16.56, 37.78 1.05 M3.41 46.69 C13.71 35.2, 26.21 21.1, 42.77 1.41 M3.41 46.69 C11.65 36.96, 21.88 26.59, 42.77 1.41 M3.15 53.09 C16.06 40.69, 28.76 24.32, 48.41 1.01 M3.15 53.09 C19.43 34.91, 35.55 15.06, 48.41 1.01 M6.17 55.71 C17.83 41.57, 29.76 25.57, 53.4 1.37 M6.17 55.71 C16.43 45.07, 26.88 32.67, 53.4 1.37 M8.53 59.09 C21.66 43.71, 36.31 26.25, 58.39 1.73 M8.53 59.09 C24.36 42.3, 39.94 23.11, 58.39 1.73 M12.86 60.2 C29.96 42.06, 46.79 21.43, 64.03 1.34 M12.86 60.2 C24.13 46.53, 36.61 33.45, 64.03 1.34 M18.5 59.81 C34.48 40.46, 54.22 18.18, 69.02 1.7 M18.5 59.81 C33.92 41.53, 49.14 23.79, 69.02 1.7 M23.49 60.17 C42.52 39.11, 59.3 19.28, 74.66 1.3 M23.49 60.17 C40.39 40.95, 57.22 21.21, 74.66 1.3 M28.48 60.53 C45.3 41.3, 59.29 22.43, 79.65 1.66 M28.48 60.53 C47.62 37.62, 67.21 14.49, 79.65 1.66 M34.12 60.13 C47.48 46.61, 61.89 27.97, 85.29 1.27 M34.12 60.13 C45.34 46.2, 56.23 33.87, 85.29 1.27 M39.11 60.49 C52.57 46.17, 61.05 32.46, 90.28 1.63 M39.11 60.49 C53.28 43.99, 67.21 27.05, 90.28 1.63 M44.75 60.1 C61.82 40.29, 81.89 19.5, 95.92 1.23 M44.75 60.1 C64.39 38.18, 83.14 17.44, 95.92 1.23 M49.74 60.46 C69.76 38.82, 87.18 16.77, 100.91 1.59 M49.74 60.46 C59.91 47.53, 71.05 35.18, 100.91 1.59 M55.38 60.07 C74.61 40.9, 92.35 17.85, 106.55 1.2 M55.38 60.07 C69.91 43.61, 84.02 28.11, 106.55 1.2 M60.37 60.43 C80.1 36.59, 100.48 12.7, 111.54 1.56 M60.37 60.43 C75.23 43.28, 89.68 25.28, 111.54 1.56 M66.01 60.03 C85.05 39.41, 105.25 17.27, 117.18 1.16 M66.01 60.03 C83.55 40.07, 101.96 20.34, 117.18 1.16 M71 60.39 C91.76 38.98, 109.48 15.81, 122.17 1.52 M71 60.39 C86.84 40.83, 104.29 20.32, 122.17 1.52 M76.64 60 C95.74 41.27, 110.01 21.92, 127.81 1.13 M76.64 60 C91.68 41.18, 106.64 24.19, 127.81 1.13 M81.63 60.36 C90.66 49, 102.55 36.56, 132.8 1.49 M81.63 60.36 C93.98 45.69, 106.51 29.65, 132.8 1.49 M87.27 59.96 C107.51 35.85, 128.89 11.77, 138.44 1.09 M87.27 59.96 C103.94 40.01, 120.28 20.1, 138.44 1.09 M92.26 60.32 C109.9 39.05, 130.27 15.15, 143.43 1.46 M92.26 60.32 C104.97 46.57, 118.03 32.54, 143.43 1.46 M97.9 59.93 C114.19 45.07, 124.77 26.67, 148.42 1.82 M97.9 59.93 C115.31 39.29, 134.49 18.48, 148.42 1.82 M102.89 60.29 C121.03 39.13, 138.81 15.85, 154.06 1.42 M102.89 60.29 C123.5 37.88, 144.55 14.22, 154.06 1.42 M108.53 59.89 C124.11 41.62, 142.61 20.98, 159.05 1.78 M108.53 59.89 C125.89 38.97, 143.57 20.62, 159.05 1.78 M113.52 60.25 C128.68 45.69, 142.44 29.69, 164.69 1.39 M113.52 60.25 C128.6 42.28, 145.13 23.96, 164.69 1.39 M119.16 59.86 C132.81 41.72, 147.75 24.06, 169.68 1.75 M119.16 59.86 C139.09 37.81, 157.13 13.95, 169.68 1.75 M124.15 60.22 C143.46 36.03, 163.97 12.45, 175.32 1.35 M124.15 60.22 C134.79 46.16, 147.9 33.92, 175.32 1.35 M129.13 60.58 C148.36 39.29, 167.04 18.78, 180.31 1.71 M129.13 60.58 C142.9 45.12, 156.29 29.82, 180.31 1.71 M134.78 60.18 C147.75 45.39, 161.36 28.51, 185.95 1.32 M134.78 60.18 C152.39 38.49, 171.27 17.12, 185.95 1.32 M139.76 60.54 C153.44 43.82, 165.35 27.32, 190.94 1.68 M139.76 60.54 C151.07 46.3, 162.37 33.58, 190.94 1.68 M145.41 60.15 C165.21 35.77, 185.36 13.84, 196.58 1.28 M145.41 60.15 C164.64 37.62, 184.71 15.73, 196.58 1.28 M150.39 60.51 C170.87 38.86, 191.24 13.6, 201.57 1.64 M150.39 60.51 C163.21 44.66, 177.63 27.59, 201.57 1.64 M156.04 60.12 C171.15 43.79, 187.48 25.49, 207.21 1.25 M156.04 60.12 C168.66 48.05, 178.62 34.79, 207.21 1.25 M161.02 60.48 C177.82 41.16, 194.82 21.69, 212.2 1.61 M161.02 60.48 C173.55 46.75, 185.29 34.02, 212.2 1.61 M166.67 60.08 C184.64 41.78, 200.27 24.75, 217.84 1.21 M166.67 60.08 C184.06 39.64, 203.1 19.64, 217.84 1.21 M171.65 60.44 C182.63 48.99, 192.38 37.47, 222.83 1.57 M171.65 60.44 C185.39 43.26, 200.67 27.88, 222.83 1.57 M177.3 60.05 C197.93 36.2, 217.32 14.26, 228.47 1.18 M177.3 60.05 C193.24 42.1, 210.72 22.82, 228.47 1.18 M182.28 60.41 C196.43 43.21, 211.36 29.07, 233.46 1.54 M182.28 60.41 C194.41 46.43, 207.75 31.76, 233.46 1.54 M187.93 60.01 C201.01 46.14, 212.03 32.67, 239.1 1.14 M187.93 60.01 C207 37.8, 225.9 16.66, 239.1 1.14 M192.91 60.37 C209.92 44.08, 226.57 23.16, 244.09 1.5 M192.91 60.37 C206.48 45.68, 219.8 30.11, 244.09 1.5 M198.56 59.98 C210.91 44.21, 223.7 32.64, 249.07 1.86 M198.56 59.98 C210.89 45.51, 221.8 31.91, 249.07 1.86 M203.54 60.34 C219.29 41.72, 236.9 24.19, 254.72 1.47 M203.54 60.34 C222.91 37.07, 242.07 14.33, 254.72 1.47 M209.19 59.94 C225.06 38.83, 244.32 21.35, 259.7 1.83 M209.19 59.94 C225.9 39.2, 244.89 19.23, 259.7 1.83 M214.17 60.3 C228.75 44.07, 241.56 26, 265.35 1.44 M214.17 60.3 C231.71 41.26, 248.81 22.41, 265.35 1.44 M219.16 60.66 C236.27 42.74, 251.26 25.78, 270.33 1.8 M219.16 60.66 C231.69 47.42, 243.89 33.18, 270.33 1.8 M224.8 60.27 C237.32 43.68, 250.9 30.71, 275.98 1.4 M224.8 60.27 C241.48 41.22, 258.15 21.59, 275.98 1.4 M229.79 60.63 C242.4 42.41, 259.02 27.52, 280.96 1.76 M229.79 60.63 C245.68 41.18, 262.33 23.08, 280.96 1.76 M235.44 60.23 C248.48 47.92, 260.05 30.88, 286.61 1.37 M235.44 60.23 C249.04 44.53, 262.78 27.73, 286.61 1.37 M240.42 60.59 C253.83 44.26, 269.46 30.71, 291.59 1.73 M240.42 60.59 C256.35 42.95, 271.35 26.4, 291.59 1.73 M246.07 60.2 C261.72 45.85, 272.46 28.37, 297.24 1.33 M246.07 60.2 C264.42 36.81, 285.6 13.5, 297.24 1.33 M251.05 60.56 C264.64 45.87, 276.24 34.49, 302.22 1.69 M251.05 60.56 C270.7 38.09, 289.68 16.67, 302.22 1.69 M256.7 60.17 C275.81 39.25, 295.2 17.44, 307.87 1.3 M256.7 60.17 C275.61 38.09, 293.6 15.7, 307.87 1.3 M261.68 60.53 C280.36 39.83, 298.99 16.9, 312.85 1.66 M261.68 60.53 C276.21 43.17, 290.64 28.47, 312.85 1.66 M267.33 60.13 C284.47 36.39, 304.34 18.21, 318.5 1.26 M267.33 60.13 C278.16 46.45, 290.33 33.95, 318.5 1.26 M272.31 60.49 C285.42 44.75, 297.9 28.94, 323.48 1.62 M272.31 60.49 C291.19 39.53, 309.85 18.3, 323.48 1.62 M277.96 60.1 C297.29 40.55, 314.41 21.7, 329.13 1.23 M277.96 60.1 C290.67 46.24, 301.44 32.81, 329.13 1.23 M282.94 60.46 C297.68 39.89, 315.81 22.8, 334.12 1.59 M282.94 60.46 C300.52 39.42, 317.37 21.12, 334.12 1.59 M288.59 60.06 C303.13 41.65, 319.53 21.13, 339.76 1.19 M288.59 60.06 C307.25 37.25, 328.42 16.34, 339.76 1.19 M293.57 60.42 C312.28 40.55, 326.49 21.66, 344.75 1.55 M293.57 60.42 C312.03 37.57, 333.5 15.34, 344.75 1.55 M299.22 60.03 C318.18 39.71, 337.18 15.84, 349.73 1.91 M299.22 60.03 C316.17 39.06, 335.01 20.63, 349.73 1.91 M304.2 60.39 C320.25 38.94, 338.12 21.46, 355.38 1.52 M304.2 60.39 C323.1 38.17, 342.37 16.83, 355.38 1.52 M309.85 59.99 C327.21 39.31, 348.29 16.18, 360.36 1.88 M309.85 59.99 C324.51 42.82, 339.74 25.52, 360.36 1.88 M314.83 60.35 C330.25 40.09, 348.85 22.63, 366.01 1.49 M314.83 60.35 C327.55 45.39, 341.39 29.93, 366.01 1.49 M319.82 60.71 C338.89 39.39, 355.73 19.39, 370.99 1.85 M319.82 60.71 C335.04 43.82, 350.83 25.88, 370.99 1.85 M325.46 60.32 C342.95 39.64, 361.16 19.81, 376.64 1.45 M325.46 60.32 C342.99 41.54, 358.77 23.85, 376.64 1.45 M330.45 60.68 C342.95 45.44, 357.19 32.96, 382.28 1.06 M330.45 60.68 C346.72 41.9, 363.16 23.42, 382.28 1.06 M336.09 60.28 C357.76 36.64, 376.07 15.28, 385.95 2.93 M336.09 60.28 C350.84 43.66, 366.24 24.75, 385.95 2.93 M341.08 60.64 C357.3 43.18, 370.66 29.52, 389.63 4.8 M341.08 60.64 C359.21 39.57, 377.88 18.54, 389.63 4.8 M346.72 60.25 C363.73 40.88, 378.1 25.72, 391.33 8.93 M346.72 60.25 C359.29 47.21, 371.19 34.08, 391.33 8.93 M351.71 60.61 C359.19 51.86, 368.61 40.39, 391.73 14.57 M351.71 60.61 C363.26 47.79, 373.55 35.7, 391.73 14.57 M357.35 60.21 C365 52.69, 371.52 43.79, 391.47 20.97 M357.35 60.21 C368.6 46.75, 380.63 34.36, 391.47 20.97 M362.34 60.57 C369.93 51.52, 376.63 44.28, 391.86 26.61 M362.34 60.57 C369.57 52.88, 374.79 46.76, 391.86 26.61 M367.98 60.18 C373.48 51.66, 383.14 41.64, 392.26 32.26 M367.98 60.18 C376.98 49.65, 386.24 39.8, 392.26 32.26 M372.97 60.54 C378.69 50.78, 388.3 43.3, 392 38.65 M372.97 60.54 C378.5 53.14, 385.93 47.28, 392 38.65 M378.61 60.15 C383.97 55.04, 388.45 46.02, 392.39 44.3 M378.61 60.15 C383.28 55.11, 386.11 51.89, 392.39 44.3 M384.91 59 C387.03 57.15, 390.72 53.09, 393.44 49.19 M384.91 59 C386.57 56.71, 388.77 54.71, 393.44 49.19" stroke="#ced4da" stroke-width="0.5" fill="none"></path><path d="M14.75 0 M14.75 0 C155.33 0.82, 297.39 -0.67, 377.25 0 M14.75 0 C124.04 -1.56, 233.37 -1.8, 377.25 0 M377.25 0 C385.88 1.04, 391.04 4.94, 392 14.75 M377.25 0 C388.68 1.12, 392.34 4.94, 392 14.75 M392 14.75 C391.81 26.4, 392.84 39.35, 392 44.25 M392 14.75 C392.43 25.52, 392.38 35.48, 392 44.25 M392 44.25 C391.64 52.12, 386.95 60.84, 377.25 59 M392 44.25 C390.5 55.79, 384.97 61.17, 377.25 59 M377.25 59 C245.25 58.09, 111.46 59.92, 14.75 59 M377.25 59 C291.7 61.22, 207.36 60.19, 14.75 59 M14.75 59 C4.72 59.46, 0.96 52.85, 0 44.25 M14.75 59 C6.53 57.52, 0.6 54.36, 0 44.25 M0 44.25 C-1.26 35.58, -1.31 27.83, 0 14.75 M0 44.25 C1.09 37.48, 0.44 30.05, 0 14.75 M0 14.75 C1.2 3.02, 3.55 -0.43, 14.75 0 M0 14.75 C-0.59 6.23, 2.9 0.07, 14.75 0" stroke="#000000" stroke-width="1" fill="none"></path></g><g transform="translate(219.357421875 27) rotate(0 188.5 12.5)"><text x="188.5" y="18" font-family="Virgil, Segoe UI Emoji" font-size="20px" fill="#000000" text-anchor="middle" style="white-space: pre;" direction="ltr">Outer State(watermark_key, join key)</text></g><g stroke-linecap="round" transform="translate(178.919921875 269.4140625) rotate(0 212 42.5)"><path d="M5 5.67 C5 5.67, 5 5.67, 5 5.67 M5 5.67 C5 5.67, 5 5.67, 5 5.67 M3.43 13.58 C6.22 9.59, 8.61 6.77, 13.27 2.26 M3.43 13.58 C7.22 9.16, 11.15 4.8, 13.27 2.26 M1.2 22.24 C6.17 17.09, 9.84 8.39, 18.91 1.86 M1.2 22.24 C6.83 14.67, 13.39 8.54, 18.91 1.86 M0.94 28.64 C10.28 19.89, 15.58 12.89, 23.9 2.22 M0.94 28.64 C7.66 21.45, 12.99 15.16, 23.9 2.22 M1.33 34.28 C5.22 25.56, 13.04 19.84, 28.88 2.58 M1.33 34.28 C9.46 23.29, 18.82 13.43, 28.88 2.58 M1.07 40.68 C15.76 24.43, 27.25 9.59, 34.53 2.19 M1.07 40.68 C8.95 31.21, 17.99 19.74, 34.53 2.19 M1.46 46.32 C12.78 31.99, 24.69 20.67, 39.51 2.55 M1.46 46.32 C13.72 32.55, 25.13 18.42, 39.51 2.55 M1.2 52.72 C10.02 42.71, 18.73 30.95, 45.16 2.15 M1.2 52.72 C11.53 41.96, 20.4 29.99, 45.16 2.15 M0.94 59.12 C12.46 45.39, 23.68 35.31, 50.14 2.51 M0.94 59.12 C17.54 39.25, 32.77 21.18, 50.14 2.51 M1.34 64.76 C12.17 49.16, 24.8 34.41, 55.79 2.12 M1.34 64.76 C19.21 44.15, 36.02 24.57, 55.79 2.12 M1.73 70.4 C15.66 53.52, 29.5 39.02, 60.77 2.48 M1.73 70.4 C16.55 52.54, 30.38 36.5, 60.77 2.48 M3.44 74.54 C19.46 55.47, 32.41 40.04, 66.42 2.09 M3.44 74.54 C19.56 57.01, 34.64 40.52, 66.42 2.09 M5.8 77.92 C33.88 46.19, 58.41 16.89, 71.41 2.45 M5.8 77.92 C20.35 60.58, 36.16 44.13, 71.41 2.45 M8.16 81.3 C26.49 59.99, 45.62 37.57, 77.05 2.05 M8.16 81.3 C33.11 52.27, 57.24 25.46, 77.05 2.05 M11.18 83.92 C38.09 50.79, 67.49 22.29, 82.04 2.41 M11.18 83.92 C35.23 55.65, 59.3 27.98, 82.04 2.41 M14.86 85.79 C41.05 54.81, 62.8 29.21, 87.68 2.02 M14.86 85.79 C37.49 59.8, 60.91 32.55, 87.68 2.02 M19.19 86.9 C38.13 61.78, 59.85 41, 92.67 2.38 M19.19 86.9 C44.65 56.82, 70.61 27.81, 92.67 2.38 M24.17 87.26 C46.44 63.84, 67.01 38.04, 98.31 1.98 M24.17 87.26 C45.68 63.32, 67.72 38.44, 98.31 1.98 M29.82 86.87 C56.39 55.55, 81.34 23.8, 103.3 2.34 M29.82 86.87 C52.42 61.01, 75.02 36.46, 103.3 2.34 M34.8 87.23 C59.22 58.3, 80.8 31.65, 108.28 2.7 M34.8 87.23 C58.5 60.65, 81.78 34.56, 108.28 2.7 M40.45 86.84 C64.55 58.22, 88.47 32.28, 113.93 2.31 M40.45 86.84 C65.35 56.89, 91.2 28.5, 113.93 2.31 M45.43 87.2 C69.93 60.79, 92.53 33.46, 118.91 2.67 M45.43 87.2 C71.34 58.95, 96.26 30.28, 118.91 2.67 M51.08 86.8 C69.21 64.86, 89.44 43.8, 124.56 2.27 M51.08 86.8 C74.23 59.66, 98.38 33.95, 124.56 2.27 M56.06 87.16 C76.64 62.69, 100.26 35.33, 129.54 2.63 M56.06 87.16 C85.12 53.75, 113.82 20.55, 129.54 2.63 M61.71 86.77 C81.25 65.01, 101.24 41.7, 135.19 2.24 M61.71 86.77 C86.69 56.48, 114.23 27.99, 135.19 2.24 M66.69 87.13 C93.92 56.19, 119.21 29.2, 140.17 2.6 M66.69 87.13 C82.17 68.05, 100.18 49.44, 140.17 2.6 M71.68 87.49 C91.16 63.78, 110.37 41.04, 145.82 2.2 M71.68 87.49 C92.47 64.66, 112.18 39.59, 145.82 2.2 M77.32 87.09 C98.09 59, 124.11 32.88, 150.8 2.56 M77.32 87.09 C95.79 66.92, 113.02 48.43, 150.8 2.56 M82.31 87.45 C108.22 55.17, 136.84 24.86, 156.45 2.17 M82.31 87.45 C98.6 69.35, 113.96 51.42, 156.45 2.17 M87.95 87.06 C108.49 63.87, 127.86 41.82, 161.43 2.53 M87.95 87.06 C114.4 58.41, 139.96 26.82, 161.43 2.53 M92.94 87.42 C113.9 64.49, 132.2 40.5, 167.08 2.14 M92.94 87.42 C121.79 54.85, 148.67 24.48, 167.08 2.14 M98.58 87.02 C116.92 64.18, 140.27 43.55, 172.06 2.5 M98.58 87.02 C126.32 52.38, 156.69 20.66, 172.06 2.5 M103.57 87.38 C128.18 58.36, 151.26 33.07, 177.71 2.1 M103.57 87.38 C124.86 65.46, 144.9 42.26, 177.71 2.1 M109.21 86.99 C125.4 69.77, 139.18 50.43, 182.69 2.46 M109.21 86.99 C128.47 64.87, 146.38 44.28, 182.69 2.46 M114.2 87.35 C134.37 63.14, 156.14 42.09, 188.34 2.07 M114.2 87.35 C136.87 61.48, 159.74 36.06, 188.34 2.07 M119.84 86.95 C146.29 53.66, 174.56 23.7, 193.32 2.43 M119.84 86.95 C144.65 58.55, 171.4 28.88, 193.32 2.43 M124.83 87.31 C142.23 67.25, 161.41 46.67, 198.31 2.79 M124.83 87.31 C153.12 55.9, 180.78 25.29, 198.31 2.79 M130.47 86.92 C151.3 62.6, 169.44 41.38, 203.95 2.39 M130.47 86.92 C156.48 56.47, 182.01 27.76, 203.95 2.39 M135.46 87.28 C163.46 56.32, 188.36 22.13, 208.94 2.75 M135.46 87.28 C153.87 64.59, 173.45 42.39, 208.94 2.75 M141.1 86.89 C170.55 53.3, 195.21 22.41, 214.58 2.36 M141.1 86.89 C159.5 66.52, 177.98 44.23, 214.58 2.36 M146.09 87.25 C162.7 70.16, 179.15 48.79, 219.57 2.72 M146.09 87.25 C166.42 65.61, 183.9 42.95, 219.57 2.72 M151.73 86.85 C166.23 70.12, 182.26 49.39, 225.21 2.32 M151.73 86.85 C177.88 58.6, 203.32 30.76, 225.21 2.32 M156.72 87.21 C183.17 57.56, 208.6 26.61, 230.2 2.68 M156.72 87.21 C182.98 57.95, 206.9 29.19, 230.2 2.68 M161.71 87.57 C183.07 65.42, 201.71 39.64, 235.84 2.29 M161.71 87.57 C191.48 54.07, 218.74 21.79, 235.84 2.29 M167.35 87.18 C190.46 60.81, 216.91 29.11, 240.83 2.65 M167.35 87.18 C195.08 55.76, 222.72 23.43, 240.83 2.65 M172.34 87.54 C195.7 60.66, 215.64 35.28, 246.47 2.25 M172.34 87.54 C191.21 65.74, 210.08 42.28, 246.47 2.25 M177.98 87.14 C201.5 61.99, 224.14 34.36, 251.46 2.61 M177.98 87.14 C201.44 59.06, 225.69 31.96, 251.46 2.61 M182.97 87.5 C213.95 54.54, 243.83 20.71, 257.1 2.22 M182.97 87.5 C205.69 60.54, 230.22 34.33, 257.1 2.22 M188.61 87.11 C212.03 63.25, 234.94 36.82, 262.09 2.58 M188.61 87.11 C209.05 65.16, 227.33 44.41, 262.09 2.58 M193.6 87.47 C214.39 60.91, 239.43 33.2, 267.73 2.19 M193.6 87.47 C209.62 69.87, 225.51 51.02, 267.73 2.19 M199.24 87.07 C219.37 65.2, 235.99 40.93, 272.72 2.55 M199.24 87.07 C223.05 59.68, 246.18 32.84, 272.72 2.55 M204.23 87.43 C230.98 58.46, 257.94 27.12, 278.36 2.15 M204.23 87.43 C227.13 60.67, 249.2 35.78, 278.36 2.15 M209.87 87.04 C239.81 55.1, 268.11 20.34, 283.35 2.51 M209.87 87.04 C236.84 56.79, 262.55 27.7, 283.35 2.51 M214.86 87.4 C236.88 60.37, 257.82 34.24, 288.34 2.87 M214.86 87.4 C231.57 67.02, 249.21 47.62, 288.34 2.87 M220.5 87 C242.67 65.03, 261.5 39.68, 293.98 2.48 M220.5 87 C243.66 61.1, 265.47 33.98, 293.98 2.48 M225.49 87.36 C244.42 62.44, 267.44 41.61, 298.97 2.84 M225.49 87.36 C250.7 59.14, 273.73 32.05, 298.97 2.84 M231.13 86.97 C256.32 60.44, 280.67 32.84, 304.61 2.44 M231.13 86.97 C246.7 69.45, 262.8 50.96, 304.61 2.44 M236.12 87.33 C256.03 65.39, 274.32 46.4, 309.6 2.8 M236.12 87.33 C251.45 67.93, 269.55 49.72, 309.6 2.8 M241.76 86.93 C268.32 55.6, 293.67 24.69, 315.24 2.41 M241.76 86.93 C271.37 54.58, 300.23 21.01, 315.24 2.41 M246.75 87.29 C274.63 57.77, 301.81 23.92, 320.23 2.77 M246.75 87.29 C265.31 67.16, 283.2 45.29, 320.23 2.77 M252.39 86.9 C279.04 54.34, 308.56 24.24, 325.87 2.37 M252.39 86.9 C272.51 64.12, 292.26 39.99, 325.87 2.37 M257.38 87.26 C274.9 68.93, 289.4 48.47, 330.86 2.73 M257.38 87.26 C271.83 69.61, 288.04 51.23, 330.86 2.73 M262.37 87.62 C293.42 53.59, 322.63 20.76, 336.5 2.34 M262.37 87.62 C288.6 58.38, 315.66 27.69, 336.5 2.34 M268.01 87.23 C294.98 54.19, 326.03 23.26, 341.49 2.7 M268.01 87.23 C286.59 68.98, 303.1 48.07, 341.49 2.7 M273 87.59 C290.6 65.44, 312.31 44.07, 347.13 2.3 M273 87.59 C294.75 64.73, 314.45 42.48, 347.13 2.3 M278.64 87.19 C293.94 68.37, 309.79 51.91, 352.12 2.66 M278.64 87.19 C302.93 62.18, 325.31 34.55, 352.12 2.66 M283.63 87.55 C313.36 54.74, 343.33 20.19, 357.76 2.27 M283.63 87.55 C306.57 61.76, 329.06 36.25, 357.76 2.27 M289.27 87.16 C313 60.42, 333.59 38.21, 362.75 2.63 M289.27 87.16 C315.46 57.36, 341.1 27.62, 362.75 2.63 M294.26 87.52 C313.47 67.72, 328.5 49.54, 368.39 2.23 M294.26 87.52 C313.77 65.49, 332.27 43.69, 368.39 2.23 M299.9 87.12 C316.4 67.36, 336.33 46, 373.38 2.59 M299.9 87.12 C325.7 57.93, 350.68 27.59, 373.38 2.59 M304.89 87.48 C323.47 66.37, 340.01 46.52, 379.02 2.2 M304.89 87.48 C320.41 70.07, 335.03 52.59, 379.02 2.2 M310.53 87.09 C331.05 67.05, 348.14 44.74, 384.01 2.56 M310.53 87.09 C338.35 55.62, 366.34 23.14, 384.01 2.56 M315.52 87.45 C332.83 67.56, 350.79 47.19, 389 2.92 M315.52 87.45 C342.7 55.23, 369.11 24.57, 389 2.92 M321.16 87.05 C345.04 61.81, 370.06 32.71, 394.64 2.53 M321.16 87.05 C337.34 68.83, 355.08 49.51, 394.64 2.53 M326.15 87.41 C349.49 62.19, 371.96 31.56, 399.63 2.89 M326.15 87.41 C354.89 55.18, 381.56 22.13, 399.63 2.89 M331.79 87.02 C352.68 62.39, 371.14 41.02, 405.27 2.49 M331.79 87.02 C358.19 56.5, 384.48 25.87, 405.27 2.49 M336.78 87.38 C359.78 60.64, 386.34 32.06, 410.26 2.85 M336.78 87.38 C355.56 67.1, 372.87 46.34, 410.26 2.85 M342.42 86.98 C363.21 63.49, 384.61 35.06, 413.93 4.72 M342.42 86.98 C368.19 57.27, 394.58 26.47, 413.93 4.72 M347.41 87.34 C373.71 56.96, 399.06 31.95, 418.92 5.08 M347.41 87.34 C363.22 69.87, 378.81 51.46, 418.92 5.08 M352.39 87.7 C371.45 67.19, 389.38 47.68, 420.62 9.21 M352.39 87.7 C373.84 65.47, 394.23 42.03, 420.62 9.21 M358.04 87.31 C372.9 67.09, 389.24 51.97, 422.99 12.59 M358.04 87.31 C373.22 69.91, 389.07 51.65, 422.99 12.59 M363.02 87.67 C387.26 60.87, 406.58 37.81, 424.04 17.48 M363.02 87.67 C381.39 67.23, 401.07 45.25, 424.04 17.48 M368.67 87.28 C385.67 66.18, 403.61 46.94, 425.09 22.37 M368.67 87.28 C390.24 61.77, 412.72 36.28, 425.09 22.37 M373.65 87.64 C387.52 72.74, 399.47 59.59, 424.83 28.77 M373.65 87.64 C385.46 74.44, 397.97 60.63, 424.83 28.77 M379.3 87.24 C390.56 76.44, 400.42 63.15, 425.22 34.41 M379.3 87.24 C387.94 76.91, 396.93 66.46, 425.22 34.41 M384.28 87.6 C400.62 68.97, 414.11 54.73, 424.96 40.81 M384.28 87.6 C392.82 77.18, 403.6 64.54, 424.96 40.81 M389.93 87.21 C398.69 76.84, 408.72 64.36, 424.7 47.21 M389.93 87.21 C400.46 74.28, 411.69 61.78, 424.7 47.21 M394.91 87.57 C406.78 77.13, 417.79 63.4, 425.09 52.85 M394.91 87.57 C404.38 75.72, 415.17 64.59, 425.09 52.85 M400.56 87.17 C404.9 81.75, 410.13 76.91, 424.83 59.25 M400.56 87.17 C406.14 80.85, 412.84 72.3, 424.83 59.25 M405.54 87.53 C409.51 79.54, 415.36 74.83, 424.57 65.65 M405.54 87.53 C410.8 81.27, 415.72 74.43, 424.57 65.65 M412.5 85.63 C416.38 80.91, 418.93 75.18, 425.62 70.53 M412.5 85.63 C415.01 81.22, 418.66 78.65, 425.62 70.53" stroke="#ced4da" stroke-width="0.5" fill="none"></path><path d="M21.25 0 M21.25 0 C174.14 1.6, 326.74 1.38, 402.75 0 M21.25 0 C133.92 0.53, 246.32 0.96, 402.75 0 M402.75 0 C416.1 0.81, 424.11 7.64, 424 21.25 M402.75 0 C417.35 -1.39, 422.77 6.08, 424 21.25 M424 21.25 C423.45 31.68, 422.83 42.01, 424 63.75 M424 21.25 C422.89 32.8, 423.73 43.62, 424 63.75 M424 63.75 C425.9 77.99, 416.8 83.82, 402.75 85 M424 63.75 C423.09 78.4, 415.08 86.48, 402.75 85 M402.75 85 C268.17 83.34, 133.75 83.69, 21.25 85 M402.75 85 C305.29 84.6, 207.14 84.84, 21.25 85 M21.25 85 C5.38 83.17, -1.21 79, 0 63.75 M21.25 85 C5.71 84.03, -2.03 77.71, 0 63.75 M0 63.75 C1.08 52.83, 0.22 43.06, 0 21.25 M0 63.75 C0.71 52.99, -0.22 41.83, 0 21.25 M0 21.25 C-0.22 6.46, 5.71 -1.38, 21.25 0 M0 21.25 C-1.57 9.37, 5.68 -2.05, 21.25 0" stroke="#000000" stroke-width="1" fill="none"></path></g><g transform="translate(189.419921875 274.4140625) rotate(0 201.5 37.5)"><text x="201.5" y="18" font-family="Virgil, Segoe UI Emoji" font-size="20px" fill="#000000" text-anchor="middle" style="white-space: pre;" direction="ltr">Inner State</text><text x="201.5" y="43" font-family="Virgil, Segoe UI Emoji" font-size="20px" fill="#000000" text-anchor="middle" style="white-space: pre;" direction="ltr">1. Main Table (join_key)</text><text x="201.5" y="68" font-family="Virgil, Segoe UI Emoji" font-size="20px" fill="#000000" text-anchor="middle" style="white-space: pre;" direction="ltr">2.History Table(watermark_key, join key)</text></g><g stroke-linecap="round"><g transform="translate(394.8481819302076 67.6604907371102) rotate(0 -0.5539260385775151 38.34730030593937)"><path d="M-0.09 0.5 C-0.13 13.14, 0.4 64.31, 0.51 76.98 M-1.59 -0.29 C-1.82 12.51, -0.52 62.12, -0.25 75.16" stroke="#000000" stroke-width="1" fill="none"></path></g></g><mask></mask><g stroke-linecap="round"><g transform="translate(395.7893876620037 193.3620996308655) rotate(0 0.1731418009284198 33.872335629104555)"><path d="M0.5 0.36 C0.49 11.75, 1.05 56.81, 1.07 68.24 M-0.7 -0.49 C-0.92 10.53, 0.31 55.06, 0.42 66.33" stroke="#000000" stroke-width="1" fill="none"></path></g></g><mask></mask><g stroke-linecap="round" transform="translate(637.5185546875 269.212890625) rotate(0 212 42.5)"><path d="M5 5.67 C5 5.67, 5 5.67, 5 5.67 M5 5.67 C5 5.67, 5 5.67, 5 5.67 M3.43 13.58 C6.14 11.98, 8.56 6.89, 13.27 2.26 M3.43 13.58 C5.87 11.57, 7.34 8.64, 13.27 2.26 M1.2 22.24 C5.69 16.57, 12.72 11.98, 18.91 1.86 M1.2 22.24 C6.89 17.5, 10.59 11.23, 18.91 1.86 M0.94 28.64 C9.2 17.76, 18.3 7.96, 23.9 2.22 M0.94 28.64 C6.82 20.21, 14.32 11.3, 23.9 2.22 M1.33 34.28 C12.02 23.2, 20 14.9, 28.88 2.58 M1.33 34.28 C10.09 23.95, 20.29 12.1, 28.88 2.58 M1.07 40.68 C11.19 29.7, 20.75 15.36, 34.53 2.19 M1.07 40.68 C9.52 31.44, 18.75 20.29, 34.53 2.19 M1.46 46.32 C8.26 35.4, 16.83 25.42, 39.51 2.55 M1.46 46.32 C12.93 32.68, 23.43 20.04, 39.51 2.55 M1.2 52.72 C13.55 38.33, 25.77 22.82, 45.16 2.15 M1.2 52.72 C12.45 38.89, 25.03 25.72, 45.16 2.15 M0.94 59.12 C14.52 44.01, 25.75 27.77, 50.14 2.51 M0.94 59.12 C15.08 43.11, 28.26 27.04, 50.14 2.51 M1.34 64.76 C14.87 45.39, 32.8 28.24, 55.79 2.12 M1.34 64.76 C13.21 51, 26.28 36.56, 55.79 2.12 M1.73 70.4 C17.72 53.51, 34.15 35.84, 60.77 2.48 M1.73 70.4 C17.1 50.63, 33.41 31.96, 60.77 2.48 M3.44 74.54 C23.07 51.72, 41.86 33.4, 66.42 2.09 M3.44 74.54 C26.13 50.07, 46.54 25.34, 66.42 2.09 M5.8 77.92 C24.26 54.58, 44.51 33.05, 71.41 2.45 M5.8 77.92 C31.87 49.84, 55.77 20.02, 71.41 2.45 M8.16 81.3 C28.22 55.22, 51.54 32.67, 77.05 2.05 M8.16 81.3 C28.12 57.93, 49.08 35.83, 77.05 2.05 M11.18 83.92 C37.08 55.1, 62.71 24.66, 82.04 2.41 M11.18 83.92 C37.91 52.91, 64.95 23.78, 82.04 2.41 M14.86 85.79 C39.58 56.06, 64.34 25.91, 87.68 2.02 M14.86 85.79 C32.94 64.41, 51.58 43.87, 87.68 2.02 M19.19 86.9 C46.43 55.03, 71.24 28.94, 92.67 2.38 M19.19 86.9 C43.2 58.47, 68.76 30.96, 92.67 2.38 M24.17 87.26 C40.36 67.33, 53.78 51.03, 98.31 1.98 M24.17 87.26 C46.81 61.69, 69.21 35.3, 98.31 1.98 M29.82 86.87 C55.29 59.22, 79.81 32.38, 103.3 2.34 M29.82 86.87 C46.81 68.91, 64.42 47.64, 103.3 2.34 M34.8 87.23 C59.2 60.72, 84.12 32.42, 108.28 2.7 M34.8 87.23 C52.3 69.38, 66.93 51.37, 108.28 2.7 M40.45 86.84 C68.05 54.48, 93.57 25.12, 113.93 2.31 M40.45 86.84 C64.02 58.52, 87.86 31.89, 113.93 2.31 M45.43 87.2 C66.74 60.78, 91.61 34.1, 118.91 2.67 M45.43 87.2 C62.48 66.01, 81.02 45.91, 118.91 2.67 M51.08 86.8 C76.6 57.07, 101.95 28.21, 124.56 2.27 M51.08 86.8 C79.94 53.71, 108.67 21.79, 124.56 2.27 M56.06 87.16 C82.56 52.78, 113.2 22.42, 129.54 2.63 M56.06 87.16 C81.65 56.32, 107.53 27.94, 129.54 2.63 M61.71 86.77 C86.13 60.42, 110.85 30.46, 135.19 2.24 M61.71 86.77 C81.2 65.18, 98.83 43.84, 135.19 2.24 M66.69 87.13 C80.42 68.06, 96.52 51.87, 140.17 2.6 M66.69 87.13 C94.83 54.53, 123.6 22.7, 140.17 2.6 M71.68 87.49 C89.85 69.53, 108.11 48.43, 145.82 2.2 M71.68 87.49 C93.63 62.72, 116.02 37.62, 145.82 2.2 M77.32 87.09 C93.83 68.42, 108.19 51.24, 150.8 2.56 M77.32 87.09 C98.55 62.69, 120.78 39.36, 150.8 2.56 M82.31 87.45 C108.41 58.78, 130.47 30.18, 156.45 2.17 M82.31 87.45 C106.21 60.95, 129.28 33.01, 156.45 2.17 M87.95 87.06 C106.33 67.42, 121.26 47.26, 161.43 2.53 M87.95 87.06 C108.31 62.24, 129.18 37.65, 161.43 2.53 M92.94 87.42 C118.69 57.77, 143.54 28.85, 167.08 2.14 M92.94 87.42 C114.13 62.57, 135.28 39.46, 167.08 2.14 M98.58 87.02 C124.48 58.31, 150.92 28.91, 172.06 2.5 M98.58 87.02 C121.14 59.7, 145.93 34.25, 172.06 2.5 M103.57 87.38 C132.11 56.56, 161.34 23.69, 177.71 2.1 M103.57 87.38 C119.21 70.88, 134.06 53.23, 177.71 2.1 M109.21 86.99 C123.61 70.63, 140.23 50.77, 182.69 2.46 M109.21 86.99 C125.94 68.44, 140.23 49.66, 182.69 2.46 M114.2 87.35 C138.19 57.82, 165.67 31.06, 188.34 2.07 M114.2 87.35 C131.06 70.5, 144.43 51.9, 188.34 2.07 M119.84 86.95 C142.76 60.39, 163.15 37.72, 193.32 2.43 M119.84 86.95 C140.83 63.64, 160.77 38.51, 193.32 2.43 M124.83 87.31 C148.9 56.91, 175.8 30.67, 198.31 2.79 M124.83 87.31 C146.39 62.53, 168.22 36.83, 198.31 2.79 M130.47 86.92 C148.32 65.73, 166.75 43.85, 203.95 2.39 M130.47 86.92 C154.13 57.17, 179.26 28.83, 203.95 2.39 M135.46 87.28 C158.41 60.11, 183.56 28.91, 208.94 2.75 M135.46 87.28 C165.39 52.77, 195.37 18.52, 208.94 2.75 M141.1 86.89 C171.11 53.19, 198.99 20.44, 214.58 2.36 M141.1 86.89 C160.75 62.11, 182.86 38.02, 214.58 2.36 M146.09 87.25 C163 66.83, 182.69 45.48, 219.57 2.72 M146.09 87.25 C168.96 61.67, 190.34 35.57, 219.57 2.72 M151.73 86.85 C182.31 54.51, 208.61 22.15, 225.21 2.32 M151.73 86.85 C175.81 58.99, 198.54 30.03, 225.21 2.32 M156.72 87.21 C184.89 52.09, 214.96 21.1, 230.2 2.68 M156.72 87.21 C180.1 61.6, 202.1 34.61, 230.2 2.68 M161.71 87.57 C186.98 59.72, 212.3 31.3, 235.84 2.29 M161.71 87.57 C188.9 56.43, 215.49 26.57, 235.84 2.29 M167.35 87.18 C193.67 55.56, 219.16 28.23, 240.83 2.65 M167.35 87.18 C182.33 69.88, 198.93 52.01, 240.83 2.65 M172.34 87.54 C196.42 59.36, 220.77 31, 246.47 2.25 M172.34 87.54 C198.69 56.43, 226.11 27.57, 246.47 2.25 M177.98 87.14 C194.24 64.65, 213.97 43.85, 251.46 2.61 M177.98 87.14 C199.75 62.85, 220 39.44, 251.46 2.61 M182.97 87.5 C204.04 63.48, 225.25 39.49, 257.1 2.22 M182.97 87.5 C197.76 70.21, 213.59 52.51, 257.1 2.22 M188.61 87.11 C210.12 65.94, 229.13 43.56, 262.09 2.58 M188.61 87.11 C211.6 61.9, 234.39 34.39, 262.09 2.58 M193.6 87.47 C215.43 62.67, 236.18 38.26, 267.73 2.19 M193.6 87.47 C214.08 63.69, 234.82 39.66, 267.73 2.19 M199.24 87.07 C226.61 55.94, 253.93 25.26, 272.72 2.55 M199.24 87.07 C225.78 57.31, 251.43 26.42, 272.72 2.55 M204.23 87.43 C225.19 63.08, 250.65 36.89, 278.36 2.15 M204.23 87.43 C221.25 66.2, 240.02 44.97, 278.36 2.15 M209.87 87.04 C231.24 62.54, 253.64 38.62, 283.35 2.51 M209.87 87.04 C239 54.06, 267.46 20.78, 283.35 2.51 M214.86 87.4 C232.71 70.11, 246.87 51.84, 288.34 2.87 M214.86 87.4 C235.01 63.93, 255.93 41.33, 288.34 2.87 M220.5 87 C238.46 62.96, 258.31 44.3, 293.98 2.48 M220.5 87 C240.5 62.87, 261.55 39.43, 293.98 2.48 M225.49 87.36 C251.23 56.17, 279.31 27.54, 298.97 2.84 M225.49 87.36 C241.89 69.2, 256 51.23, 298.97 2.84 M231.13 86.97 C248.95 67.3, 266 48.22, 304.61 2.44 M231.13 86.97 C258.87 57.43, 284.38 25.55, 304.61 2.44 M236.12 87.33 C257.2 63.59, 278.77 38.16, 309.6 2.8 M236.12 87.33 C252.32 71.36, 266.65 53.86, 309.6 2.8 M241.76 86.93 C269.95 53.35, 300.45 22.55, 315.24 2.41 M241.76 86.93 C263.75 62.9, 283.8 37.54, 315.24 2.41 M246.75 87.29 C272.23 57.39, 296.6 32.13, 320.23 2.77 M246.75 87.29 C270.03 62.24, 292.01 35.72, 320.23 2.77 M252.39 86.9 C276.45 57.17, 301.55 27.93, 325.87 2.37 M252.39 86.9 C281.13 54, 310.99 18.64, 325.87 2.37 M257.38 87.26 C277.04 66.28, 295.71 43.81, 330.86 2.73 M257.38 87.26 C275.64 67.3, 294.53 46.81, 330.86 2.73 M262.37 87.62 C285.08 61.66, 307.56 36.33, 336.5 2.34 M262.37 87.62 C286.71 58.9, 311.15 31.06, 336.5 2.34 M268.01 87.23 C298.03 55.43, 325.15 20.75, 341.49 2.7 M268.01 87.23 C286.67 65.97, 303.89 45.37, 341.49 2.7 M273 87.59 C293.86 63.15, 311.3 42.3, 347.13 2.3 M273 87.59 C288.28 70.35, 303.13 52.67, 347.13 2.3 M278.64 87.19 C301.4 59.04, 327.5 34.62, 352.12 2.66 M278.64 87.19 C297.21 66.35, 315.84 44.19, 352.12 2.66 M283.63 87.55 C302.18 65.97, 320.03 43.06, 357.76 2.27 M283.63 87.55 C300.62 66.13, 318.56 45.36, 357.76 2.27 M289.27 87.16 C301.91 70.29, 318.43 52.83, 362.75 2.63 M289.27 87.16 C309.2 64.33, 328.83 41.94, 362.75 2.63 M294.26 87.52 C311.95 64.04, 331.81 41.16, 368.39 2.23 M294.26 87.52 C320.79 55.87, 348.4 25.34, 368.39 2.23 M299.9 87.12 C314.63 67.76, 330.38 51.66, 373.38 2.59 M299.9 87.12 C316.15 69.97, 331.1 52.42, 373.38 2.59 M304.89 87.48 C331.17 55.86, 359.23 27.2, 379.02 2.2 M304.89 87.48 C331.68 55.53, 359.58 24.15, 379.02 2.2 M310.53 87.09 C334.7 58.09, 357.63 31.85, 384.01 2.56 M310.53 87.09 C331.46 63.81, 350.37 41.12, 384.01 2.56 M315.52 87.45 C341.77 55.75, 366.22 28.38, 389 2.92 M315.52 87.45 C344.02 56.05, 370.37 23.61, 389 2.92 M321.16 87.05 C346.27 56.39, 373.22 26.94, 394.64 2.53 M321.16 87.05 C348.07 55.47, 375.37 24.43, 394.64 2.53 M326.15 87.41 C345.62 61.16, 368.7 40.6, 399.63 2.89 M326.15 87.41 C353.13 54.78, 380.5 24.09, 399.63 2.89 M331.79 87.02 C349.27 64.8, 369.14 44.11, 405.27 2.49 M331.79 87.02 C352.79 63.8, 372.91 39.01, 405.27 2.49 M336.78 87.38 C351.68 71.02, 365.31 49.6, 410.26 2.85 M336.78 87.38 C354.08 67.63, 370.94 46.4, 410.26 2.85 M342.42 86.98 C358.14 68.27, 378.53 44.47, 413.93 4.72 M342.42 86.98 C364.41 62.31, 385.49 37.11, 413.93 4.72 M347.41 87.34 C373.66 58.4, 402.18 26.38, 418.92 5.08 M347.41 87.34 C373.48 57.06, 399.95 26.69, 418.92 5.08 M352.39 87.7 C373.68 62.22, 398.89 35.75, 420.62 9.21 M352.39 87.7 C366.86 69.44, 382.75 53.25, 420.62 9.21 M358.04 87.31 C374.26 70.13, 388.99 53.73, 422.99 12.59 M358.04 87.31 C373.81 68.53, 388 51.7, 422.99 12.59 M363.02 87.67 C385.43 64.4, 402.17 40.38, 424.04 17.48 M363.02 87.67 C381.98 67.2, 397.91 46.85, 424.04 17.48 M368.67 87.28 C385.11 70.59, 397.46 55.93, 425.09 22.37 M368.67 87.28 C380.45 73.15, 392.18 60.19, 425.09 22.37 M373.65 87.64 C386.27 73.13, 397.16 57.29, 424.83 28.77 M373.65 87.64 C388.31 70.1, 403.16 52.6, 424.83 28.77 M379.3 87.24 C393.66 69.5, 407.3 52.91, 425.22 34.41 M379.3 87.24 C395.17 69.29, 412.8 49.43, 425.22 34.41 M384.28 87.6 C397.14 71.14, 409.53 59.62, 424.96 40.81 M384.28 87.6 C397 75.13, 407.88 62.02, 424.96 40.81 M389.93 87.21 C399.9 74.53, 411.91 64.79, 424.7 47.21 M389.93 87.21 C397.34 77.62, 406.62 67.34, 424.7 47.21 M394.91 87.57 C405.96 73.95, 418.23 62.34, 425.09 52.85 M394.91 87.57 C400.83 79.64, 409.18 71.75, 425.09 52.85 M400.56 87.17 C405.66 80.16, 412.89 70.45, 424.83 59.25 M400.56 87.17 C408.88 79.5, 415.77 69.56, 424.83 59.25 M405.54 87.53 C409.73 80.67, 414.1 76.08, 424.57 65.65 M405.54 87.53 C412.46 79, 419.28 72.16, 424.57 65.65 M412.5 85.63 C417.42 80.71, 420.22 77.58, 425.62 70.53 M412.5 85.63 C416.5 81.7, 421.42 75.37, 425.62 70.53" stroke="#ced4da" stroke-width="0.5" fill="none"></path><path d="M21.25 0 M21.25 0 C152.7 -0.86, 285.57 0.22, 402.75 0 M21.25 0 C111.95 0.14, 202.54 0.11, 402.75 0 M402.75 0 C418.13 1.6, 423.54 6.88, 424 21.25 M402.75 0 C419 1.68, 422.17 6.57, 424 21.25 M424 21.25 C423.86 36.58, 422.91 56.69, 424 63.75 M424 21.25 C424.62 35.85, 423.5 50.82, 424 63.75 M424 63.75 C422.54 78.25, 418.28 85.96, 402.75 85 M424 63.75 C425.45 76.24, 416.59 84.2, 402.75 85 M402.75 85 C255.76 84.49, 109.66 85.54, 21.25 85 M402.75 85 C267.44 86.04, 132.09 86.44, 21.25 85 M21.25 85 C8.64 84.19, 1.36 77.04, 0 63.75 M21.25 85 C4.87 83.75, -2.28 78.31, 0 63.75 M0 63.75 C1.01 48.57, -1.01 38.58, 0 21.25 M0 63.75 C-1.19 51, 0.4 36.32, 0 21.25 M0 21.25 C0.67 8.76, 6.93 1.28, 21.25 0 M0 21.25 C1.99 9.18, 6.15 -1.3, 21.25 0" stroke="#000000" stroke-width="1" fill="none"></path></g><g transform="translate(661.5185546875 299.212890625) rotate(0 188 12.5)"><text x="188" y="18" font-family="Virgil, Segoe UI Emoji" font-size="20px" fill="#000000" text-anchor="middle" style="white-space: pre;" direction="ltr">Inner State(join_key, watermark_key)</text></g><g stroke-linecap="round"><g transform="translate(482.6540066365717 189.19992999589567) rotate(0 143.21683700321705 38.71548788937753)"><path d="M-0.64 -0.14 C46.9 12.76, 237.27 64.22, 284.97 77.44 M1.23 -1.26 C49.13 11.79, 239.86 65.58, 287.07 78.69" stroke="#000000" stroke-width="1" fill="none"></path></g></g><mask></mask><g transform="translate(406.7958984375 216.076171875) rotate(0 58 12.5)"><text x="0" y="18" font-family="Virgil, Segoe UI Emoji" font-size="20px" fill="#000000" text-anchor="start" style="white-space: pre;" direction="ltr">Alternative1</text></g><g transform="translate(670.7958984375 212.076171875) rotate(0 62.5 12.5)"><text x="0" y="18" font-family="Virgil, Segoe UI Emoji" font-size="20px" fill="#000000" text-anchor="start" style="white-space: pre;" direction="ltr">Alternative2</text></g></svg>