<svg version="1.1" xmlns="http://www.w3.org/2000/svg" viewBox="0 0 689.8999198742212 163.8740234375" width="689.8999198742212" height="163.8740234375">
  <!-- svg-source:excalidraw -->
  
  <defs>
    <style class="style-fonts">
      @font-face {
        font-family: "Virgil";
        src: url("https://excalidraw.com/Virgil.woff2");
      }
      @font-face {
        font-family: "Cascadia";
        src: url("https://excalidraw.com/Cascadia.woff2");
      }
    </style>
  </defs>
  <rect x="0" y="0" width="689.8999198742212" height="163.8740234375" fill="#ffffff"></rect><g stroke-linecap="round" transform="translate(10.982421875 10) rotate(0 81.41796875 23.1875)"><path d="M3.09 2.68 C3.09 2.68, 3.09 2.68, 3.09 2.68 M3.09 2.68 C3.09 2.68, 3.09 2.68, 3.09 2.68 M1.51 10.59 C6.01 7.16, 8.29 3.12, 10.04 0.78 M1.51 10.59 C3.55 8.43, 6.98 4.9, 10.04 0.78 M1.91 16.23 C7.65 12.83, 11.54 5.09, 14.37 1.89 M1.91 16.23 C5.48 11.6, 9.77 8.24, 14.37 1.89 M1.65 22.63 C6.17 18.54, 11.91 12.54, 19.36 2.25 M1.65 22.63 C6.55 15.72, 14.02 8.78, 19.36 2.25 M2.04 28.27 C10.32 20.7, 19.07 9.87, 24.35 2.61 M2.04 28.27 C6.77 22.65, 11.11 17.66, 24.35 2.61 M1.78 34.67 C7.06 28.29, 14.62 18.48, 29.99 2.22 M1.78 34.67 C10.21 24.81, 19.82 13.36, 29.99 2.22 M2.83 39.56 C12.28 28.51, 22.72 17.93, 34.98 2.58 M2.83 39.56 C15.54 26.32, 27.79 12.09, 34.98 2.58 M3.88 44.45 C12.71 32.85, 24.6 19.8, 40.62 2.18 M3.88 44.45 C16.9 30.55, 28.88 17.94, 40.62 2.18 M7.55 46.32 C16.29 33.56, 27.84 22.52, 45.61 2.54 M7.55 46.32 C16.7 35.72, 26.15 26.39, 45.61 2.54 M12.54 46.68 C22.78 36.38, 32.37 25.32, 51.25 2.15 M12.54 46.68 C21.88 34.56, 32.63 23.26, 51.25 2.15 M18.19 46.28 C30.37 33.15, 40.99 17.05, 56.24 2.51 M18.19 46.28 C27.58 35.25, 37.47 25.4, 56.24 2.51 M23.17 46.64 C30.49 36.96, 40.03 26.89, 61.88 2.12 M23.17 46.64 C37.61 29.65, 53.92 12.26, 61.88 2.12 M28.82 46.25 C44.39 30.78, 59.67 12.53, 66.87 2.48 M28.82 46.25 C37.7 35.86, 46.29 24.08, 66.87 2.48 M33.8 46.61 C46.82 33.36, 58.38 17.64, 71.85 2.84 M33.8 46.61 C43.89 35.54, 53.28 23.21, 71.85 2.84 M38.79 46.97 C49.69 32.84, 65.32 17.21, 77.5 2.44 M38.79 46.97 C51.66 33.86, 62.03 20, 77.5 2.44 M44.43 46.57 C60.14 28.33, 71.81 12.27, 82.48 2.8 M44.43 46.57 C58.19 29.73, 73.68 13.59, 82.48 2.8 M49.42 46.93 C59.96 39.21, 68.15 28.83, 88.13 2.41 M49.42 46.93 C61.05 33.78, 73.15 20.17, 88.13 2.41 M55.06 46.54 C63.79 35.34, 76.82 24.58, 93.11 2.77 M55.06 46.54 C64.24 34.43, 73.65 24.08, 93.11 2.77 M60.05 46.9 C71 32.45, 81.01 22.61, 98.76 2.37 M60.05 46.9 C71.12 33.46, 82.21 21.13, 98.76 2.37 M65.69 46.51 C75.9 35.58, 86.05 23.04, 103.74 2.73 M65.69 46.51 C74.37 37.37, 83.24 27.3, 103.74 2.73 M70.68 46.87 C80.89 33.89, 91.09 23.46, 109.39 2.34 M70.68 46.87 C85.28 31.14, 100.02 13.78, 109.39 2.34 M76.32 46.47 C82.57 39.41, 92.41 26.74, 114.37 2.7 M76.32 46.47 C84.67 37.24, 93.33 26.07, 114.37 2.7 M81.31 46.83 C94.23 34.98, 103.08 20.59, 119.36 3.06 M81.31 46.83 C89.18 36.83, 98.25 28.44, 119.36 3.06 M86.3 47.19 C101.23 32.89, 111.59 17.31, 125 2.66 M86.3 47.19 C100.73 29.74, 116.34 12.88, 125 2.66 M91.94 46.8 C107.13 32.1, 117.87 17.17, 129.99 3.02 M91.94 46.8 C103.46 33.8, 117.11 18.4, 129.99 3.02 M96.93 47.16 C110.08 29.71, 124.08 14.97, 135.63 2.63 M96.93 47.16 C106.33 36.55, 117.48 23.18, 135.63 2.63 M102.57 46.76 C118.87 29.13, 130.62 12.27, 140.62 2.99 M102.57 46.76 C117.15 30.68, 132.23 11.97, 140.62 2.99 M107.56 47.12 C115.41 37.89, 126.23 28.73, 146.26 2.59 M107.56 47.12 C123.15 29.1, 137.26 12.84, 146.26 2.59 M113.2 46.73 C123.21 35.92, 135.08 23.39, 151.25 2.95 M113.2 46.73 C125.05 33.15, 139.1 19.15, 151.25 2.95 M118.19 47.09 C125.45 37.85, 135.73 26.92, 157.55 1.81 M118.19 47.09 C131.5 30.71, 146.4 15.79, 157.55 1.81 M123.83 46.69 C129.9 35.9, 140.09 28.92, 161.23 3.67 M123.83 46.69 C133.91 36.53, 142.86 26.79, 161.23 3.67 M128.82 47.05 C141.51 31.74, 153.2 19.82, 162.93 7.81 M128.82 47.05 C139.55 34.74, 148.67 23.64, 162.93 7.81 M133.8 47.41 C139.92 40.61, 148.55 29.24, 165.29 11.19 M133.8 47.41 C141.55 37.96, 150.86 28.49, 165.29 11.19 M139.45 47.02 C144.35 40.21, 150.96 33.19, 165.03 17.59 M139.45 47.02 C145.3 40.69, 150.36 35.97, 165.03 17.59 M144.43 47.38 C150.71 38.34, 159.03 30.99, 164.77 23.98 M144.43 47.38 C150.16 40.07, 156.09 33.1, 164.77 23.98 M150.08 46.98 C155.25 40.02, 160.65 34.61, 165.17 29.63 M150.08 46.98 C154.11 41.7, 156.86 37.68, 165.17 29.63 M153.75 48.85 C156.12 44.83, 157.76 44.83, 164.9 36.02 M153.75 48.85 C156.42 45.76, 159.92 41.33, 164.9 36.02" stroke="#ced4da" stroke-width="0.5" fill="none"></path><path d="M11.59 0 M11.59 0 C60.75 0.35, 110.42 0.84, 151.24 0 M11.59 0 C40.72 -0.66, 70.19 0.06, 151.24 0 M151.24 0 C159.8 -0.02, 162.64 4.93, 162.84 11.59 M151.24 0 C160.45 1.16, 162.33 5.29, 162.84 11.59 M162.84 11.59 C164.19 20.92, 163.32 29.92, 162.84 34.78 M162.84 11.59 C162.05 20.05, 163.5 29.57, 162.84 34.78 M162.84 34.78 C161.37 43.28, 157.69 47.11, 151.24 46.38 M162.84 34.78 C164.74 42.94, 156.87 44.33, 151.24 46.38 M151.24 46.38 C122.15 47.91, 88.59 45.98, 11.59 46.38 M151.24 46.38 C96.43 46.82, 42.07 46.48, 11.59 46.38 M11.59 46.38 C3.52 44.66, -0.83 42.69, 0 34.78 M11.59 46.38 C2.58 45.54, 0.44 43.59, 0 34.78 M0 34.78 C-1.19 29.48, -1.31 22.04, 0 11.59 M0 34.78 C-0.53 28.66, -0.35 20.92, 0 11.59 M0 11.59 C-0.22 5, 5.37 -0.08, 11.59 0 M0 11.59 C-1.4 5.44, 1.84 -0.64, 11.59 0" stroke="#000000" stroke-width="1" fill="none"></path></g><g transform="translate(37.900390625 20.6875) rotate(0 54.5 12.5)"><text x="54.5" y="18" font-family="Virgil, Segoe UI Emoji" font-size="20px" fill="#000000" text-anchor="middle" style="white-space: pre;" direction="ltr">Fact table</text></g><g stroke-linecap="round" transform="translate(247.0449218749999 56.04296875) rotate(0 146.5 30)"><path d="M3.99 3.47 C3.99 3.47, 3.99 3.47, 3.99 3.47 M3.99 3.47 C3.99 3.47, 3.99 3.47, 3.99 3.47 M3.08 10.62 C5.2 8.28, 6.84 4.88, 10.29 2.32 M3.08 10.62 C6.48 7.17, 8.99 3.55, 10.29 2.32 M2.81 17.02 C8.6 9.96, 12.33 3.71, 16.59 1.17 M2.81 17.02 C7.55 12.62, 10.52 7.26, 16.59 1.17 M2.55 23.42 C9.44 17, 13.35 11.66, 21.58 1.53 M2.55 23.42 C7.92 17.82, 12.52 12.41, 21.58 1.53 M2.95 29.06 C8.98 22.76, 12.31 17.21, 27.22 1.14 M2.95 29.06 C8.52 22.53, 13.76 16.15, 27.22 1.14 M3.34 34.71 C10.39 25.24, 20.24 16.1, 32.21 1.5 M3.34 34.71 C12.69 23.53, 21.48 13.22, 32.21 1.5 M3.08 41.1 C16.45 26.96, 29.71 10.95, 37.85 1.1 M3.08 41.1 C17.25 25.57, 30.34 8.69, 37.85 1.1 M3.47 46.75 C11.83 36.25, 20.2 26.79, 42.84 1.46 M3.47 46.75 C12.77 37.41, 20.42 27.55, 42.84 1.46 M3.21 53.14 C13.98 41.06, 22.22 30.07, 48.48 1.07 M3.21 53.14 C15.13 40.79, 25.95 26.64, 48.48 1.07 M5.58 56.52 C14.74 46.76, 23.7 33.27, 53.47 1.43 M5.58 56.52 C25.24 34.35, 43.48 13.51, 53.47 1.43 M7.94 59.9 C25.58 36.5, 45.73 13.91, 59.11 1.03 M7.94 59.9 C22.9 43.97, 36.01 27.31, 59.11 1.03 M12.27 61.02 C29.31 41.64, 49.99 21.63, 64.1 1.39 M12.27 61.02 C25.6 46.98, 38.05 32.32, 64.1 1.39 M17.91 60.62 C33.68 43.49, 47.75 26.41, 69.74 1 M17.91 60.62 C35.25 39.03, 54.44 18.49, 69.74 1 M22.9 60.98 C42.21 37.77, 61.8 13.54, 74.73 1.36 M22.9 60.98 C42.65 37.03, 64.04 14.45, 74.73 1.36 M28.54 60.59 C47.9 39.96, 63.23 20.32, 79.72 1.72 M28.54 60.59 C45.02 40.45, 64.24 19.79, 79.72 1.72 M33.53 60.95 C52.23 36.96, 73.85 17.35, 85.36 1.33 M33.53 60.95 C49.97 43.4, 63.67 24.82, 85.36 1.33 M39.17 60.55 C57.45 41.53, 72.71 20.03, 90.35 1.69 M39.17 60.55 C58.15 39.17, 75.9 17.26, 90.35 1.69 M44.16 60.91 C59.86 46.01, 72.31 29.64, 95.99 1.29 M44.16 60.91 C64.03 38.17, 84.67 15.31, 95.99 1.29 M49.8 60.52 C61.04 47.98, 74.2 33.47, 100.98 1.65 M49.8 60.52 C64.42 43.86, 78.97 27.2, 100.98 1.65 M54.79 60.88 C72.18 40.78, 85.07 22.55, 106.62 1.26 M54.79 60.88 C71.75 41.81, 88.04 21.52, 106.62 1.26 M60.43 60.48 C75.96 42.85, 91.53 26.81, 111.61 1.62 M60.43 60.48 C73.16 45.82, 83.27 32.06, 111.61 1.62 M65.42 60.84 C77.25 45.61, 86.84 34.85, 117.25 1.22 M65.42 60.84 C83.83 38.75, 102.03 18.87, 117.25 1.22 M71.06 60.45 C80.06 47.97, 91.2 34.32, 122.24 1.58 M71.06 60.45 C87.56 43.06, 102.86 24.7, 122.24 1.58 M76.05 60.81 C85.64 47.88, 100.41 34.95, 127.88 1.19 M76.05 60.81 C94.17 40.85, 111.64 21.66, 127.88 1.19 M81.69 60.41 C92.51 47.53, 106.29 31.55, 132.87 1.55 M81.69 60.41 C93.87 46.72, 104.67 34.23, 132.87 1.55 M86.68 60.77 C99.31 45.6, 112.07 32.13, 138.51 1.15 M86.68 60.77 C105.69 38.67, 123.62 18.61, 138.51 1.15 M91.67 61.14 C104.46 43.64, 122.36 25.8, 143.5 1.51 M91.67 61.14 C106.47 42.88, 121 26.87, 143.5 1.51 M97.31 60.74 C115.2 43.52, 131.98 24.83, 149.14 1.12 M97.31 60.74 C109.69 46.49, 123.01 29.73, 149.14 1.12 M102.3 61.1 C121.4 40.6, 139.61 17.62, 154.13 1.48 M102.3 61.1 C116.3 47.04, 127.69 31.79, 154.13 1.48 M107.94 60.71 C124.41 42.28, 142.92 21.71, 159.77 1.08 M107.94 60.71 C126.45 41.23, 142.94 19.42, 159.77 1.08 M112.93 61.07 C132.72 40.27, 149.12 18.9, 164.76 1.44 M112.93 61.07 C124.92 48.28, 136.68 33.2, 164.76 1.44 M118.57 60.67 C132.42 45.49, 146.74 28.99, 169.74 1.8 M118.57 60.67 C132.91 43.58, 148.18 25.5, 169.74 1.8 M123.56 61.03 C138.45 42.57, 153.32 26.16, 175.39 1.41 M123.56 61.03 C143.89 38.78, 162.07 16.14, 175.39 1.41 M129.2 60.64 C141.76 45.85, 155.75 27.82, 180.37 1.77 M129.2 60.64 C140.04 49.28, 151.27 35.84, 180.37 1.77 M134.19 61 C147.57 46.45, 160.44 29.4, 186.02 1.37 M134.19 61 C145.63 47.19, 158.01 33.53, 186.02 1.37 M139.83 60.6 C156.25 41.62, 169.49 23.85, 191 1.74 M139.83 60.6 C158.61 37.79, 178.35 14.77, 191 1.74 M144.82 60.96 C155.64 49.42, 167.77 35.46, 196.65 1.34 M144.82 60.96 C162.63 40.1, 180.93 20.25, 196.65 1.34 M150.46 60.57 C163.29 46.34, 173.8 32.05, 201.63 1.7 M150.46 60.57 C166.6 42.06, 184.37 22.57, 201.63 1.7 M155.45 60.93 C171.17 42.86, 186.44 27.52, 207.28 1.31 M155.45 60.93 C170.28 44.51, 184.61 28.82, 207.28 1.31 M161.09 60.53 C173.85 45.74, 189.19 26.28, 212.26 1.67 M161.09 60.53 C179.61 40.62, 195.18 19.63, 212.26 1.67 M166.08 60.89 C180.06 48.91, 189.07 33.72, 217.91 1.27 M166.08 60.89 C186.11 37.29, 206.8 13.58, 217.91 1.27 M171.72 60.5 C186.87 42.96, 200.42 27.83, 222.89 1.63 M171.72 60.5 C188.66 39.23, 207.88 18.75, 222.89 1.63 M176.71 60.86 C190.33 42.54, 208.01 25.65, 228.54 1.24 M176.71 60.86 C191.3 44.68, 203.71 29.56, 228.54 1.24 M181.7 61.22 C192.93 47.63, 204.86 34.81, 233.52 1.6 M181.7 61.22 C196.19 45.84, 211.5 28.35, 233.52 1.6 M187.34 60.82 C199.43 45.41, 214.77 31.73, 239.17 1.2 M187.34 60.82 C200.8 43.91, 215.16 28.69, 239.17 1.2 M192.33 61.18 C208.1 43.61, 228.02 22.66, 244.15 1.56 M192.33 61.18 C205.78 45.66, 218.2 30.6, 244.15 1.56 M197.97 60.79 C218.47 37.06, 236.16 16.84, 249.8 1.17 M197.97 60.79 C217.11 36.67, 238.06 12.86, 249.8 1.17 M202.96 61.15 C221.3 39.99, 242.61 13.59, 254.78 1.53 M202.96 61.15 C214.46 47.96, 224.27 36.5, 254.78 1.53 M208.6 60.76 C230.03 36.75, 248.19 15.75, 260.43 1.13 M208.6 60.76 C219.51 47.22, 231.72 33.99, 260.43 1.13 M213.59 61.12 C226.46 46.11, 239.02 32.68, 265.41 1.49 M213.59 61.12 C229.58 43.26, 244.73 24.26, 265.41 1.49 M219.23 60.72 C238.17 39.72, 255.35 21.98, 270.4 1.85 M219.23 60.72 C236.75 40.1, 256.86 18.57, 270.4 1.85 M224.22 61.08 C245.98 36.4, 264.06 12.75, 276.04 1.46 M224.22 61.08 C238.02 45.59, 253.75 29.06, 276.04 1.46 M229.86 60.69 C250.67 35.84, 267.85 12.75, 282.34 0.31 M229.86 60.69 C240 48.79, 249.78 37.96, 282.34 0.31 M234.85 61.05 C251.18 43.84, 267.93 23.35, 286.02 2.18 M234.85 61.05 C250.33 43.95, 264.06 29.07, 286.02 2.18 M240.49 60.65 C254.67 42.3, 272.22 22.55, 289.69 4.05 M240.49 60.65 C258.05 40.16, 274.08 20.3, 289.69 4.05 M245.48 61.01 C258.89 43.56, 275.74 23.93, 292.06 7.43 M245.48 61.01 C257.12 45.85, 271.64 31.33, 292.06 7.43 M251.12 60.62 C262.7 46.5, 278.72 30.91, 294.42 10.81 M251.12 60.62 C260.37 48.41, 271.58 38.27, 294.42 10.81 M256.11 60.98 C264.96 49.48, 275.83 40.12, 294.81 16.45 M256.11 60.98 C266.5 50.68, 275.89 38.63, 294.81 16.45 M261.75 60.58 C272.41 46.18, 282.92 32.78, 294.55 22.85 M261.75 60.58 C270.53 50.93, 278.97 39.66, 294.55 22.85 M266.74 60.94 C277.56 48.2, 288.73 35.37, 294.95 28.49 M266.74 60.94 C277.22 49.34, 286.07 38.89, 294.95 28.49 M272.38 60.55 C278.26 51.9, 287.58 41.7, 294.68 34.89 M272.38 60.55 C278.54 53.17, 284.59 47.13, 294.68 34.89 M278.02 60.15 C285.38 53.98, 290.31 45.76, 295.08 40.53 M278.02 60.15 C284.75 52.92, 290.2 46.32, 295.08 40.53 M284.32 59 C287.98 54.8, 290.91 52.67, 292.85 49.19 M284.32 59 C286.99 56.27, 288.83 53.06, 292.85 49.19" stroke="#ced4da" stroke-width="0.5" fill="none"></path><path d="M15 0 M15 0 C82.6 0.46, 147.8 1.54, 278 0 M15 0 C92.62 1.28, 168.37 1.68, 278 0 M278 0 C289.14 -1.52, 292.17 3.45, 293 15 M278 0 C289.48 0.38, 295.24 6.7, 293 15 M293 15 C292.67 22.01, 291.72 26.73, 293 45 M293 15 C293.19 24.59, 294.25 35.73, 293 45 M293 45 C293.64 56.63, 288.66 61.4, 278 60 M293 45 C292.32 53.72, 287.02 61.46, 278 60 M278 60 C209.06 61.44, 140.56 61.77, 15 60 M278 60 C220.01 60.58, 161.23 60.11, 15 60 M15 60 C5.32 59.11, 1.6 54.74, 0 45 M15 60 C6.36 58.63, -0.72 54, 0 45 M0 45 C-0.59 35.59, 1.07 26.8, 0 15 M0 45 C-0.66 37.42, -0.06 30.43, 0 15 M0 15 C-1.47 4.21, 3.31 0.38, 15 0 M0 15 C1.91 6.09, 6.33 1.19, 15 0" stroke="#000000" stroke-width="1" fill="none"></path></g><g transform="translate(257.5449218749999 73.54296875) rotate(0 136 12.5)"><text x="136" y="18" font-family="Virgil, Segoe UI Emoji" font-size="20px" fill="#000000" text-anchor="middle" style="white-space: pre;" direction="ltr">Process time Temporal Join</text></g><g stroke-linecap="round"><g transform="translate(174.8318364639489 53.70931806515728) rotate(0 31.265554771620714 8.173768204363341)"><path d="M0.39 1 C10.64 3.63, 50.92 13.27, 61.29 15.86 M-0.86 0.48 C9.75 2.74, 52.93 11.61, 63.39 14" stroke="#000000" stroke-width="1" fill="none"></path></g><g transform="translate(174.8318364639489 53.70931806515728) rotate(0 31.265554771620714 8.173768204363341)"><path d="M35.35 16.16 C42.96 17.08, 52.6 13.84, 63.22 15.67 M33.92 18.24 C41.08 16.59, 47.51 16.69, 62.75 14.97" stroke="#000000" stroke-width="1" fill="none"></path></g><g transform="translate(174.8318364639489 53.70931806515728) rotate(0 31.265554771620714 8.173768204363341)"><path d="M39.66 -3.91 C46.07 2.74, 54.47 5.22, 63.22 15.67 M38.24 -1.82 C44.3 1.54, 49.65 6.63, 62.75 14.97" stroke="#000000" stroke-width="1" fill="none"></path></g></g><mask></mask><g stroke-linecap="round"><g transform="translate(541.5407097826268 86.93658305126519) rotate(0 69.21483298106017 -2.0819853907255492)"><path d="M1 -1.17 C24.05 -2.07, 115.35 -4.15, 138.36 -5 M0.07 0.84 C22.99 0.12, 114.53 -2.33, 137.67 -3.39" stroke="#000000" stroke-width="1" fill="none"></path></g><g transform="translate(541.5407097826268 86.93658305126519) rotate(0 69.21483298106017 -2.0819853907255492)"><path d="M107.91 8.68 C118.62 6.16, 125.1 0.54, 139.34 -4.42 M110 7.88 C117.42 3.68, 126.43 0.76, 138.64 -2.39" stroke="#000000" stroke-width="1" fill="none"></path></g><g transform="translate(541.5407097826268 86.93658305126519) rotate(0 69.21483298106017 -2.0819853907255492)"><path d="M107.2 -11.83 C118.19 -8.04, 124.89 -7.36, 139.34 -4.42 M109.28 -12.63 C117.09 -11.02, 126.31 -8.11, 138.64 -2.39" stroke="#000000" stroke-width="1" fill="none"></path></g></g><mask></mask><g stroke-linecap="round" transform="translate(10 107.4990234375) rotate(0 81.41796875 23.1875)"><path d="M3.09 2.68 C3.09 2.68, 3.09 2.68, 3.09 2.68 M3.09 2.68 C3.09 2.68, 3.09 2.68, 3.09 2.68 M1.51 10.59 C5.28 6.86, 7.97 6.01, 10.04 0.78 M1.51 10.59 C4.17 8.44, 6.67 5.63, 10.04 0.78 M1.91 16.23 C4.9 12.63, 6.85 10.63, 14.37 1.89 M1.91 16.23 C5.82 11.65, 10.58 7.63, 14.37 1.89 M1.65 22.63 C5.22 15.07, 10.81 12.66, 19.36 2.25 M1.65 22.63 C5.36 17.46, 11.47 12.49, 19.36 2.25 M2.04 28.27 C8.04 20.5, 15.56 11.75, 24.35 2.61 M2.04 28.27 C8.44 19.91, 15.97 12.69, 24.35 2.61 M1.78 34.67 C10.61 23.73, 19.97 15.08, 29.99 2.22 M1.78 34.67 C9.02 27.12, 15.03 20.01, 29.99 2.22 M2.83 39.56 C14.56 28.89, 24.69 17.6, 34.98 2.58 M2.83 39.56 C13.81 25.21, 26.59 12.35, 34.98 2.58 M3.88 44.45 C10.73 36.51, 19.77 26.91, 40.62 2.18 M3.88 44.45 C16.54 28.34, 29.9 13.78, 40.62 2.18 M7.55 46.32 C16.61 35.22, 26.53 24.84, 45.61 2.54 M7.55 46.32 C21.15 29.8, 37.04 12.95, 45.61 2.54 M12.54 46.68 C29.11 29.22, 40.35 14.84, 51.25 2.15 M12.54 46.68 C21.02 37.75, 28.63 27.98, 51.25 2.15 M18.19 46.28 C28.09 34.78, 37.59 24.5, 56.24 2.51 M18.19 46.28 C31.57 30.8, 44.28 16.47, 56.24 2.51 M23.17 46.64 C35.47 29.58, 51.05 15.87, 61.88 2.12 M23.17 46.64 C35.08 32.67, 48.45 18.5, 61.88 2.12 M28.82 46.25 C43.77 30.01, 57.61 12.7, 66.87 2.48 M28.82 46.25 C39.17 35.46, 48.67 23.92, 66.87 2.48 M33.8 46.61 C47.35 33.26, 58.52 18.85, 71.85 2.84 M33.8 46.61 C45.14 32.92, 56.08 21.73, 71.85 2.84 M38.79 46.97 C49.58 37.23, 60.15 22.73, 77.5 2.44 M38.79 46.97 C53.48 31.44, 65.94 13.96, 77.5 2.44 M44.43 46.57 C51.98 36.58, 59.24 29.76, 82.48 2.8 M44.43 46.57 C56.49 34.78, 68.48 21.68, 82.48 2.8 M49.42 46.93 C64.38 31.07, 77.66 16.35, 88.13 2.41 M49.42 46.93 C61.18 32.58, 73.59 20.28, 88.13 2.41 M55.06 46.54 C71.59 29.16, 83.13 11.83, 93.11 2.77 M55.06 46.54 C66.93 32.06, 79 17.21, 93.11 2.77 M60.05 46.9 C73.69 30.79, 86.69 14.52, 98.76 2.37 M60.05 46.9 C72.54 33.19, 84.61 19.53, 98.76 2.37 M65.69 46.51 C74.75 36.79, 84.23 27.83, 103.74 2.73 M65.69 46.51 C79.83 30.64, 93.05 14.72, 103.74 2.73 M70.68 46.87 C78.93 36.37, 90.82 26.11, 109.39 2.34 M70.68 46.87 C79.34 35.69, 90.12 26.21, 109.39 2.34 M76.32 46.47 C85.5 37.36, 93.63 28.78, 114.37 2.7 M76.32 46.47 C83.97 37.15, 94.05 25.85, 114.37 2.7 M81.31 46.83 C94.53 31.73, 105.79 19.06, 119.36 3.06 M81.31 46.83 C92.56 33.6, 105.93 18.04, 119.36 3.06 M86.3 47.19 C99.38 31.97, 110.92 18.84, 125 2.66 M86.3 47.19 C97.02 34.51, 109.57 19.74, 125 2.66 M91.94 46.8 C104.53 28.88, 122 15.27, 129.99 3.02 M91.94 46.8 C100.01 36.44, 108.41 26.42, 129.99 3.02 M96.93 47.16 C108.34 34.45, 119.7 25.05, 135.63 2.63 M96.93 47.16 C104.3 38.92, 111.99 28.35, 135.63 2.63 M102.57 46.76 C111.72 34.49, 123.7 23.67, 140.62 2.99 M102.57 46.76 C111.83 36.15, 120.91 27.09, 140.62 2.99 M107.56 47.12 C121.22 31.05, 135.78 11.55, 146.26 2.59 M107.56 47.12 C122.12 31.05, 136.22 15.76, 146.26 2.59 M113.2 46.73 C125.05 30.19, 140.29 18.36, 151.25 2.95 M113.2 46.73 C128.59 28.57, 143.98 11.98, 151.25 2.95 M118.19 47.09 C132.88 29.64, 145.68 15.43, 157.55 1.81 M118.19 47.09 C134.45 28.84, 148.25 12.57, 157.55 1.81 M123.83 46.69 C133.64 35.81, 146.26 22.74, 161.23 3.67 M123.83 46.69 C137.89 30.31, 151.99 13.34, 161.23 3.67 M128.82 47.05 C140.2 34.93, 150.65 19.5, 162.93 7.81 M128.82 47.05 C139.87 33.78, 151.87 21.7, 162.93 7.81 M133.8 47.41 C143.83 36.94, 151.12 29.55, 165.29 11.19 M133.8 47.41 C143.39 35.4, 153.78 24.2, 165.29 11.19 M139.45 47.02 C147.5 37.06, 157.87 25.63, 165.03 17.59 M139.45 47.02 C148.86 34.95, 159.02 23.9, 165.03 17.59 M144.43 47.38 C149.3 39.28, 156.02 31.83, 164.77 23.98 M144.43 47.38 C149.3 42.13, 153.35 36.9, 164.77 23.98 M150.08 46.98 C155.13 43.6, 155.03 37.81, 165.17 29.63 M150.08 46.98 C153.26 42.74, 156.93 38.01, 165.17 29.63 M153.75 48.85 C158.58 43.16, 163.2 39.1, 164.9 36.02 M153.75 48.85 C156.32 45.2, 159.71 41.8, 164.9 36.02" stroke="#ced4da" stroke-width="0.5" fill="none"></path><path d="M11.59 0 M11.59 0 C54.46 -1.25, 95.73 -1.68, 151.24 0 M11.59 0 C58.98 0.55, 107.22 0.52, 151.24 0 M151.24 0 C158.53 1.24, 164.34 3.34, 162.84 11.59 M151.24 0 C157.71 1.63, 163.55 4.49, 162.84 11.59 M162.84 11.59 C164.53 18.13, 161.82 29.04, 162.84 34.78 M162.84 11.59 C162.03 18.57, 163.5 25, 162.84 34.78 M162.84 34.78 C161.01 40.73, 157.42 44.69, 151.24 46.38 M162.84 34.78 C163.16 44.76, 160.51 45.73, 151.24 46.38 M151.24 46.38 C114.16 46.66, 75.54 47.41, 11.59 46.38 M151.24 46.38 C114.38 45.27, 77.79 44.81, 11.59 46.38 M11.59 46.38 C4.25 47.31, -0.6 43.8, 0 34.78 M11.59 46.38 C1.59 45.18, 1.1 41.18, 0 34.78 M0 34.78 C-1.39 27.3, 1.3 20.95, 0 11.59 M0 34.78 C0.78 28.58, -0.58 23.14, 0 11.59 M0 11.59 C-1.76 3.31, 3.27 0.08, 11.59 0 M0 11.59 C-1.27 5.04, 2.39 -0.59, 11.59 0" stroke="#000000" stroke-width="1" fill="none"></path></g><g transform="translate(15.41796875 118.1865234375) rotate(0 76 12.5)"><text x="76" y="18" font-family="Virgil, Segoe UI Emoji" font-size="20px" fill="#000000" text-anchor="middle" style="white-space: pre;" direction="ltr">Dimension table</text></g><g stroke-linecap="round"><g transform="translate(171.0918394875947 132.8227990894702) rotate(0 29.863200561671192 -9.746494538176876)"><path d="M0.15 1.2 C10.14 -2.33, 48.7 -16.96, 58.83 -20.69 M-1.24 0.78 C9.22 -2.6, 50.64 -15.71, 60.96 -19.21" stroke="#000000" stroke-width="1" fill="none"></path></g><g transform="translate(171.0918394875947 132.8227990894702) rotate(0 29.863200561671192 -9.746494538176876)"><path d="M39.35 -2.54 C41.89 -2.82, 45.81 -8.57, 62.77 -18.71 M36.43 0.18 C44.11 -5.49, 53.16 -12.54, 61.4 -20.19" stroke="#000000" stroke-width="1" fill="none"></path></g><g transform="translate(171.0918394875947 132.8227990894702) rotate(0 29.863200561671192 -9.746494538176876)"><path d="M32.98 -22.05 C36.89 -18.38, 42.11 -20.17, 62.77 -18.71 M30.06 -19.32 C39.75 -18.86, 50.8 -19.79, 61.4 -20.19" stroke="#000000" stroke-width="1" fill="none"></path></g></g><mask></mask></svg>