<svg version="1.1" xmlns="http://www.w3.org/2000/svg" viewBox="0 0 1093.638671875 624.53125" width="2187.27734375" height="1249.0625">
  <!-- svg-source:excalidraw -->
  
  <defs>
    <style class="style-fonts">
      @font-face {
        font-family: "Virgil";
        src: url("https://excalidraw.com/Virgil.woff2");
      }
      @font-face {
        font-family: "Cascadia";
        src: url("https://excalidraw.com/Cascadia.woff2");
      }
    </style>
  </defs>
  <rect x="0" y="0" width="1093.638671875" height="624.53125" fill="#ffffff"></rect><g stroke-linecap="round" transform="translate(90.765625 19.23828125) rotate(0 71.45703125 24.365234375)"><path d="M12.18 0 M12.18 0 C55.32 2.69, 100.52 2.06, 130.73 0 M12.18 0 C37.43 0.17, 61.43 -1.56, 130.73 0 M130.73 0 C137.87 0.91, 140.94 3, 142.91 12.18 M130.73 0 C141.11 1.7, 142.99 5.27, 142.91 12.18 M142.91 12.18 C141.96 16.34, 142.72 22.4, 142.91 36.55 M142.91 12.18 C142.19 16.61, 143.1 23.65, 142.91 36.55 M142.91 36.55 C142.84 44.28, 138.41 49.89, 130.73 48.73 M142.91 36.55 C144.29 46.28, 138.37 47.97, 130.73 48.73 M130.73 48.73 C85.59 46.75, 34.69 49.45, 12.18 48.73 M130.73 48.73 C102.23 49.71, 72.01 49.86, 12.18 48.73 M12.18 48.73 C2.54 49.77, 1.1 44.18, 0 36.55 M12.18 48.73 C3.25 46.81, 1.51 43.56, 0 36.55 M0 36.55 C1.79 29.51, 0.21 23.99, 0 12.18 M0 36.55 C0.9 27.78, -0.43 17.89, 0 12.18 M0 12.18 C0.14 5.07, 5.65 0.28, 12.18 0 M0 12.18 C0.81 5.31, 3.17 -0.64, 12.18 0" stroke="#000000" stroke-width="1" fill="none"></path></g><g transform="translate(131.252685546875 31.103515625) rotate(0 30.969970703125 12.5)"><text x="30.969970703125" y="0" font-family="Virgil, Segoe UI Emoji" font-size="20px" fill="#000000" text-anchor="middle" style="white-space: pre;" direction="ltr" dominant-baseline="text-before-edge">Insert</text></g><g stroke-linecap="round" transform="translate(94.2890625 81.912109375) rotate(0 71.45703125 24.365234375)"><path d="M12.18 0 M12.18 0 C58.04 -1.35, 103.11 1.26, 130.73 0 M12.18 0 C45.48 0.51, 77.41 0.3, 130.73 0 M130.73 0 C139.1 1.63, 143.05 4.11, 142.91 12.18 M130.73 0 C140.9 1.61, 142.82 4.88, 142.91 12.18 M142.91 12.18 C141.72 21.8, 143.98 32.74, 142.91 36.55 M142.91 12.18 C142.61 19.56, 142.69 26.92, 142.91 36.55 M142.91 36.55 C142.8 43.02, 138.86 49.16, 130.73 48.73 M142.91 36.55 C142.3 43.67, 137.12 48.67, 130.73 48.73 M130.73 48.73 C83.88 46.8, 36.79 48.45, 12.18 48.73 M130.73 48.73 C87.47 49.56, 44.61 49.63, 12.18 48.73 M12.18 48.73 C4.44 48.59, 0.59 46.17, 0 36.55 M12.18 48.73 C2.01 49.79, -1.16 42.53, 0 36.55 M0 36.55 C-0.55 28.89, 1.15 20.9, 0 12.18 M0 36.55 C0.72 30.02, -0.59 23.07, 0 12.18 M0 12.18 C-0.33 5.5, 5.39 1.03, 12.18 0 M0 12.18 C-1.17 3, 3.9 -2.2, 12.18 0" stroke="#000000" stroke-width="1" fill="none"></path></g><g transform="translate(133.2561264038086 93.77734375) rotate(0 32.489967346191406 12.5)"><text x="32.489967346191406" y="0" font-family="Virgil, Segoe UI Emoji" font-size="20px" fill="#000000" text-anchor="middle" style="white-space: pre;" direction="ltr" dominant-baseline="text-before-edge">Delete</text></g><g stroke-linecap="round" transform="translate(94.078125 145.263671875) rotate(0 71.45703125 24.365234375)"><path d="M12.18 0 M12.18 0 C56.3 0.23, 101.95 1.08, 130.73 0 M12.18 0 C58.14 -1.24, 104.94 -0.14, 130.73 0 M130.73 0 C137.54 -1.21, 141.93 2.51, 142.91 12.18 M130.73 0 C137.92 0.23, 144.32 4.36, 142.91 12.18 M142.91 12.18 C141.63 16.93, 143.07 22.19, 142.91 36.55 M142.91 12.18 C141.92 22.59, 142.66 30.68, 142.91 36.55 M142.91 36.55 C144.17 46.13, 139.07 48.19, 130.73 48.73 M142.91 36.55 C144.87 46.54, 136.79 50.67, 130.73 48.73 M130.73 48.73 C85.67 48.24, 36.82 48.02, 12.18 48.73 M130.73 48.73 C87.92 46.7, 46.8 48.65, 12.18 48.73 M12.18 48.73 C4.32 48.41, 0.75 46.05, 0 36.55 M12.18 48.73 C6.28 50.83, -1.37 44.95, 0 36.55 M0 36.55 C-1.59 25.23, -0.83 15.45, 0 12.18 M0 36.55 C-0.3 29.58, 0.32 22.83, 0 12.18 M0 12.18 C0.01 3.97, 3.48 0.17, 12.18 0 M0 12.18 C1.36 2.05, 2.7 -1.28, 12.18 0" stroke="#000000" stroke-width="1" fill="none"></path></g><g transform="translate(129.9851837158203 157.12890625) rotate(0 35.54997253417969 12.5)"><text x="35.54997253417969" y="0" font-family="Virgil, Segoe UI Emoji" font-size="20px" fill="#000000" text-anchor="middle" style="white-space: pre;" direction="ltr" dominant-baseline="text-before-edge">Update</text></g><g stroke-linecap="round" transform="translate(301.73046875 294.423828125) rotate(0 88.5 35)"><path d="M17.5 0 M17.5 0 C67.07 1.12, 112.03 -0.42, 159.5 0 M17.5 0 C46.29 0.79, 75.44 0.77, 159.5 0 M159.5 0 C170.25 0.43, 175.18 5.69, 177 17.5 M159.5 0 C170.26 -1.37, 176.32 7.89, 177 17.5 M177 17.5 C176.54 27.7, 177.7 38.28, 177 52.5 M177 17.5 C176.24 25.02, 175.7 35.27, 177 52.5 M177 52.5 C177.02 63.76, 169.91 69.55, 159.5 70 M177 52.5 C177.55 65.54, 171.11 69.48, 159.5 70 M159.5 70 C113.96 70.78, 70.06 70.57, 17.5 70 M159.5 70 C126.37 69.39, 91.6 70.24, 17.5 70 M17.5 70 C5.44 70.49, 0.31 62.54, 0 52.5 M17.5 70 C7.68 69.54, -0.33 66.13, 0 52.5 M0 52.5 C-0.19 43.9, 0.64 32.22, 0 17.5 M0 52.5 C0.56 41.82, -1.23 32.18, 0 17.5 M0 17.5 C-0.71 4.76, 7.67 -1.39, 17.5 0 M0 17.5 C-1.1 4.48, 6.59 -0.48, 17.5 0" stroke="#000000" stroke-width="1" fill="none"></path></g><g transform="translate(324.7605209350586 316.923828125) rotate(0 65.4699478149414 12.5)"><text x="65.4699478149414" y="0" font-family="Virgil, Segoe UI Emoji" font-size="20px" fill="#000000" text-anchor="middle" style="white-space: pre;" direction="ltr" dominant-baseline="text-before-edge">DMLExecutor</text></g><g stroke-linecap="round" transform="translate(257.22265625 530.24609375) rotate(0 58.5 38.5)"><path d="M19.25 0 M19.25 0 C37.49 1.77, 52.92 1.34, 97.75 0 M19.25 0 C43.24 -0.27, 67.48 0.36, 97.75 0 M97.75 0 C110.97 -0.46, 116.48 7.54, 117 19.25 M97.75 0 C112.41 0.45, 118.65 6.84, 117 19.25 M117 19.25 C116.9 25.74, 116.07 34.12, 117 57.75 M117 19.25 C117.92 27.55, 117.23 35.11, 117 57.75 M117 57.75 C117.09 68.9, 111.76 78.82, 97.75 77 M117 57.75 C115.67 71.36, 112.11 77.47, 97.75 77 M97.75 77 C66.88 76.64, 40.4 78.75, 19.25 77 M97.75 77 C71.48 75.83, 42.8 76.98, 19.25 77 M19.25 77 C6.32 75.63, -1.18 70.52, 0 57.75 M19.25 77 C6.89 79.04, -1.85 70.77, 0 57.75 M0 57.75 C0.4 47.69, -0.49 36.96, 0 19.25 M0 57.75 C-0.21 42.31, -0.54 27.29, 0 19.25 M0 19.25 C1.76 6.19, 6.3 1.28, 19.25 0 M0 19.25 C-0.86 6.4, 5.37 -1.83, 19.25 0" stroke="#000000" stroke-width="1" fill="none"></path></g><g transform="translate(273.28269958496094 556.24609375) rotate(0 42.43995666503906 12.5)"><text x="42.43995666503906" y="0" font-family="Virgil, Segoe UI Emoji" font-size="20px" fill="#000000" text-anchor="middle" style="white-space: pre;" direction="ltr" dominant-baseline="text-before-edge">redo_log</text></g><g stroke-linecap="round" transform="translate(557.48828125 537.53125) rotate(0 58.5 38.5)"><path d="M19.25 0 M19.25 0 C37.34 -0.44, 53.22 0.42, 97.75 0 M19.25 0 C38.08 0.52, 58.6 -0.08, 97.75 0 M97.75 0 C110.85 -0.25, 115.1 7.93, 117 19.25 M97.75 0 C110.15 -0.84, 118.81 4.17, 117 19.25 M117 19.25 C116.89 33.95, 115.8 48.81, 117 57.75 M117 19.25 C115.93 28.11, 117.7 34.19, 117 57.75 M117 57.75 C118.81 72.25, 109.76 77.79, 97.75 77 M117 57.75 C116.8 70.09, 112.86 78.78, 97.75 77 M97.75 77 C71.35 75.64, 45.96 76.17, 19.25 77 M97.75 77 C80.93 75.8, 65.39 76.16, 19.25 77 M19.25 77 C5.05 77.94, 1.41 69.88, 0 57.75 M19.25 77 C5.88 77.57, 0.86 68.93, 0 57.75 M0 57.75 C-0.98 43.48, -1.25 30.37, 0 19.25 M0 57.75 C0.71 49.07, -0.6 42.22, 0 19.25 M0 19.25 C-1.31 5.27, 4.65 0.84, 19.25 0 M0 19.25 C1.95 6.82, 4.5 2.18, 19.25 0" stroke="#000000" stroke-width="1" fill="none"></path></g><g transform="translate(563.4883346557617 563.53125) rotate(0 52.49994659423828 12.5)"><text x="52.49994659423828" y="0" font-family="Virgil, Segoe UI Emoji" font-size="20px" fill="#000000" text-anchor="middle" style="white-space: pre;" direction="ltr" dominant-baseline="text-before-edge">commit_log</text></g><g stroke-linecap="round"><g transform="translate(492.1953125 330.625) rotate(0 69.18549318313597 0.46299588915422873)"><path d="M-0.77 -0.92 C22.31 -0.41, 115.83 1.56, 139.14 1.84 M1.02 1.22 C23.97 1.45, 115.71 -0.16, 138.68 -0.07" stroke="#000000" stroke-width="1" fill="none"></path></g><g transform="translate(492.1953125 330.625) rotate(0 69.18549318313597 0.46299588915422873)"><path d="M109.04 11.94 C121.25 8.42, 129.35 1.4, 138.49 -1.5 M110.57 11.39 C117.45 7.62, 123.77 5.73, 137.96 -0.48" stroke="#000000" stroke-width="1" fill="none"></path></g><g transform="translate(492.1953125 330.625) rotate(0 69.18549318313597 0.46299588915422873)"><path d="M108.88 -8.58 C120.94 -4.87, 129.1 -4.65, 138.49 -1.5 M110.41 -9.14 C117.44 -8.04, 123.8 -5.08, 137.96 -0.48" stroke="#000000" stroke-width="1" fill="none"></path></g></g><mask></mask><g stroke-linecap="round"><g transform="translate(239.71875 47.7578125) rotate(0 99.0158219073387 119.61923255226577)"><path d="M-1.11 0.97 C28.1 11.26, 141.23 21.47, 174.2 60.87 C207.16 100.27, 192.82 208, 196.68 237.38 M0.51 0.44 C29.65 10.92, 140.17 22.15, 173.28 61.88 C206.38 101.6, 195.1 209.41, 199.14 238.8" stroke="#000000" stroke-width="1" fill="none"></path></g><g transform="translate(239.71875 47.7578125) rotate(0 99.0158219073387 119.61923255226577)"><path d="M189.79 210.96 C188.63 215.59, 193 222.73, 199.05 239.79 M187.89 211.85 C192.95 221.9, 196.68 233.03, 198.73 238.08" stroke="#000000" stroke-width="1" fill="none"></path></g><g transform="translate(239.71875 47.7578125) rotate(0 99.0158219073387 119.61923255226577)"><path d="M210.3 210.44 C204.72 214.99, 204.69 222.24, 199.05 239.79 M208.4 211.33 C205.45 221.5, 201.19 232.83, 198.73 238.08" stroke="#000000" stroke-width="1" fill="none"></path></g></g><mask></mask><g stroke-linecap="round"><g transform="translate(247.35917809266118 110.55654869773423) rotate(0 75.08457002174578 88.17412906404118)"><path d="M0.48 0.87 C21.69 9.83, 101.85 24.96, 126.92 54.16 C151.99 83.36, 147 156.08, 150.9 176.07 M-0.73 0.28 C20.36 8.86, 100.8 23.38, 126.04 52.39 C151.27 81.39, 146.54 153.93, 150.66 174.32" stroke="#000000" stroke-width="1" fill="none"></path></g><g transform="translate(247.35917809266118 110.55654869773423) rotate(0 75.08457002174578 88.17412906404118)"><path d="M139.66 147.24 C142.78 156.03, 146.94 162.44, 149.22 174.62 M137.6 146.32 C141.37 152.89, 143.09 158.04, 151.42 174.25" stroke="#000000" stroke-width="1" fill="none"></path></g><g transform="translate(247.35917809266118 110.55654869773423) rotate(0 75.08457002174578 88.17412906404118)"><path d="M160.11 145.62 C157.71 154.93, 156.33 161.78, 149.22 174.62 M158.06 144.7 C157.4 151.71, 154.71 157.21, 151.42 174.25" stroke="#000000" stroke-width="1" fill="none"></path></g></g><mask></mask><g stroke-linecap="round"><g transform="translate(248.23964872825422 172.16571468595885) rotate(0 49.5385585235897 57.9098984505888)"><path d="M0.23 0.4 C14.37 8.17, 67.46 26.87, 83.71 46.01 C99.96 65.15, 95.28 103.79, 97.71 115.25 M-1.11 -0.44 C12.97 7.5, 65.83 27.53, 82.71 46.98 C99.6 66.43, 97.57 104.88, 100.19 116.26" stroke="#000000" stroke-width="1" fill="none"></path></g><g transform="translate(248.23964872825422 172.16571468595885) rotate(0 49.5385585235897 57.9098984505888)"><path d="M87.66 89.16 C87.73 93.46, 91.25 99.9, 98.4 118.22 M86.04 89.49 C90.4 95.43, 92.22 100.39, 99.2 116.26" stroke="#000000" stroke-width="1" fill="none"></path></g><g transform="translate(248.23964872825422 172.16571468595885) rotate(0 49.5385585235897 57.9098984505888)"><path d="M108.06 86.98 C103.97 91.76, 103.35 98.65, 98.4 118.22 M106.45 87.31 C106.51 93.82, 104.02 99.25, 99.2 116.26" stroke="#000000" stroke-width="1" fill="none"></path></g></g><mask></mask><g stroke-linecap="round" transform="translate(634.4609375 294.484375) rotate(0 88.5 35)"><path d="M17.5 0 M17.5 0 C49.32 0.09, 79.92 -1.07, 159.5 0 M17.5 0 C66.63 -1.14, 116.46 -1.7, 159.5 0 M159.5 0 C169.52 1.51, 178.38 5.42, 177 17.5 M159.5 0 C169.9 1.57, 177.47 5.33, 177 17.5 M177 17.5 C175.6 26.72, 176.5 34.01, 177 52.5 M177 17.5 C177.02 30.49, 177.99 42.39, 177 52.5 M177 52.5 C178.34 65.97, 171.72 69.42, 159.5 70 M177 52.5 C176.33 64.53, 173.41 68.53, 159.5 70 M159.5 70 C118.68 69.97, 79.7 69.34, 17.5 70 M159.5 70 C105.58 69.45, 50.92 68.21, 17.5 70 M17.5 70 C5.12 71.37, 1.07 64.56, 0 52.5 M17.5 70 C4.89 68.59, 0.15 64.44, 0 52.5 M0 52.5 C1.68 40.3, -0.19 25.88, 0 17.5 M0 52.5 C-0.39 40.98, 0.26 27.29, 0 17.5 M0 17.5 C-1.01 6.02, 6.06 -0.03, 17.5 0 M0 17.5 C2.27 5.48, 7.25 0.66, 17.5 0" stroke="#000000" stroke-width="1" fill="none"></path></g><g transform="translate(662.650993347168 316.984375) rotate(0 60.30994415283203 12.5)"><text x="60.30994415283203" y="0" font-family="Virgil, Segoe UI Emoji" font-size="20px" fill="#000000" text-anchor="middle" style="white-space: pre;" direction="ltr" dominant-baseline="text-before-edge">Materialized</text></g><g transform="translate(396.37109375 10) rotate(0 81.06993103027344 50)"><text x="0" y="0" font-family="Virgil, Segoe UI Emoji" font-size="20px" fill="#000000" text-anchor="start" style="white-space: pre;" direction="ltr" dominant-baseline="text-before-edge">1. Begin(txn_id)</text><text x="0" y="25" font-family="Virgil, Segoe UI Emoji" font-size="20px" fill="#000000" text-anchor="start" style="white-space: pre;" direction="ltr" dominant-baseline="text-before-edge">2. Chunk(txn_id)</text><text x="0" y="50" font-family="Virgil, Segoe UI Emoji" font-size="20px" fill="#000000" text-anchor="start" style="white-space: pre;" direction="ltr" dominant-baseline="text-before-edge">3. End(txn_id)</text><text x="0" y="75" font-family="Virgil, Segoe UI Emoji" font-size="20px" fill="#000000" text-anchor="start" style="white-space: pre;" direction="ltr" dominant-baseline="text-before-edge"></text></g><g stroke-linecap="round"><g transform="translate(482.91507775152456 378.1783120725281) rotate(0 62.60416074128199 73.742006702536)"><path d="M1 -1.05 C21.54 23.51, 102.69 123.71, 123.04 148.53 M0.07 1.02 C20.97 25.77, 104.26 122.19, 125.14 146.91" stroke="#000000" stroke-width="1" fill="none"></path></g><g transform="translate(482.91507775152456 378.1783120725281) rotate(0 62.60416074128199 73.742006702536)"><path d="M97.27 130.22 C108.21 134.26, 114.54 139.93, 124.02 147.57 M99.6 132.18 C107.11 136.26, 115.39 142.39, 126.04 147.77" stroke="#000000" stroke-width="1" fill="none"></path></g><g transform="translate(482.91507775152456 378.1783120725281) rotate(0 62.60416074128199 73.742006702536)"><path d="M112.87 116.88 C119.48 124.86, 121.36 134.34, 124.02 147.57 M115.2 118.85 C117.75 127.15, 121.08 137.52, 126.04 147.77" stroke="#000000" stroke-width="1" fill="none"></path></g></g><mask></mask><g transform="translate(616.0390625 403.4609375) rotate(0 233.7998046875 37.5)"><text x="0" y="0" font-family="Virgil, Segoe UI Emoji" font-size="20px" fill="#000000" text-anchor="start" style="white-space: pre;" direction="ltr" dominant-baseline="text-before-edge">1. Begin(txn_id) =&gt; insert (txn_id, uncommitted)</text><text x="0" y="25" font-family="Virgil, Segoe UI Emoji" font-size="20px" fill="#000000" text-anchor="start" style="white-space: pre;" direction="ltr" dominant-baseline="text-before-edge">3.1 End(txn_id) =&gt; update (txn_id, committed)</text><text x="0" y="50" font-family="Virgil, Segoe UI Emoji" font-size="20px" fill="#000000" text-anchor="start" style="white-space: pre;" direction="ltr" dominant-baseline="text-before-edge">3.3 Delete txn_id from commit_log</text></g><g stroke-linecap="round"><g transform="translate(375.38021425871796 372.38689954746394) rotate(0 -33.691664711638964 71.75080091487729)"><path d="M0.38 -1.09 C-10.94 22.84, -56.04 120.42, -67.34 144.59 M-0.89 0.96 C-12.32 25.08, -56.63 118.87, -67.76 142.93" stroke="#000000" stroke-width="1" fill="none"></path></g><g transform="translate(375.38021425871796 372.38689954746394) rotate(0 -33.691664711638964 71.75080091487729)"><path d="M-66.91 114.72 C-64.28 125.02, -66.34 135.2, -67.77 144.55 M-65.68 112.81 C-66.73 119.61, -66.79 125.63, -67.84 142.22" stroke="#000000" stroke-width="1" fill="none"></path></g><g transform="translate(375.38021425871796 372.38689954746394) rotate(0 -33.691664711638964 71.75080091487729)"><path d="M-48.32 123.42 C-52.21 130.76, -60.73 137.92, -67.77 144.55 M-47.1 121.51 C-51.94 126.6, -55.86 130.81, -67.84 142.22" stroke="#000000" stroke-width="1" fill="none"></path></g></g><mask></mask><g transform="translate(10 430.5078125) rotate(0 223.90521240234375 22.09914668552136)"><text x="0" y="0" font-family="Virgil, Segoe UI Emoji" font-size="17.679317348417104px" fill="#000000" text-anchor="start" style="white-space: pre;" direction="ltr" dominant-baseline="text-before-edge">2. insert txn_id, ops, chunk into redo log</text><text x="0" y="22.09914668552138" font-family="Virgil, Segoe UI Emoji" font-size="17.679317348417104px" fill="#000000" text-anchor="start" style="white-space: pre;" direction="ltr" dominant-baseline="text-before-edge">3.2 delete from redo_log and apply to downstream</text></g></svg>