<svg version="1.1" xmlns="http://www.w3.org/2000/svg" viewBox="0 0 812.734375 433.8046875" width="1625.46875" height="867.609375">
  <!-- svg-source:excalidraw -->
  
  <defs>
    <style class="style-fonts">
      @font-face {
        font-family: "Virgil";
        src: url("https://excalidraw.com/Virgil.woff2");
      }
      @font-face {
        font-family: "Cascadia";
        src: url("https://excalidraw.com/Cascadia.woff2");
      }
    </style>
  </defs>
  <rect x="0" y="0" width="812.734375" height="433.8046875" fill="#ffffff"></rect><g stroke-linecap="round" transform="translate(293.00390625 103.697265625) rotate(0 88.5 35)"><path d="M17.5 0 M17.5 0 C52.85 -1.01, 93.89 -0.24, 159.5 0 M17.5 0 C68.98 -1.23, 122.4 -0.29, 159.5 0 M159.5 0 C172.27 1.55, 178.78 7.77, 177 17.5 M159.5 0 C169.19 -2.11, 178.29 8.12, 177 17.5 M177 17.5 C179.12 29.93, 177.11 40.37, 177 52.5 M177 17.5 C177.55 30.52, 177.39 43.11, 177 52.5 M177 52.5 C178.1 62.98, 170.9 71.46, 159.5 70 M177 52.5 C175.13 64.79, 168.89 71.47, 159.5 70 M159.5 70 C121.77 73.09, 86.98 72.96, 17.5 70 M159.5 70 C122.97 70.52, 87.47 71, 17.5 70 M17.5 70 C6.48 70.27, 0.63 62.21, 0 52.5 M17.5 70 C6.17 71.52, -0.99 65.13, 0 52.5 M0 52.5 C-1.92 40.13, -0.27 30.04, 0 17.5 M0 52.5 C0.3 38.9, -0.9 25.6, 0 17.5 M0 17.5 C1.54 4.7, 6.6 -1.88, 17.5 0 M0 17.5 C-1.33 6.36, 7.88 -2.16, 17.5 0" stroke="#000000" stroke-width="1" fill="none"></path></g><g transform="translate(316.0339584350586 126.197265625) rotate(0 65.4699478149414 12.5)"><text x="65.4699478149414" y="0" font-family="Virgil, Segoe UI Emoji" font-size="20px" fill="#000000" text-anchor="middle" style="white-space: pre;" direction="ltr" dominant-baseline="text-before-edge">DMLExecutor</text></g><g stroke-linecap="round" transform="translate(248.49609375 339.51953125) rotate(0 58.5 38.5)"><path d="M19.25 0 M19.25 0 C50.69 0.84, 80.06 1.35, 97.75 0 M19.25 0 C49.95 0.93, 79.96 0.81, 97.75 0 M97.75 0 C112.36 1.93, 115.28 4.59, 117 19.25 M97.75 0 C111.87 2.29, 117.37 8.3, 117 19.25 M117 19.25 C117.18 34.23, 118.69 47.27, 117 57.75 M117 19.25 C117.72 31.9, 117.79 44.09, 117 57.75 M117 57.75 C116.73 72.04, 108.95 77.54, 97.75 77 M117 57.75 C114.72 72.06, 109.67 78.64, 97.75 77 M97.75 77 C67.97 79.26, 34.59 77.72, 19.25 77 M97.75 77 C73.71 78.21, 49.68 77.45, 19.25 77 M19.25 77 C7.05 75.04, 0.29 71.9, 0 57.75 M19.25 77 C5.43 77.96, 0.22 70.4, 0 57.75 M0 57.75 C0.08 41.64, 1.91 28.33, 0 19.25 M0 57.75 C-0.88 44.17, 0.57 31.05, 0 19.25 M0 19.25 C0.77 4.54, 5.26 0.46, 19.25 0 M0 19.25 C2.05 4.25, 5.38 -0.19, 19.25 0" stroke="#000000" stroke-width="1" fill="none"></path></g><g transform="translate(264.55613708496094 365.51953125) rotate(0 42.43995666503906 12.5)"><text x="42.43995666503906" y="0" font-family="Virgil, Segoe UI Emoji" font-size="20px" fill="#000000" text-anchor="middle" style="white-space: pre;" direction="ltr" dominant-baseline="text-before-edge">redo_log</text></g><g stroke-linecap="round" transform="translate(548.76171875 346.8046875) rotate(0 58.5 38.5)"><path d="M19.25 0 M19.25 0 C44.58 1.05, 68.88 -1.66, 97.75 0 M19.25 0 C42.95 0.07, 66.44 0.27, 97.75 0 M97.75 0 C108.86 -1.83, 118.12 8.41, 117 19.25 M97.75 0 C110.95 1.88, 118.61 8.53, 117 19.25 M117 19.25 C118.3 32.96, 117.57 48.87, 117 57.75 M117 19.25 C117.73 30.92, 117.05 44.51, 117 57.75 M117 57.75 C115.37 71.12, 108.6 78.28, 97.75 77 M117 57.75 C116.08 72.22, 112.8 76.08, 97.75 77 M97.75 77 C66.54 77.67, 37.32 76.74, 19.25 77 M97.75 77 C71.32 77.83, 44.56 76.72, 19.25 77 M19.25 77 C6.71 78.32, -0.86 71.42, 0 57.75 M19.25 77 C6.64 76.81, 2.26 68.34, 0 57.75 M0 57.75 C1.6 50.39, 0.85 41.59, 0 19.25 M0 57.75 C1.03 47.2, 0.65 36.84, 0 19.25 M0 19.25 C-1.15 6.88, 8.2 -1.88, 19.25 0 M0 19.25 C-1.04 6.23, 6.18 -1.34, 19.25 0" stroke="#000000" stroke-width="1" fill="none"></path></g><g transform="translate(554.7617721557617 372.8046875) rotate(0 52.49994659423828 12.5)"><text x="52.49994659423828" y="0" font-family="Virgil, Segoe UI Emoji" font-size="20px" fill="#000000" text-anchor="middle" style="white-space: pre;" direction="ltr" dominant-baseline="text-before-edge">commit_log</text></g><g stroke-linecap="round"><g transform="translate(483.46875 139.8984375) rotate(0 69.77507487901482 1.6810376584854794)"><path d="M0.84 1 C23.66 1.09, 114.41 1.13, 137.43 1.38 M-0.18 0.48 C22.97 0.7, 116.6 2.84, 139.73 2.89" stroke="#000000" stroke-width="1" fill="none"></path></g><g transform="translate(483.46875 139.8984375) rotate(0 69.77507487901482 1.6810376584854794)"><path d="M113.06 11.44 C120.98 10.41, 132.6 6.87, 141.28 4.66 M111.96 13.75 C122.88 9.92, 134.66 6.1, 140.41 2.8" stroke="#000000" stroke-width="1" fill="none"></path></g><g transform="translate(483.46875 139.8984375) rotate(0 69.77507487901482 1.6810376584854794)"><path d="M113.35 -9.08 C121.3 -3.05, 132.83 0.47, 141.28 4.66 M112.24 -6.77 C122.88 -2.46, 134.54 1.86, 140.41 2.8" stroke="#000000" stroke-width="1" fill="none"></path></g></g><mask></mask><g stroke-linecap="round" transform="translate(625.734375 103.7578125) rotate(0 88.5 35)"><path d="M17.5 0 M17.5 0 C52.51 0.22, 85.51 0.89, 159.5 0 M17.5 0 C74.38 2.3, 130.31 2.12, 159.5 0 M159.5 0 C172.57 1.84, 178.37 5.66, 177 17.5 M159.5 0 C172.02 1.54, 176.46 6.53, 177 17.5 M177 17.5 C176.93 31.31, 175.88 42.66, 177 52.5 M177 17.5 C175.72 31.2, 176.32 44.32, 177 52.5 M177 52.5 C178.93 63.36, 172.89 71.34, 159.5 70 M177 52.5 C178.82 63.11, 171.22 70.19, 159.5 70 M159.5 70 C124.95 70.86, 87.13 70.85, 17.5 70 M159.5 70 C130.39 71.35, 102.24 70.85, 17.5 70 M17.5 70 C7.8 68.05, -1.53 63.87, 0 52.5 M17.5 70 C4.93 71.77, 1.42 65.07, 0 52.5 M0 52.5 C-0.89 41.73, -0.99 28.65, 0 17.5 M0 52.5 C1.09 44.35, -0.25 37.99, 0 17.5 M0 17.5 C-0.2 4.67, 6.24 0.87, 17.5 0 M0 17.5 C1.07 6.01, 6.86 -0.65, 17.5 0" stroke="#000000" stroke-width="1" fill="none"></path></g><g transform="translate(653.924430847168 126.2578125) rotate(0 60.30994415283203 12.5)"><text x="60.30994415283203" y="0" font-family="Virgil, Segoe UI Emoji" font-size="20px" fill="#000000" text-anchor="middle" style="white-space: pre;" direction="ltr" dominant-baseline="text-before-edge">Materialized</text></g><g stroke-linecap="round"><g transform="translate(474.18851525152456 187.45174957252812) rotate(0 62.660440230116535 74.05842665809314)"><path d="M0.93 1.07 C21.64 25.38, 105 122.01, 125.36 146.54 M-0.04 0.58 C20.52 24.95, 104.11 123.26, 125.02 147.54" stroke="#000000" stroke-width="1" fill="none"></path></g><g transform="translate(474.18851525152456 187.45174957252812) rotate(0 62.660440230116535 74.05842665809314)"><path d="M100.68 134.71 C107.43 136.49, 120.43 146.05, 125.35 149.17 M98.82 133.14 C109.37 137.82, 118.67 144.15, 125.21 148.01" stroke="#000000" stroke-width="1" fill="none"></path></g><g transform="translate(474.18851525152456 187.45174957252812) rotate(0 62.660440230116535 74.05842665809314)"><path d="M116.28 121.37 C117.03 128.46, 123.97 143.21, 125.35 149.17 M114.42 119.81 C119.32 129.53, 122.85 140.79, 125.21 148.01" stroke="#000000" stroke-width="1" fill="none"></path></g></g><mask></mask><g transform="translate(548.9296875 198.3828125) rotate(0 102.4299087524414 25)"><text x="0" y="0" font-family="Virgil, Segoe UI Emoji" font-size="20px" fill="#000000" text-anchor="start" style="white-space: pre;" direction="ltr" dominant-baseline="text-before-edge">1. Scan commit_log</text><text x="0" y="25" font-family="Virgil, Segoe UI Emoji" font-size="20px" fill="#000000" text-anchor="start" style="white-space: pre;" direction="ltr" dominant-baseline="text-before-edge">3. delete commit_log</text></g><g stroke-linecap="round"><g transform="translate(366.65365175871796 181.66033704746405) rotate(0 -33.819040319013084 71.89495069515067)"><path d="M-1.03 -1.1 C-12.49 22.86, -56.48 120.59, -67.67 144.89 M0.62 0.94 C-11.02 25.1, -56.69 119.74, -68.26 143.39" stroke="#000000" stroke-width="1" fill="none"></path></g><g transform="translate(366.65365175871796 181.66033704746405) rotate(0 -33.819040319013084 71.89495069515067)"><path d="M-67.01 114.67 C-64.1 125.45, -65.65 138.13, -66.43 144.76 M-65.42 113.86 C-65.34 122.45, -66.39 130.88, -67.71 142.8" stroke="#000000" stroke-width="1" fill="none"></path></g><g transform="translate(366.65365175871796 181.66033704746405) rotate(0 -33.819040319013084 71.89495069515067)"><path d="M-48.55 123.63 C-52.9 130.77, -61.64 139.97, -66.43 144.76 M-46.96 122.82 C-52.29 128.92, -58.72 134.75, -67.71 142.8" stroke="#000000" stroke-width="1" fill="none"></path></g></g><mask></mask><g transform="translate(10 214.89453125) rotate(0 231.759521484375 33.148720028282014)"><text x="0" y="0" font-family="Virgil, Segoe UI Emoji" font-size="17.679317348417104px" fill="#000000" text-anchor="start" style="white-space: pre;" direction="ltr" dominant-baseline="text-before-edge">2.1 delete redo_log if txn_id's state is uncommitted</text><text x="0" y="22.09914668552138" font-family="Virgil, Segoe UI Emoji" font-size="17.679317348417104px" fill="#000000" text-anchor="start" style="white-space: pre;" direction="ltr" dominant-baseline="text-before-edge">2.2 delete redo_log and apply to downstream </text><text x="0" y="44.19829337104276" font-family="Virgil, Segoe UI Emoji" font-size="17.679317348417104px" fill="#000000" text-anchor="start" style="white-space: pre;" direction="ltr" dominant-baseline="text-before-edge">    if txn_id's state is committed</text></g><g transform="translate(16.2880859375 10) rotate(0 42.499961853027344 12.5)"><text x="0" y="0" font-family="Virgil, Segoe UI Emoji" font-size="20px" fill="#000000" text-anchor="start" style="white-space: pre;" direction="ltr" dominant-baseline="text-before-edge">Recovery</text></g></svg>