<svg version="1.1" xmlns="http://www.w3.org/2000/svg" viewBox="0 0 1348.325888620635 669.74609375" width="2696.65177724127" height="1339.4921875">
    <!-- svg-source:excalidraw -->

    <defs>
        <style class="style-fonts">
            @font-face {
            font-family: "Virgil";
            src: url("https://excalidraw.com/Virgil.woff2");
            }
            @font-face {
            font-family: "Cascadia";
            src: url("https://excalidraw.com/Cascadia.woff2");
            }
        </style>

    </defs>
    <rect x="0" y="0" width="1348.325888620635" height="669.74609375" fill="#ffffff"></rect><g stroke-linecap="round" transform="translate(209.5780055133348 178.78125) rotate(0 71.49999999999989 49.5)"><path d="M24.75 0 M24.75 0 C63.44 0.68, 96.87 -0.98, 118.25 0 M24.75 0 C61.78 0.88, 98 1.12, 118.25 0 M118.25 0 C134.66 -0.83, 143.44 9.61, 143 24.75 M118.25 0 C133.65 -0.27, 143.88 10.23, 143 24.75 M143 24.75 C144.61 37.24, 142.03 51.46, 143 74.25 M143 24.75 C142.74 38.24, 142.35 53.01, 143 74.25 M143 74.25 C142.28 90.66, 134.98 97.99, 118.25 99 M143 74.25 C140.74 88.73, 133.34 100.92, 118.25 99 M118.25 99 C85.89 98.37, 55.95 101.28, 24.75 99 M118.25 99 C92.41 98.56, 67.49 97.4, 24.75 99 M24.75 99 C9.75 98.25, -0.16 89.45, 0 74.25 M24.75 99 C6.41 100.08, 1.57 89.05, 0 74.25 M0 74.25 C-2.22 63.77, -2.41 55.27, 0 24.75 M0 74.25 C0.53 56.39, 0.55 37, 0 24.75 M0 24.75 C1.02 10.1, 8.9 0.65, 24.75 0 M0 24.75 C-2.11 9.13, 6.97 1.47, 24.75 0" stroke="#1e1e1e" stroke-width="1" fill="none"></path></g><g transform="translate(265.1780268756395 215.78125) rotate(0 15.899978637695312 12.5)"><text x="15.899978637695312" y="0" font-family="Virgil, Segoe UI Emoji" font-size="20px" fill="#1e1e1e" text-anchor="middle" style="white-space: pre;" direction="ltr" dominant-baseline="text-before-edge">list</text></g><g stroke-linecap="round" transform="translate(514.8883886206349 160.51171875) rotate(0 65.396484375 71.31629392971251)"><path d="M82.5 18 M82.5 18 C94.97 33.15, 105.38 44.11, 114.29 54 M82.5 18 C92.58 29.06, 102.07 39.78, 114.29 54 M114.29 54 C132.66 72.33, 132.13 70.03, 114.29 90 M114.29 54 C132.87 72.2, 130.93 73.65, 114.29 90 M114.29 90 C103.84 101.04, 91.18 115.04, 82.5 124.63 M114.29 90 C104.48 100.11, 94.2 110.93, 82.5 124.63 M82.5 124.63 C65.08 141.23, 66.37 140.95, 49.5 124.63 M82.5 124.63 C67.96 144.14, 68.18 140.48, 49.5 124.63 M49.5 124.63 C35.13 109.88, 22.36 97.72, 16.5 90 M49.5 124.63 C36.07 111.68, 22.36 97.76, 16.5 90 M16.5 90 C-0.68 73.63, -1.98 70.84, 16.5 54 M16.5 90 C-1.26 70.12, 0.75 71.68, 16.5 54 M16.5 54 C26.43 42.03, 35.75 35.56, 49.5 18 M16.5 54 C26.9 41.37, 37.21 31.17, 49.5 18 M49.5 18 C64.52 -1.13, 66.54 -0.12, 82.5 18 M49.5 18 C67.41 0.16, 64.96 -0.93, 82.5 18" stroke="#1e1e1e" stroke-width="1" fill="none"></path></g><g transform="translate(552.7027578222951 221.55957159720913) rotate(0 27.383872985839844 10.110294117647072)"><text x="27.383872985839844" y="0" font-family="Virgil, Segoe UI Emoji" font-size="16.176470588235276px" fill="#1e1e1e" text-anchor="middle" style="white-space: pre;" direction="ltr" dominant-baseline="text-before-edge">shuffle</text></g><g mask="url(#mask-SREo6WDvs5z1BCxPnzbKK)" stroke-linecap="round"><g transform="translate(353.83581801333366 229.92596839355792) rotate(0 80.70018623284909 1.7028873105563775)"><path d="M1.14 -0.95 C27.86 -0.56, 134.78 2.16, 161.12 2.74 M0.28 1.17 C26.84 1.73, 133.71 3.92, 160.58 4.35" stroke="#1e1e1e" stroke-width="1" fill="none"></path></g><g transform="translate(353.83581801333366 229.92596839355792) rotate(0 80.70018623284909 1.7028873105563775)"><path d="M130.63 15.39 C142.83 8.36, 152.89 7.68, 159.98 4.63 M131.94 14.45 C141.24 10.31, 150.59 7.53, 161.12 4.97" stroke="#1e1e1e" stroke-width="1" fill="none"></path></g><g transform="translate(353.83581801333366 229.92596839355792) rotate(0 80.70018623284909 1.7028873105563775)"><path d="M131.01 -5.12 C143.15 -4.62, 153.07 2.24, 159.98 4.63 M132.32 -6.07 C141.61 -3.19, 150.84 1.05, 161.12 4.97" stroke="#1e1e1e" stroke-width="1" fill="none"></path></g></g><mask id="mask-SREo6WDvs5z1BCxPnzbKK"><rect x="0" y="0" fill="#fff" width="614.1712605964458" height="332.52557624808674"></rect><rect x="390.2835838605538" y="206.22577232082233" fill="#000" width="87.43991088867188" height="50" opacity="1"></rect></mask><g transform="translate(390.2835838605538 206.22577232082233) rotate(0 44.252420385628966 25.40308338329197)"><text x="43.71995544433594" y="0" font-family="Virgil, Segoe UI Emoji" font-size="20px" fill="#1e1e1e" text-anchor="middle" style="white-space: pre;" direction="ltr" dominant-baseline="text-before-edge">new</text><text x="43.71995544433594" y="25" font-family="Virgil, Segoe UI Emoji" font-size="20px" fill="#1e1e1e" text-anchor="middle" style="white-space: pre;" direction="ltr" dominant-baseline="text-before-edge">filenames</text></g><g stroke-linecap="round" transform="translate(10 387.5051016216206) rotate(0 85.1015625 55.013671875)"><path d="M27.51 0 M27.51 0 C63.31 0.4, 100.76 -1.15, 142.7 0 M27.51 0 C64.25 -1.1, 101.66 -0.83, 142.7 0 M142.7 0 C160.86 -0.72, 168.96 11.08, 170.2 27.51 M142.7 0 C160.66 -0.71, 171.64 8.62, 170.2 27.51 M170.2 27.51 C170.88 44.7, 169.81 60.77, 170.2 82.52 M170.2 27.51 C169.49 48.28, 169.47 70.17, 170.2 82.52 M170.2 82.52 C172.1 102.54, 161.72 111.38, 142.7 110.03 M170.2 82.52 C172.45 99.52, 159.89 108.82, 142.7 110.03 M142.7 110.03 C120.77 109.48, 94.59 109.83, 27.51 110.03 M142.7 110.03 C105.43 109.4, 70.75 110.21, 27.51 110.03 M27.51 110.03 C7.4 108.74, 1.91 101.29, 0 82.52 M27.51 110.03 C8.04 111.95, -1.64 101.09, 0 82.52 M0 82.52 C-2.06 67.47, -0.9 52.3, 0 27.51 M0 82.52 C-1.21 70.85, -1.11 60.14, 0 27.51 M0 27.51 C-0.87 7.55, 9.47 -0.02, 27.51 0 M0 27.51 C-2.3 7.86, 9.21 -0.33, 27.51 0" stroke="#1e1e1e" stroke-width="1" fill="none"></path></g><g transform="translate(21.518341064453125 411.9074453716206) rotate(0 67.96994018554688 25)"><text x="67.96994018554688" y="0" font-family="Virgil, Segoe UI Emoji" font-size="20px" fill="#1e1e1e" text-anchor="middle" style="white-space: pre;" direction="ltr" dominant-baseline="text-before-edge">list</text><text x="67.96994018554688" y="25" font-family="Virgil, Segoe UI Emoji" font-size="20px" fill="#1e1e1e" text-anchor="middle" style="white-space: pre;" direction="ltr" dominant-baseline="text-before-edge">state store 1</text></g><g mask="url(#mask-1o0CixCQ7csXjnz4HjmP1)" stroke-linecap="round"><g transform="translate(230.0543400310312 284.171875) rotate(0 -47.02218709690169 49.60649459190864)"><path d="M-0.42 0.41 C-16.2 16.91, -79.01 83.19, -94.97 99.63 M1.57 -0.41 C-14.31 15.67, -79.13 81.01, -95.61 97.81" stroke="#1e1e1e" stroke-width="1" fill="none"></path></g><g transform="translate(230.0543400310312 284.171875) rotate(0 -47.02218709690169 49.60649459190864)"><path d="M-82.42 71.52 C-85.5 77.03, -89.95 86.37, -96.91 96.32 M-83.21 71.53 C-85.66 75.08, -88.42 81.13, -96.46 97.06" stroke="#1e1e1e" stroke-width="1" fill="none"></path></g><g transform="translate(230.0543400310312 284.171875) rotate(0 -47.02218709690169 49.60649459190864)"><path d="M-67.81 85.94 C-75.06 87.36, -83.59 92.67, -96.91 96.32 M-68.61 85.95 C-73.96 86.48, -79.67 89.62, -96.46 97.06" stroke="#1e1e1e" stroke-width="1" fill="none"></path></g></g><mask id="mask-1o0CixCQ7csXjnz4HjmP1"><rect x="0" y="0" fill="#fff" width="425.6192126763135" height="483.2238516216206"></rect><rect x="80.43199892323378" y="321.19786331081036" fill="#000" width="203.6798095703125" height="25" opacity="1"></rect></mask><g transform="translate(80.43199892323378 321.19786331081036) rotate(0 102.60015401089572 12.58050628109828)"><text x="101.83990478515625" y="0" font-family="Virgil, Segoe UI Emoji" font-size="20px" fill="#1e1e1e" text-anchor="middle" style="white-space: pre;" direction="ltr" dominant-baseline="text-before-edge">timestamp/pagination</text></g><g stroke-linecap="round" transform="translate(752.7204198706349 39.703125) rotate(0 100.365234375 54.54296875)"><path d="M27.27 0 M27.27 0 C73 1.11, 117.31 1.78, 173.46 0 M27.27 0 C84.1 -0.86, 138.94 -0.25, 173.46 0 M173.46 0 C190.17 0.64, 198.98 7.87, 200.73 27.27 M173.46 0 C190.91 1.9, 199.16 11.34, 200.73 27.27 M200.73 27.27 C201.73 43.41, 199.54 61.02, 200.73 81.81 M200.73 27.27 C200.01 46.91, 201.04 68.3, 200.73 81.81 M200.73 81.81 C200.43 100.1, 191.54 110.82, 173.46 109.09 M200.73 81.81 C199.99 99.35, 190.66 110.74, 173.46 109.09 M173.46 109.09 C119.84 110.74, 65.04 110.59, 27.27 109.09 M173.46 109.09 C126.38 109.09, 81.4 110.11, 27.27 109.09 M27.27 109.09 C8.26 107.93, 0.9 100.44, 0 81.81 M27.27 109.09 C10.17 110.87, -1.6 98.8, 0 81.81 M0 81.81 C-0.56 72.57, -0.63 61.18, 0 27.27 M0 81.81 C0.12 68.2, 0.85 55.55, 0 27.27 M0 27.27 C1.56 7.56, 8.6 1.98, 27.27 0 M0 27.27 C-0.79 7, 7.37 -0.52, 27.27 0" stroke="#1e1e1e" stroke-width="1" fill="none"></path></g><g transform="translate(811.4656896460256 81.74609375) rotate(0 41.619964599609375 12.5)"><text x="41.619964599609375" y="0" font-family="Virgil, Segoe UI Emoji" font-size="20px" fill="#1e1e1e" text-anchor="middle" style="white-space: pre;" direction="ltr" dominant-baseline="text-before-edge">fetch #1</text></g><g stroke-linecap="round" transform="translate(1123.325888620635 21.65625) rotate(0 107.5 259)"><path d="M32 0 M32 0 C88.51 -1.02, 142.97 0.94, 183 0 M32 0 C71.96 0.57, 110.73 0.59, 183 0 M183 0 C203.68 1.56, 215.25 12.06, 215 32 M183 0 C205.07 -1.4, 215.22 8.4, 215 32 M215 32 C215.5 184.97, 216.25 340.02, 215 486 M215 32 C215.69 177.03, 215.39 322.12, 215 486 M215 486 C213.37 507.35, 206 517.08, 183 518 M215 486 C214.17 509.14, 204.56 516.04, 183 518 M183 518 C126.81 517.1, 72.02 517.03, 32 518 M183 518 C149.61 519.19, 114.5 518.71, 32 518 M32 518 C9.63 519.04, -0.65 507.99, 0 486 M32 518 C11.89 516.45, 0.42 508.98, 0 486 M0 486 C-0.71 318.92, -1.51 153.72, 0 32 M0 486 C-2.15 381.2, -2.15 276.21, 0 32 M0 32 C0.94 9.18, 10.43 0.45, 32 0 M0 32 C-1.79 8.95, 11.15 1.99, 32 0" stroke="#1e1e1e" stroke-width="1" fill="none"></path></g><g transform="translate(1142.5359716284474 243.15625) rotate(0 88.2899169921875 37.5)"><text x="88.2899169921875" y="0" font-family="Virgil, Segoe UI Emoji" font-size="20px" fill="#1e1e1e" text-anchor="middle" style="white-space: pre;" direction="ltr" dominant-baseline="text-before-edge">fetch</text><text x="88.2899169921875" y="25" font-family="Virgil, Segoe UI Emoji" font-size="20px" fill="#1e1e1e" text-anchor="middle" style="white-space: pre;" direction="ltr" dominant-baseline="text-before-edge">state store</text><text x="88.2899169921875" y="50" font-family="Virgil, Segoe UI Emoji" font-size="20px" fill="#1e1e1e" text-anchor="middle" style="white-space: pre;" direction="ltr" dominant-baseline="text-before-edge">(task queue)</text></g><g stroke-linecap="round" transform="translate(761.0465917456349 380.54296875) rotate(0 100.365234375 54.54296875)"><path d="M27.27 0 M27.27 0 C82.37 -1.03, 139.98 -1.06, 173.46 0 M27.27 0 C84.45 0.93, 142.62 -0.44, 173.46 0 M173.46 0 C193.33 1.67, 199.54 10.46, 200.73 27.27 M173.46 0 C189.67 -0.43, 199.97 8.55, 200.73 27.27 M200.73 27.27 C201.3 45.6, 202.49 62.99, 200.73 81.81 M200.73 27.27 C199.28 49.21, 200.31 69.13, 200.73 81.81 M200.73 81.81 C200.03 100.37, 190.13 109.15, 173.46 109.09 M200.73 81.81 C201.26 98.39, 192.8 110.43, 173.46 109.09 M173.46 109.09 C126.71 105.78, 77.64 108.13, 27.27 109.09 M173.46 109.09 C125.53 108.65, 77.71 108.17, 27.27 109.09 M27.27 109.09 C8.91 108.24, -1.99 99.01, 0 81.81 M27.27 109.09 C10.45 107.34, 0.9 98.53, 0 81.81 M0 81.81 C-1.66 63.43, 1.94 49.7, 0 27.27 M0 81.81 C-0.66 66.38, -1.25 49.44, 0 27.27 M0 27.27 C0.62 9.08, 9.83 1.61, 27.27 0 M0 27.27 C1.74 8.33, 8.05 -1.97, 27.27 0" stroke="#1e1e1e" stroke-width="1" fill="none"></path></g><g transform="translate(815.6918630469045 422.5859375) rotate(0 45.71996307373047 12.5)"><text x="45.71996307373047" y="0" font-family="Virgil, Segoe UI Emoji" font-size="20px" fill="#1e1e1e" text-anchor="middle" style="white-space: pre;" direction="ltr" dominant-baseline="text-before-edge">fetch #3</text></g><g stroke-linecap="round" transform="translate(757.3786229956349 201.140625) rotate(0 100.365234375 54.54296875)"><path d="M27.27 0 M27.27 0 C84.37 1.52, 143.45 -1.22, 173.46 0 M27.27 0 C84.16 0.01, 139.48 0.54, 173.46 0 M173.46 0 C191.17 0.68, 201.37 9.21, 200.73 27.27 M173.46 0 C192.09 0.13, 202.55 8.27, 200.73 27.27 M200.73 27.27 C198.36 50.03, 200.42 68.74, 200.73 81.81 M200.73 27.27 C200.86 41.95, 200.14 56.66, 200.73 81.81 M200.73 81.81 C201.9 100.64, 190.84 107.22, 173.46 109.09 M200.73 81.81 C202.83 97.76, 193.18 109.56, 173.46 109.09 M173.46 109.09 C125.85 109.31, 78.45 108.35, 27.27 109.09 M173.46 109.09 C130.4 108.23, 87.56 108.03, 27.27 109.09 M27.27 109.09 C7.81 109.25, -1.01 98.1, 0 81.81 M27.27 109.09 C6.87 107.26, 1.92 101.7, 0 81.81 M0 81.81 C-0.83 67.09, -2 49.34, 0 27.27 M0 81.81 C0.81 64.51, -0.33 45.25, 0 27.27 M0 27.27 C-1.71 7.82, 8.55 0.31, 27.27 0 M0 27.27 C-0.92 11.27, 7.5 1.56, 27.27 0" stroke="#1e1e1e" stroke-width="1" fill="none"></path></g><g transform="translate(811.7138967383107 243.18359375) rotate(0 46.02996063232422 12.5)"><text x="46.02996063232422" y="0" font-family="Virgil, Segoe UI Emoji" font-size="20px" fill="#1e1e1e" text-anchor="middle" style="white-space: pre;" direction="ltr" dominant-baseline="text-before-edge">fetch #2</text></g><g stroke-linecap="round"><g transform="translate(580.0094823706349 159.5859375) rotate(0 82.69026188068096 -33.958137598931785)"><path d="M-1.05 -1.06 C26.7 -12.38, 138.53 -57.83, 166.43 -68.91 M0.6 0.99 C28.17 -10.09, 137.84 -55.94, 165.3 -67.68" stroke="#1e1e1e" stroke-width="1" fill="none"></path></g><g transform="translate(580.0094823706349 159.5859375) rotate(0 82.69026188068096 -33.958137598931785)"><path d="M141.54 -47.85 C148.92 -53.77, 157.62 -59.18, 166.37 -69.08 M143.86 -46.96 C148.49 -52.29, 156.23 -58.73, 164.45 -68.24" stroke="#1e1e1e" stroke-width="1" fill="none"></path></g><g transform="translate(580.0094823706349 159.5859375) rotate(0 82.69026188068096 -33.958137598931785)"><path d="M133.57 -66.76 C143.12 -67.08, 154.15 -66.96, 166.37 -69.08 M135.89 -65.87 C142.69 -65.96, 152.61 -67.26, 164.45 -68.24" stroke="#1e1e1e" stroke-width="1" fill="none"></path></g></g><mask></mask><g stroke-linecap="round"><g transform="translate(648.0758886206349 236.90234375) rotate(0 51.05093241752138 5.061683228071729)"><path d="M0.93 -0.47 C17.89 1.38, 85.09 8.64, 102.14 10.67 M-0.04 -1.76 C16.71 0.28, 83.93 9.99, 101.09 11.88" stroke="#1e1e1e" stroke-width="1" fill="none"></path></g><g transform="translate(648.0758886206349 236.90234375) rotate(0 51.05093241752138 5.061683228071729)"><path d="M71.04 18.12 C80.58 17.55, 92.1 15.25, 101.77 13.05 M71.82 18.47 C78.68 17.44, 84.92 16.13, 100.49 11.06" stroke="#1e1e1e" stroke-width="1" fill="none"></path></g><g transform="translate(648.0758886206349 236.90234375) rotate(0 51.05093241752138 5.061683228071729)"><path d="M73.67 -2.23 C82.27 4.02, 92.9 8.52, 101.77 13.05 M74.45 -1.89 C80.65 1.87, 86.28 5.33, 100.49 11.06" stroke="#1e1e1e" stroke-width="1" fill="none"></path></g></g><mask></mask><g stroke-linecap="round"><g transform="translate(582.0887923536238 306.06059653291913) rotate(0 81.45954572020287 63.963460397655126)"><path d="M0.73 0.64 C27.82 21.73, 136.36 105.57, 163.26 126.74 M-0.34 -0.07 C26.59 21.16, 135.79 107.07, 162.71 128" stroke="#1e1e1e" stroke-width="1" fill="none"></path></g><g transform="translate(582.0887923536238 306.06059653291913) rotate(0 81.45954572020287 63.963460397655126)"><path d="M135.25 119.96 C143.61 121.26, 155.39 124.17, 161.67 127.99 M134.61 117.74 C139.9 121.39, 146.89 122.54, 162.45 127.42" stroke="#1e1e1e" stroke-width="1" fill="none"></path></g><g transform="translate(582.0887923536238 306.06059653291913) rotate(0 81.45954572020287 63.963460397655126)"><path d="M147.9 103.8 C151.73 111, 158.96 119.73, 161.67 127.99 M147.26 101.58 C149.91 108.62, 154.21 113.21, 162.45 127.42" stroke="#1e1e1e" stroke-width="1" fill="none"></path></g></g><mask></mask><g mask="url(#mask-i08u8y6GCiXNbVZ1UgvxJ)" stroke-linecap="round"><g transform="translate(961.2087011206349 91.03869386166224) rotate(0 76.19250029400928 1.3934289876074786)"><path d="M0.03 0.44 C25.53 0.89, 128.2 1.24, 153.8 1.63 M-1.41 -0.38 C23.9 0.38, 127.36 2.93, 153.09 3.17" stroke="#1e1e1e" stroke-width="1" fill="none"></path></g><g transform="translate(961.2087011206349 91.03869386166224) rotate(0 76.19250029400928 1.3934289876074786)"><path d="M125.45 13.69 C135.22 9.81, 147.55 5.68, 154.65 4.46 M125.11 13.5 C131.4 10.77, 138.54 8.2, 152.56 2.85" stroke="#1e1e1e" stroke-width="1" fill="none"></path></g><g transform="translate(961.2087011206349 91.03869386166224) rotate(0 76.19250029400928 1.3934289876074786)"><path d="M125.82 -6.83 C135.27 -3.18, 147.46 0.22, 154.65 4.46 M125.49 -7.02 C131.66 -5.02, 138.71 -2.86, 152.56 2.85" stroke="#1e1e1e" stroke-width="1" fill="none"></path></g></g><mask id="mask-i08u8y6GCiXNbVZ1UgvxJ"><rect x="0" y="0" fill="#fff" width="1214.536826120635" height="192.66617048589058"></rect><rect x="994.152808176299" y="66.85243217377644" fill="#000" width="87.43991088867188" height="50" opacity="1"></rect></mask><g transform="translate(994.152808176299 66.85243217377638) rotate(0 43.248393238345216 25.57969067549334)"><text x="43.71995544433594" y="0" font-family="Virgil, Segoe UI Emoji" font-size="20px" fill="#1e1e1e" text-anchor="middle" style="white-space: pre;" direction="ltr" dominant-baseline="text-before-edge">offset</text><text x="43.71995544433594" y="25" font-family="Virgil, Segoe UI Emoji" font-size="20px" fill="#1e1e1e" text-anchor="middle" style="white-space: pre;" direction="ltr" dominant-baseline="text-before-edge">filenames</text></g><g stroke-linecap="round"><g transform="translate(961.8141698706349 256.3458149544782) rotate(0 77.19573458842933 0.2830222202979371)"><path d="M-0.35 -0.03 C25.4 0.1, 128.82 1.32, 154.74 1.72 M1.67 -1.08 C27.28 -1.42, 128.49 -0.5, 154.03 -0.22" stroke="#1e1e1e" stroke-width="1" fill="none"></path></g><g transform="translate(961.8141698706349 256.3458149544782) rotate(0 77.19573458842933 0.2830222202979371)"><path d="M125.7 10.52 C135.23 8.19, 145.36 4.72, 154.79 -1.09 M125.77 9.14 C134.79 6.8, 141.74 3.62, 154.4 0.26" stroke="#1e1e1e" stroke-width="1" fill="none"></path></g><g transform="translate(961.8141698706349 256.3458149544782) rotate(0 77.19573458842933 0.2830222202979371)"><path d="M125.89 -10 C135.53 -5.8, 145.6 -2.74, 154.79 -1.09 M125.97 -11.38 C135.1 -7.59, 141.99 -4.65, 154.4 0.26" stroke="#1e1e1e" stroke-width="1" fill="none"></path></g></g><mask></mask><g stroke-linecap="round"><g transform="translate(973.5094823706349 448.50846553792985) rotate(0 69.23732230768542 -1.7283921475493003)"><path d="M0.8 -1.18 C23.9 -1.41, 115.73 -2.2, 138.71 -2.31 M-0.23 0.82 C22.73 0.29, 114.89 -3.5, 137.93 -4.27" stroke="#1e1e1e" stroke-width="1" fill="none"></path></g><g transform="translate(973.5094823706349 448.50846553792985) rotate(0 69.23732230768542 -1.7283921475493003)"><path d="M108.19 7.59 C119.35 3.8, 128.69 -1.81, 137.83 -4.47 M110.38 7.83 C117.34 3.45, 127.1 0.41, 137.61 -5.13" stroke="#1e1e1e" stroke-width="1" fill="none"></path></g><g transform="translate(973.5094823706349 448.50846553792985) rotate(0 69.23732230768542 -1.7283921475493003)"><path d="M107.41 -12.92 C118.66 -10.37, 128.24 -9.63, 137.83 -4.47 M109.61 -12.67 C116.61 -11.17, 126.59 -8.31, 137.61 -5.13" stroke="#1e1e1e" stroke-width="1" fill="none"></path></g></g><mask></mask><g stroke-linecap="round" transform="translate(712.0212011206349 10) rotate(0 142.4921875 257.662109375)"><path d="M32 0 M32 0 C109.49 -1, 186.56 -0.82, 252.98 0 M252.98 0 C273.03 1.45, 286.61 12.26, 284.98 32 M284.98 32 C284.04 174.34, 283.48 316.98, 284.98 483.32 M284.98 483.32 C286.63 503.24, 276.06 514.77, 252.98 515.32 M252.98 515.32 C206.3 515.35, 162.3 515.78, 32 515.32 M32 515.32 C12.12 514.24, 1.62 504.98, 0 483.32 M0 483.32 C0.66 386.33, -0.55 289.97, 0 32 M0 32 C1.78 12.55, 11.92 -1.84, 32 0" stroke="#1e1e1e" stroke-width="1.5" fill="none" stroke-dasharray="8 9"></path></g><g stroke-linecap="round"><g transform="translate(871.9665136206349 532.32421875) rotate(0 1.1391157008799837 44.50516905664466)"><path d="M0.71 -0.44 C1.3 14.49, 2.18 75.67, 2.65 90.73 M-0.37 -1.72 C0.1 13.4, 0.93 73.58, 1.5 89.09" stroke="#1e1e1e" stroke-width="1" fill="none"></path></g><g transform="translate(871.9665136206349 532.32421875) rotate(0 1.1391157008799837 44.50516905664466)"><path d="M-10.17 60.52 C-5.16 68.31, -4.02 72.35, 0.12 89.07 M-9.2 60.66 C-5.66 68.26, -3.28 76.48, 0.86 88.49" stroke="#1e1e1e" stroke-width="1" fill="none"></path></g><g transform="translate(871.9665136206349 532.32421875) rotate(0 1.1391157008799837 44.50516905664466)"><path d="M10.35 60.03 C10.7 68.05, 7.18 72.21, 0.12 89.07 M11.31 60.16 C9.16 67.74, 5.86 76.1, 0.86 88.49" stroke="#1e1e1e" stroke-width="1" fill="none"></path></g></g><mask></mask><g transform="translate(809.1982869970998 634.74609375) rotate(0 64.02994537353516 12.5)"><text x="64.02994537353516" y="0" font-family="Virgil, Segoe UI Emoji" font-size="20px" fill="#1e1e1e" text-anchor="middle" style="white-space: pre;" direction="ltr" dominant-baseline="text-before-edge">stream chunk</text></g><g stroke-linecap="round" transform="translate(314.17403287387356 387.52605972763877) rotate(0 85.10156249999989 55.013671875)"><path d="M27.51 0 M27.51 0 C56.48 0.49, 85.02 -0.98, 142.7 0 M27.51 0 C68.76 -0.2, 109.06 0.21, 142.7 0 M142.7 0 C160.96 -0.29, 169.93 7.65, 170.2 27.51 M142.7 0 C160.6 -1.43, 171.24 7.41, 170.2 27.51 M170.2 27.51 C170.63 37.21, 171.98 48.38, 170.2 82.52 M170.2 27.51 C170.6 48.01, 170.84 66.96, 170.2 82.52 M170.2 82.52 C170.68 101.5, 159.4 109.54, 142.7 110.03 M170.2 82.52 C171.48 99.98, 159.14 109.48, 142.7 110.03 M142.7 110.03 C119.4 112.26, 93.54 112.07, 27.51 110.03 M142.7 110.03 C97.69 110.95, 52.38 110.01, 27.51 110.03 M27.51 110.03 C7.58 108.44, 1.75 100.37, 0 82.52 M27.51 110.03 C9.84 111.17, 1.5 99.57, 0 82.52 M0 82.52 C-0.81 66.05, -0.16 49.88, 0 27.51 M0 82.52 C-0.19 62.31, -0.76 40.16, 0 27.51 M0 27.51 C1.33 9.8, 9.21 -1.1, 27.51 0 M0 27.51 C1.76 8.5, 8.51 -1.01, 27.51 0" stroke="#1e1e1e" stroke-width="1" fill="none"></path></g><g transform="translate(321.28237790561207 411.92840347763877) rotate(0 72.37993621826172 37.5)"><text x="72.37993621826172" y="0" font-family="Virgil, Segoe UI Emoji" font-size="20px" fill="#1e1e1e" text-anchor="middle" style="white-space: pre;" direction="ltr" dominant-baseline="text-before-edge">list</text><text x="72.37993621826172" y="25" font-family="Virgil, Segoe UI Emoji" font-size="20px" fill="#1e1e1e" text-anchor="middle" style="white-space: pre;" direction="ltr" dominant-baseline="text-before-edge">state store 2</text><text x="72.37993621826172" y="50" font-family="Virgil, Segoe UI Emoji" font-size="20px" fill="#1e1e1e" text-anchor="middle" style="white-space: pre;" direction="ltr" dominant-baseline="text-before-edge">filenames</text></g><g mask="url(#mask-iaCRHA2rL6lTvZ1FK3dVv)" stroke-linecap="round"><g transform="translate(326.4693418394256 288.65160539330066) rotate(0 22.73212349684161 43.45980887504447)"><path d="M-1.03 -0.14 C6.7 14.31, 38.58 72.5, 46.49 86.92 M0.63 -1.25 C8.27 13.33, 38.38 73.44, 45.95 88.17" stroke="#1e1e1e" stroke-width="1" fill="none"></path></g><g transform="translate(326.4693418394256 288.65160539330066) rotate(0 22.73212349684161 43.45980887504447)"><path d="M23.83 68.97 C29.95 75.42, 35.81 80.62, 47.16 90.06 M24.71 68.34 C30 73.23, 36.89 79.2, 46.36 87.68" stroke="#1e1e1e" stroke-width="1" fill="none"></path></g><g transform="translate(326.4693418394256 288.65160539330066) rotate(0 22.73212349684161 43.45980887504447)"><path d="M42.13 59.69 C42.63 68.85, 42.84 76.91, 47.16 90.06 M43.02 59.06 C43.13 66.65, 44.93 75.2, 46.36 87.68" stroke="#1e1e1e" stroke-width="1" fill="none"></path></g></g><mask id="mask-iaCRHA2rL6lTvZ1FK3dVv"><rect x="0" y="0" fill="#fff" width="472.1794646782132" height="476.10560336922686"></rect><rect x="305.6044478144838" y="319.8786043812638" fill="#000" width="87.43991088867188" height="25" opacity="1"></rect></mask><g transform="translate(305.6044478144836 319.8786043812638) rotate(0 43.59701752178364 12.232809887081316)"><text x="43.71995544433594" y="0" font-family="Virgil, Segoe UI Emoji" font-size="20px" fill="#1e1e1e" text-anchor="middle" style="white-space: pre;" direction="ltr" dominant-baseline="text-before-edge">filenames</text></g></svg>