<svg version="1.1" xmlns="http://www.w3.org/2000/svg" viewBox="0 0 1179.1035766601562 669.74609375" width="2358.2071533203125" height="1339.4921875">
    <!-- svg-source:excalidraw -->

    <defs>
        <style class="style-fonts">
            @font-face {
            font-family: "Virgil";
            src: url("https://excalidraw.com/Virgil.woff2");
            }
            @font-face {
            font-family: "Cascadia";
            src: url("https://excalidraw.com/Cascadia.woff2");
            }
        </style>

    </defs>
    <rect x="0" y="0" width="1179.1035766601562" height="669.74609375" fill="#ffffff"></rect><g stroke-linecap="round" transform="translate(40.50201416015625 178.78125) rotate(0 71.5 49.5)"><path d="M24.75 0 M24.75 0 C63.44 0.68, 96.87 -0.98, 118.25 0 M24.75 0 C61.78 0.88, 98 1.12, 118.25 0 M118.25 0 C134.66 -0.83, 143.44 9.61, 143 24.75 M118.25 0 C133.65 -0.27, 143.88 10.23, 143 24.75 M143 24.75 C144.61 37.24, 142.03 51.46, 143 74.25 M143 24.75 C142.74 38.24, 142.35 53.01, 143 74.25 M143 74.25 C142.28 90.66, 134.98 97.99, 118.25 99 M143 74.25 C140.74 88.73, 133.34 100.92, 118.25 99 M118.25 99 C85.89 98.37, 55.95 101.28, 24.75 99 M118.25 99 C92.41 98.56, 67.49 97.4, 24.75 99 M24.75 99 C9.75 98.25, -0.16 89.45, 0 74.25 M24.75 99 C6.41 100.08, 1.57 89.05, 0 74.25 M0 74.25 C-2.22 63.77, -2.41 55.27, 0 24.75 M0 74.25 C0.53 56.39, 0.55 37, 0 24.75 M0 24.75 C1.02 10.1, 8.9 0.65, 24.75 0 M0 24.75 C-2.11 9.13, 6.97 1.47, 24.75 0" stroke="#1e1e1e" stroke-width="1" fill="none"></path></g><g transform="translate(96.10203552246094 215.78125) rotate(0 15.899978637695312 12.5)"><text x="15.899978637695312" y="0" font-family="Virgil, Segoe UI Emoji" font-size="20px" fill="#1e1e1e" text-anchor="middle" style="white-space: pre;" direction="ltr" dominant-baseline="text-before-edge">list</text></g><g stroke-linecap="round" transform="translate(345.66607666015625 160.51171875) rotate(0 65.396484375 71.31629392971251)"><path d="M82.5 18 M82.5 18 C94.97 33.15, 105.38 44.11, 114.29 54 M82.5 18 C92.58 29.06, 102.07 39.78, 114.29 54 M114.29 54 C132.66 72.33, 132.13 70.03, 114.29 90 M114.29 54 C132.87 72.2, 130.93 73.65, 114.29 90 M114.29 90 C103.84 101.04, 91.18 115.04, 82.5 124.63 M114.29 90 C104.48 100.11, 94.2 110.93, 82.5 124.63 M82.5 124.63 C65.08 141.23, 66.37 140.95, 49.5 124.63 M82.5 124.63 C67.96 144.14, 68.18 140.48, 49.5 124.63 M49.5 124.63 C35.13 109.88, 22.36 97.72, 16.5 90 M49.5 124.63 C36.07 111.68, 22.36 97.76, 16.5 90 M16.5 90 C-0.68 73.63, -1.98 70.84, 16.5 54 M16.5 90 C-1.26 70.12, 0.75 71.68, 16.5 54 M16.5 54 C26.43 42.03, 35.75 35.56, 49.5 18 M16.5 54 C26.9 41.37, 37.21 31.17, 49.5 18 M49.5 18 C64.52 -1.13, 66.54 -0.12, 82.5 18 M49.5 18 C67.41 0.16, 64.96 -0.93, 82.5 18" stroke="#1e1e1e" stroke-width="1" fill="none"></path></g><g transform="translate(383.4804458618164 221.55957159720913) rotate(0 27.383872985839844 10.110294117647072)"><text x="27.383872985839844" y="0" font-family="Virgil, Segoe UI Emoji" font-size="16.176470588235276px" fill="#1e1e1e" text-anchor="middle" style="white-space: pre;" direction="ltr" dominant-baseline="text-before-edge">shuffle</text></g><g mask="url(#mask-SREo6WDvs5z1BCxPnzbKK)" stroke-linecap="round"><g transform="translate(184.75982666015625 229.9267138245757) rotate(0 80.6268047122752 1.702273353162525)"><path d="M1.14 -0.95 C27.83 -0.56, 134.65 2.16, 160.97 2.74 M0.28 1.17 C26.81 1.73, 133.59 3.91, 160.44 4.35" stroke="#1e1e1e" stroke-width="1" fill="none"></path></g><g transform="translate(184.75982666015625 229.9267138245757) rotate(0 80.6268047122752 1.702273353162525)"><path d="M130.48 15.39 C142.69 8.36, 152.75 7.68, 159.83 4.62 M131.79 14.44 C141.09 10.31, 150.45 7.53, 160.98 4.97" stroke="#1e1e1e" stroke-width="1" fill="none"></path></g><g transform="translate(184.75982666015625 229.9267138245757) rotate(0 80.6268047122752 1.702273353162525)"><path d="M130.86 -5.12 C143 -4.62, 152.92 2.24, 159.83 4.62 M132.17 -6.07 C141.47 -3.19, 150.69 1.04, 160.98 4.97" stroke="#1e1e1e" stroke-width="1" fill="none"></path></g></g><mask id="mask-SREo6WDvs5z1BCxPnzbKK"><rect x="0" y="0" fill="#fff" width="444.9485062021206" height="332.5250937643168"></rect><rect x="221.13421098680237" y="206.22590379444625" fill="#000" width="87.43991088867188" height="50" opacity="1"></rect></mask><g transform="translate(221.13421098680237 206.22590379444625) rotate(0 44.252420385628966 25.40308338329197)"><text x="43.71995544433594" y="0" font-family="Virgil, Segoe UI Emoji" font-size="20px" fill="#1e1e1e" text-anchor="middle" style="white-space: pre;" direction="ltr" dominant-baseline="text-before-edge">new</text><text x="43.71995544433594" y="25" font-family="Virgil, Segoe UI Emoji" font-size="20px" fill="#1e1e1e" text-anchor="middle" style="white-space: pre;" direction="ltr" dominant-baseline="text-before-edge">filenames</text></g><g stroke-linecap="round" transform="translate(35.60357666015625 377.17578125) rotate(0 85.1015625 55.013671875)"><path d="M27.51 0 M27.51 0 C63.31 0.4, 100.76 -1.15, 142.7 0 M27.51 0 C64.25 -1.1, 101.66 -0.83, 142.7 0 M142.7 0 C160.86 -0.72, 168.96 11.08, 170.2 27.51 M142.7 0 C160.66 -0.71, 171.64 8.62, 170.2 27.51 M170.2 27.51 C170.88 44.7, 169.81 60.77, 170.2 82.52 M170.2 27.51 C169.49 48.28, 169.47 70.17, 170.2 82.52 M170.2 82.52 C172.1 102.54, 161.72 111.38, 142.7 110.03 M170.2 82.52 C172.45 99.52, 159.89 108.82, 142.7 110.03 M142.7 110.03 C120.77 109.48, 94.59 109.83, 27.51 110.03 M142.7 110.03 C105.43 109.4, 70.75 110.21, 27.51 110.03 M27.51 110.03 C7.4 108.74, 1.91 101.29, 0 82.52 M27.51 110.03 C8.04 111.95, -1.64 101.09, 0 82.52 M0 82.52 C-2.06 67.47, -0.9 52.3, 0 27.51 M0 82.52 C-1.21 70.85, -1.11 60.14, 0 27.51 M0 27.51 C-0.87 7.55, 9.47 -0.02, 27.51 0 M0 27.51 C-2.3 7.86, 9.21 -0.33, 27.51 0" stroke="#1e1e1e" stroke-width="1" fill="none"></path></g><g transform="translate(54.83191680908203 401.578125) rotate(0 60.25994110107422 25)"><text x="60.25994110107422" y="0" font-family="Virgil, Segoe UI Emoji" font-size="20px" fill="#1e1e1e" text-anchor="middle" style="white-space: pre;" direction="ltr" dominant-baseline="text-before-edge">list</text><text x="60.25994110107422" y="25" font-family="Virgil, Segoe UI Emoji" font-size="20px" fill="#1e1e1e" text-anchor="middle" style="white-space: pre;" direction="ltr" dominant-baseline="text-before-edge">state store</text></g><g mask="url(#mask-1o0CixCQ7csXjnz4HjmP1)" stroke-linecap="round"><g transform="translate(112.74810791015625 284.171875) rotate(0 -0.14795389926058533 44.44183440609834)"><path d="M-0.42 0.41 C-0.58 15.19, -0.88 74.58, -1.23 89.3 M1.57 -0.41 C1.32 13.95, -1.01 72.4, -1.86 87.48" stroke="#1e1e1e" stroke-width="1" fill="none"></path></g><g transform="translate(112.74810791015625 284.171875) rotate(0 -0.14795389926058533 44.44183440609834)"><path d="M-10.11 59.82 C-7.19 65.79, -5.64 75.51, -3.16 85.99 M-10.9 59.83 C-9.02 63.81, -7.45 70.14, -2.71 86.73" stroke="#1e1e1e" stroke-width="1" fill="none"></path></g><g transform="translate(112.74810791015625 284.171875) rotate(0 -0.14795389926058533 44.44183440609834)"><path d="M10.39 60.78 C7.57 66.41, 3.39 75.86, -3.16 85.99 M9.6 60.79 C7.34 64.43, 4.76 70.57, -2.71 86.73" stroke="#1e1e1e" stroke-width="1" fill="none"></path></g></g><mask id="mask-1o0CixCQ7csXjnz4HjmP1"><rect x="0" y="0" fill="#fff" width="214.56451416015625" height="472.89453125"></rect><rect x="10" y="316.033203125" fill="#000" width="203.6798095703125" height="25" opacity="1"></rect></mask><g transform="translate(10 316.033203125) rotate(0 102.60015401089566 12.580506281098337)"><text x="101.83990478515625" y="0" font-family="Virgil, Segoe UI Emoji" font-size="20px" fill="#1e1e1e" text-anchor="middle" style="white-space: pre;" direction="ltr" dominant-baseline="text-before-edge">timestamp/pagination</text></g><g stroke-linecap="round" transform="translate(583.4981079101562 39.703125) rotate(0 100.365234375 54.54296875)"><path d="M27.27 0 M27.27 0 C73 1.11, 117.31 1.78, 173.46 0 M27.27 0 C84.1 -0.86, 138.94 -0.25, 173.46 0 M173.46 0 C190.17 0.64, 198.98 7.87, 200.73 27.27 M173.46 0 C190.91 1.9, 199.16 11.34, 200.73 27.27 M200.73 27.27 C201.73 43.41, 199.54 61.02, 200.73 81.81 M200.73 27.27 C200.01 46.91, 201.04 68.3, 200.73 81.81 M200.73 81.81 C200.43 100.1, 191.54 110.82, 173.46 109.09 M200.73 81.81 C199.99 99.35, 190.66 110.74, 173.46 109.09 M173.46 109.09 C119.84 110.74, 65.04 110.59, 27.27 109.09 M173.46 109.09 C126.38 109.09, 81.4 110.11, 27.27 109.09 M27.27 109.09 C8.26 107.93, 0.9 100.44, 0 81.81 M27.27 109.09 C10.17 110.87, -1.6 98.8, 0 81.81 M0 81.81 C-0.56 72.57, -0.63 61.18, 0 27.27 M0 81.81 C0.12 68.2, 0.85 55.55, 0 27.27 M0 27.27 C1.56 7.56, 8.6 1.98, 27.27 0 M0 27.27 C-0.79 7, 7.37 -0.52, 27.27 0" stroke="#1e1e1e" stroke-width="1" fill="none"></path></g><g transform="translate(642.2433776855469 81.74609375) rotate(0 41.619964599609375 12.5)"><text x="41.619964599609375" y="0" font-family="Virgil, Segoe UI Emoji" font-size="20px" fill="#1e1e1e" text-anchor="middle" style="white-space: pre;" direction="ltr" dominant-baseline="text-before-edge">fetch #1</text></g><g stroke-linecap="round" transform="translate(954.1035766601562 21.65625) rotate(0 107.5 259)"><path d="M32 0 M32 0 C88.51 -1.02, 142.97 0.94, 183 0 M32 0 C71.96 0.57, 110.73 0.59, 183 0 M183 0 C203.68 1.56, 215.25 12.06, 215 32 M183 0 C205.07 -1.4, 215.22 8.4, 215 32 M215 32 C215.5 184.97, 216.25 340.02, 215 486 M215 32 C215.69 177.03, 215.39 322.12, 215 486 M215 486 C213.37 507.35, 206 517.08, 183 518 M215 486 C214.17 509.14, 204.56 516.04, 183 518 M183 518 C126.81 517.1, 72.02 517.03, 32 518 M183 518 C149.61 519.19, 114.5 518.71, 32 518 M32 518 C9.63 519.04, -0.65 507.99, 0 486 M32 518 C11.89 516.45, 0.42 508.98, 0 486 M0 486 C-0.71 318.92, -1.51 153.72, 0 32 M0 486 C-2.15 381.2, -2.15 276.21, 0 32 M0 32 C0.94 9.18, 10.43 0.45, 32 0 M0 32 C-1.79 8.95, 11.15 1.99, 32 0" stroke="#1e1e1e" stroke-width="1" fill="none"></path></g><g transform="translate(1001.343635559082 255.65625) rotate(0 60.25994110107422 25)"><text x="60.25994110107422" y="0" font-family="Virgil, Segoe UI Emoji" font-size="20px" fill="#1e1e1e" text-anchor="middle" style="white-space: pre;" direction="ltr" dominant-baseline="text-before-edge">fetch</text><text x="60.25994110107422" y="25" font-family="Virgil, Segoe UI Emoji" font-size="20px" fill="#1e1e1e" text-anchor="middle" style="white-space: pre;" direction="ltr" dominant-baseline="text-before-edge">state store</text></g><g stroke-linecap="round" transform="translate(591.8242797851562 380.54296875) rotate(0 100.365234375 54.54296875)"><path d="M27.27 0 M27.27 0 C82.37 -1.03, 139.98 -1.06, 173.46 0 M27.27 0 C84.45 0.93, 142.62 -0.44, 173.46 0 M173.46 0 C193.33 1.67, 199.54 10.46, 200.73 27.27 M173.46 0 C189.67 -0.43, 199.97 8.55, 200.73 27.27 M200.73 27.27 C201.3 45.6, 202.49 62.99, 200.73 81.81 M200.73 27.27 C199.28 49.21, 200.31 69.13, 200.73 81.81 M200.73 81.81 C200.03 100.37, 190.13 109.15, 173.46 109.09 M200.73 81.81 C201.26 98.39, 192.8 110.43, 173.46 109.09 M173.46 109.09 C126.71 105.78, 77.64 108.13, 27.27 109.09 M173.46 109.09 C125.53 108.65, 77.71 108.17, 27.27 109.09 M27.27 109.09 C8.91 108.24, -1.99 99.01, 0 81.81 M27.27 109.09 C10.45 107.34, 0.9 98.53, 0 81.81 M0 81.81 C-1.66 63.43, 1.94 49.7, 0 27.27 M0 81.81 C-0.66 66.38, -1.25 49.44, 0 27.27 M0 27.27 C0.62 9.08, 9.83 1.61, 27.27 0 M0 27.27 C1.74 8.33, 8.05 -1.97, 27.27 0" stroke="#1e1e1e" stroke-width="1" fill="none"></path></g><g transform="translate(646.4695510864258 422.5859375) rotate(0 45.71996307373047 12.5)"><text x="45.71996307373047" y="0" font-family="Virgil, Segoe UI Emoji" font-size="20px" fill="#1e1e1e" text-anchor="middle" style="white-space: pre;" direction="ltr" dominant-baseline="text-before-edge">fetch #3</text></g><g stroke-linecap="round" transform="translate(588.1563110351562 201.140625) rotate(0 100.365234375 54.54296875)"><path d="M27.27 0 M27.27 0 C84.37 1.52, 143.45 -1.22, 173.46 0 M27.27 0 C84.16 0.01, 139.48 0.54, 173.46 0 M173.46 0 C191.17 0.68, 201.37 9.21, 200.73 27.27 M173.46 0 C192.09 0.13, 202.55 8.27, 200.73 27.27 M200.73 27.27 C198.36 50.03, 200.42 68.74, 200.73 81.81 M200.73 27.27 C200.86 41.95, 200.14 56.66, 200.73 81.81 M200.73 81.81 C201.9 100.64, 190.84 107.22, 173.46 109.09 M200.73 81.81 C202.83 97.76, 193.18 109.56, 173.46 109.09 M173.46 109.09 C125.85 109.31, 78.45 108.35, 27.27 109.09 M173.46 109.09 C130.4 108.23, 87.56 108.03, 27.27 109.09 M27.27 109.09 C7.81 109.25, -1.01 98.1, 0 81.81 M27.27 109.09 C6.87 107.26, 1.92 101.7, 0 81.81 M0 81.81 C-0.83 67.09, -2 49.34, 0 27.27 M0 81.81 C0.81 64.51, -0.33 45.25, 0 27.27 M0 27.27 C-1.71 7.82, 8.55 0.31, 27.27 0 M0 27.27 C-0.92 11.27, 7.5 1.56, 27.27 0" stroke="#1e1e1e" stroke-width="1" fill="none"></path></g><g transform="translate(642.491584777832 243.18359375) rotate(0 46.02996063232422 12.5)"><text x="46.02996063232422" y="0" font-family="Virgil, Segoe UI Emoji" font-size="20px" fill="#1e1e1e" text-anchor="middle" style="white-space: pre;" direction="ltr" dominant-baseline="text-before-edge">fetch #2</text></g><g stroke-linecap="round"><g transform="translate(410.78717041015625 159.5859375) rotate(0 82.69026188068096 -33.958137598931785)"><path d="M-1.05 -1.06 C26.7 -12.38, 138.53 -57.83, 166.43 -68.91 M0.6 0.99 C28.17 -10.09, 137.84 -55.94, 165.3 -67.68" stroke="#1e1e1e" stroke-width="1" fill="none"></path></g><g transform="translate(410.78717041015625 159.5859375) rotate(0 82.69026188068096 -33.958137598931785)"><path d="M141.54 -47.85 C148.92 -53.77, 157.62 -59.18, 166.37 -69.08 M143.86 -46.96 C148.49 -52.29, 156.23 -58.73, 164.45 -68.24" stroke="#1e1e1e" stroke-width="1" fill="none"></path></g><g transform="translate(410.78717041015625 159.5859375) rotate(0 82.69026188068096 -33.958137598931785)"><path d="M133.57 -66.76 C143.12 -67.08, 154.15 -66.96, 166.37 -69.08 M135.89 -65.87 C142.69 -65.96, 152.61 -67.26, 164.45 -68.24" stroke="#1e1e1e" stroke-width="1" fill="none"></path></g></g><mask></mask><g stroke-linecap="round"><g transform="translate(478.85357666015625 236.90234375) rotate(0 51.05093241752127 5.061683228071729)"><path d="M0.93 -0.47 C17.89 1.38, 85.09 8.64, 102.14 10.67 M-0.04 -1.76 C16.71 0.28, 83.93 9.99, 101.09 11.88" stroke="#1e1e1e" stroke-width="1" fill="none"></path></g><g transform="translate(478.85357666015625 236.90234375) rotate(0 51.05093241752127 5.061683228071729)"><path d="M71.04 18.12 C80.58 17.55, 92.1 15.25, 101.77 13.05 M71.82 18.47 C78.68 17.44, 84.92 16.13, 100.49 11.06" stroke="#1e1e1e" stroke-width="1" fill="none"></path></g><g transform="translate(478.85357666015625 236.90234375) rotate(0 51.05093241752127 5.061683228071729)"><path d="M73.67 -2.23 C82.27 4.02, 92.9 8.52, 101.77 13.05 M74.45 -1.89 C80.65 1.87, 86.28 5.33, 100.49 11.06" stroke="#1e1e1e" stroke-width="1" fill="none"></path></g></g><mask></mask><g stroke-linecap="round"><g transform="translate(412.86648039314537 306.06059653291913) rotate(0 81.45954572020275 63.963460397655126)"><path d="M0.73 0.64 C27.82 21.73, 136.36 105.57, 163.26 126.74 M-0.34 -0.07 C26.59 21.16, 135.79 107.07, 162.71 128" stroke="#1e1e1e" stroke-width="1" fill="none"></path></g><g transform="translate(412.86648039314537 306.06059653291913) rotate(0 81.45954572020275 63.963460397655126)"><path d="M135.25 119.96 C143.61 121.26, 155.39 124.17, 161.67 127.99 M134.61 117.74 C139.9 121.39, 146.89 122.54, 162.45 127.42" stroke="#1e1e1e" stroke-width="1" fill="none"></path></g><g transform="translate(412.86648039314537 306.06059653291913) rotate(0 81.45954572020275 63.963460397655126)"><path d="M147.9 103.8 C151.73 111, 158.96 119.73, 161.67 127.99 M147.26 101.58 C149.91 108.62, 154.21 113.21, 162.45 127.42" stroke="#1e1e1e" stroke-width="1" fill="none"></path></g></g><mask></mask><g mask="url(#mask-i08u8y6GCiXNbVZ1UgvxJ)" stroke-linecap="round"><g transform="translate(791.9863891601562 91.03869386166224) rotate(0 76.19250029400916 1.3934289876074786)"><path d="M0.03 0.44 C25.53 0.89, 128.2 1.24, 153.8 1.63 M-1.41 -0.38 C23.9 0.38, 127.36 2.93, 153.09 3.17" stroke="#1e1e1e" stroke-width="1" fill="none"></path></g><g transform="translate(791.9863891601562 91.03869386166224) rotate(0 76.19250029400916 1.3934289876074786)"><path d="M125.45 13.69 C135.22 9.81, 147.55 5.68, 154.65 4.46 M125.11 13.5 C131.4 10.77, 138.54 8.2, 152.56 2.85" stroke="#1e1e1e" stroke-width="1" fill="none"></path></g><g transform="translate(791.9863891601562 91.03869386166224) rotate(0 76.19250029400916 1.3934289876074786)"><path d="M125.82 -6.83 C135.27 -3.18, 147.46 0.22, 154.65 4.46 M125.49 -7.02 C131.66 -5.02, 138.71 -2.86, 152.56 2.85" stroke="#1e1e1e" stroke-width="1" fill="none"></path></g></g><mask id="mask-i08u8y6GCiXNbVZ1UgvxJ"><rect x="0" y="0" fill="#fff" width="1045.3145141601562" height="192.66617048589058"></rect><rect x="824.9304962158203" y="66.85243217377644" fill="#000" width="87.43991088867188" height="50" opacity="1"></rect></mask><g transform="translate(824.9304962158203 66.85243217377638) rotate(0 43.2483932383451 25.57969067549334)"><text x="43.71995544433594" y="0" font-family="Virgil, Segoe UI Emoji" font-size="20px" fill="#1e1e1e" text-anchor="middle" style="white-space: pre;" direction="ltr" dominant-baseline="text-before-edge">offset</text><text x="43.71995544433594" y="25" font-family="Virgil, Segoe UI Emoji" font-size="20px" fill="#1e1e1e" text-anchor="middle" style="white-space: pre;" direction="ltr" dominant-baseline="text-before-edge">filenames</text></g><g stroke-linecap="round"><g transform="translate(792.5918579101562 256.3458149544782) rotate(0 77.19573458842933 0.2830222202979371)"><path d="M-0.35 -0.03 C25.4 0.1, 128.82 1.32, 154.74 1.72 M1.67 -1.08 C27.28 -1.42, 128.49 -0.5, 154.03 -0.22" stroke="#1e1e1e" stroke-width="1" fill="none"></path></g><g transform="translate(792.5918579101562 256.3458149544782) rotate(0 77.19573458842933 0.2830222202979371)"><path d="M125.7 10.52 C135.23 8.19, 145.36 4.72, 154.79 -1.09 M125.77 9.14 C134.79 6.8, 141.74 3.62, 154.4 0.26" stroke="#1e1e1e" stroke-width="1" fill="none"></path></g><g transform="translate(792.5918579101562 256.3458149544782) rotate(0 77.19573458842933 0.2830222202979371)"><path d="M125.89 -10 C135.53 -5.8, 145.6 -2.74, 154.79 -1.09 M125.97 -11.38 C135.1 -7.59, 141.99 -4.65, 154.4 0.26" stroke="#1e1e1e" stroke-width="1" fill="none"></path></g></g><mask></mask><g stroke-linecap="round"><g transform="translate(804.2871704101562 448.50846553792985) rotate(0 69.2373223076853 -1.7283921475493003)"><path d="M0.8 -1.18 C23.9 -1.41, 115.73 -2.2, 138.71 -2.31 M-0.23 0.82 C22.73 0.29, 114.89 -3.5, 137.93 -4.27" stroke="#1e1e1e" stroke-width="1" fill="none"></path></g><g transform="translate(804.2871704101562 448.50846553792985) rotate(0 69.2373223076853 -1.7283921475493003)"><path d="M108.19 7.59 C119.35 3.8, 128.69 -1.81, 137.83 -4.47 M110.38 7.83 C117.34 3.45, 127.1 0.41, 137.61 -5.13" stroke="#1e1e1e" stroke-width="1" fill="none"></path></g><g transform="translate(804.2871704101562 448.50846553792985) rotate(0 69.2373223076853 -1.7283921475493003)"><path d="M107.41 -12.92 C118.66 -10.37, 128.24 -9.63, 137.83 -4.47 M109.61 -12.67 C116.61 -11.17, 126.59 -8.31, 137.61 -5.13" stroke="#1e1e1e" stroke-width="1" fill="none"></path></g></g><mask></mask><g stroke-linecap="round" transform="translate(542.7988891601562 10) rotate(0 142.4921875 257.662109375)"><path d="M32 0 M32 0 C109.49 -1, 186.56 -0.82, 252.98 0 M252.98 0 C273.03 1.45, 286.61 12.26, 284.98 32 M284.98 32 C284.04 174.34, 283.48 316.98, 284.98 483.32 M284.98 483.32 C286.63 503.24, 276.06 514.77, 252.98 515.32 M252.98 515.32 C206.3 515.35, 162.3 515.78, 32 515.32 M32 515.32 C12.12 514.24, 1.62 504.98, 0 483.32 M0 483.32 C0.66 386.33, -0.55 289.97, 0 32 M0 32 C1.78 12.55, 11.92 -1.84, 32 0" stroke="#1e1e1e" stroke-width="1.5" fill="none" stroke-dasharray="8 9"></path></g><g stroke-linecap="round"><g transform="translate(702.7442016601562 532.32421875) rotate(0 1.1391157008799837 44.50516905664466)"><path d="M0.71 -0.44 C1.3 14.49, 2.18 75.67, 2.65 90.73 M-0.37 -1.72 C0.1 13.4, 0.93 73.58, 1.5 89.09" stroke="#1e1e1e" stroke-width="1" fill="none"></path></g><g transform="translate(702.7442016601562 532.32421875) rotate(0 1.1391157008799837 44.50516905664466)"><path d="M-10.17 60.52 C-5.16 68.31, -4.02 72.35, 0.12 89.07 M-9.2 60.66 C-5.66 68.26, -3.28 76.48, 0.86 88.49" stroke="#1e1e1e" stroke-width="1" fill="none"></path></g><g transform="translate(702.7442016601562 532.32421875) rotate(0 1.1391157008799837 44.50516905664466)"><path d="M10.35 60.03 C10.7 68.05, 7.18 72.21, 0.12 89.07 M11.31 60.16 C9.16 67.74, 5.86 76.1, 0.86 88.49" stroke="#1e1e1e" stroke-width="1" fill="none"></path></g></g><mask></mask><g transform="translate(639.9759750366211 634.74609375) rotate(0 64.02994537353516 12.5)"><text x="64.02994537353516" y="0" font-family="Virgil, Segoe UI Emoji" font-size="20px" fill="#1e1e1e" text-anchor="middle" style="white-space: pre;" direction="ltr" dominant-baseline="text-before-edge">stream chunk</text></g></svg>