<svg version="1.1" xmlns="http://www.w3.org/2000/svg" viewBox="0 0 653.720703125 299.6953125" width="653.720703125" height="299.6953125">
  <!-- svg-source:excalidraw -->
  
  <defs>
    <style class="style-fonts">
      @font-face {
        font-family: "Virgil";
        src: url("https://excalidraw.com/Virgil.woff2");
      }
      @font-face {
        font-family: "Cascadia";
        src: url("https://excalidraw.com/Cascadia.woff2");
      }
    </style>
  </defs>
  <rect x="0" y="0" width="653.720703125" height="299.6953125" fill="#ffffff"></rect><g stroke-linecap="round" transform="translate(73.1953125 13.96484375) rotate(0 66.0703125 33.267578125)"><path d="M0 0 C0 0, 0 0, 0 0 M0 0 C0 0, 0 0, 0 0 M-0.41 6.98 C0.98 4.01, 3.8 1.62, 5.6 0.27 M-0.37 6.71 C1.09 4.75, 2.6 3.04, 5.37 0.4 M0.73 13.37 C2.97 9.44, 3.72 7.86, 9.56 -0.68 M-0.24 11.41 C2.95 8.54, 5.94 6.22, 10.09 0.68 M-1.82 17.77 C5.11 14.86, 7.69 10.14, 14.97 -0.46 M-0.34 17.92 C3.66 13.82, 6.72 10.14, 14.9 0.03 M1.48 22.94 C3.71 18.14, 11.72 13.06, 21.77 -1.05 M0.13 23.22 C6.63 16.89, 13.4 7.15, 21.43 0.12 M-1.39 29.18 C8.88 21.86, 16.21 11.59, 26.65 1.02 M0.25 31.43 C5.61 23.18, 12.45 18.18, 27.11 0.12 M-0.3 38.15 C12.03 26.62, 19.02 13.34, 30.69 -0.79 M-0.81 37.87 C10.31 26.02, 18.95 13.74, 32.59 -0.16 M-0.59 41.33 C12.5 25.5, 26.5 10.65, 37.95 0.68 M1.09 43.23 C10.5 30.23, 22.84 16.76, 37.32 0.08 M-1 48.18 C13.31 32.77, 30.55 14.73, 40.87 -1.84 M0.05 49.91 C9.15 38.4, 18.04 26.95, 41.73 0.58 M-0.86 54.7 C15.06 38.97, 30.14 20.24, 47.1 1.83 M-0.38 54.76 C18.23 34.22, 35.85 13.71, 46.9 0.18 M-1.31 59.35 C12.79 46.55, 25.36 33.88, 52.93 -0.8 M0.53 61.23 C10.88 49.54, 21.24 36.87, 52.76 0.81 M0.16 66.92 C20.04 43.13, 37.76 24.38, 58.11 -1.03 M0.86 67.36 C16.39 47.55, 32.17 29.88, 57.79 -0.4 M5.78 66.36 C17.33 52.06, 31.33 35.71, 63.29 -1.09 M4.96 67.85 C23.56 48.16, 41.63 26.98, 63.18 -1.11 M11.15 64.76 C26.83 49.81, 44.28 28.32, 68.83 1.76 M11.93 66.21 C28.15 47.28, 44.87 27.28, 68.54 0.39 M15.87 65.13 C36.2 42.58, 60.83 17.46, 76.21 -0.94 M17.01 66.71 C29.52 50.52, 42.71 35.06, 74.07 -0.89 M23.62 68.31 C40.64 44.45, 56.54 25.79, 78.9 -0.92 M22.55 66.52 C35.07 51.22, 50.02 34.23, 80.27 -0.45 M25.1 68.83 C40.23 52.57, 51.5 33.87, 83.73 -1.38 M25.68 67.71 C38.53 53.63, 49.95 38.61, 84.12 -0.35 M31.36 66.78 C52.27 39.9, 73.58 17.11, 89.78 -1.02 M32.52 67.36 C52.83 43.72, 75.43 19.18, 90.73 0.96 M36.69 67.74 C58.9 45.44, 76.35 23.52, 93.73 -2.27 M37.83 67.6 C56.06 45.12, 76.05 21.38, 95.6 0.6 M43.99 66.58 C62.97 42.33, 82.69 19.21, 100.75 0.7 M43.24 65.69 C60.8 46.86, 76.46 27.72, 100.24 -0.59 M47.66 67.38 C71.11 39.52, 94.8 14.43, 105.88 -2.27 M46.91 66.06 C60.33 53.5, 71.72 39.17, 106.39 -0.04 M54.94 67.28 C70.15 45.78, 88.36 25.7, 112.9 -1.33 M53.72 66.39 C66.64 52.47, 79.82 37, 111.71 0.61 M56.84 68.41 C72.79 50.98, 86.43 35.94, 115.03 1.89 M58.97 67.67 C74.57 46.11, 93.48 26.08, 115.29 0.38 M65.46 65.66 C76.3 51.35, 90.03 36.61, 121.12 -1.5 M64.55 66.23 C85.67 39.94, 108.37 15.35, 122.65 -0.84 M68.9 66.69 C88.87 44.45, 106.87 21.72, 125.78 0.42 M68.63 65.89 C82.12 52.93, 94.52 40.11, 126.68 0.16 M75.95 68.44 C90.35 48.04, 110.71 24.36, 134.12 1.01 M73.24 66.66 C94.47 44.62, 114.26 20.25, 133.17 0.58 M78.28 65.3 C101.57 42.71, 123.23 19.52, 131.36 5 M79.14 67.12 C101.17 43.15, 120.94 19.08, 131.29 5.81 M84.58 65.25 C95.11 54.32, 106.74 40.69, 131.29 11 M84.88 66.74 C100.92 49.26, 115.65 31.43, 132.82 12.1 M89.27 66.45 C105.76 48.8, 124.79 30.03, 130.7 17.72 M90.3 66.66 C98.95 56.05, 107.96 47.67, 133.39 18.96 M95.39 65.18 C110.44 51.64, 123.16 34.38, 132.76 26.08 M96.2 67.75 C106.44 54.95, 116.38 43.27, 132.69 25.47 M99.95 67.6 C109.49 57.52, 112.47 50.58, 131.78 31.82 M100.55 66.69 C110.69 56.26, 119.08 45.52, 132.04 31.09 M104.86 65.75 C115.27 58.35, 121.31 47.36, 132.03 37.37 M106.16 66.06 C115.83 55.86, 127.63 43.05, 132.02 37.69 M110.23 65.34 C118.77 61.36, 125.43 53.76, 132.5 44.5 M110.89 66.34 C116.16 61.83, 119.57 56.19, 132.04 42.39 M117.3 65.67 C119.73 60.32, 123.23 55.5, 133.05 50.41 M117.31 66.01 C119.73 62.89, 123.04 58.7, 133.29 47.87 M121.93 67.26 C125.57 62.95, 127.81 59.62, 132.46 55.75 M122.77 65.85 C126 63.13, 129.63 57.65, 131.83 54.83 M127.91 67.71 C128.47 65.31, 130.07 64.46, 132.98 61.33 M127.51 67.28 C128.72 65.27, 130.5 63.79, 132.16 60.57" stroke="#ced4da" stroke-width="0.5" fill="none"></path><path d="M-1.34 1.5 C48.62 0.63, 101.13 0.81, 133.14 -1.66 M0.15 0.2 C40.73 -1.53, 79.54 -0.02, 131.83 0.79 M131.41 -1.05 C131.35 18.71, 133.79 41.2, 131.2 65.11 M131.64 -0.89 C130.8 20.34, 132.04 41.9, 132.12 66.12 M131.23 67.91 C102.28 63.35, 76.84 66.36, 0.19 64.64 M132.22 67.24 C85.91 66, 39.97 65.91, -0.59 67.53 M-0.33 65.48 C-0.06 47.29, -0.74 25.14, 0.36 1.48 M-0.14 65.77 C-0.83 47.8, -0.36 29.33, -0.29 0.58" stroke="#000000" stroke-width="1" fill="none"></path></g><g transform="translate(119.765625 34.732421875) rotate(0 19.5 12.5)"><text x="19.5" y="18" font-family="Virgil, Segoe UI Emoji" font-size="20px" fill="#000000" text-anchor="middle" style="white-space: pre;" direction="ltr">Join</text></g><g stroke-linecap="round" transform="translate(10 137.67578125) rotate(0 66.0703125 33.267578125)"><path d="M0 0 C0 0, 0 0, 0 0 M0 0 C0 0, 0 0, 0 0 M-0.84 6.09 C1.51 4.23, 3.05 3.18, 4.91 0.92 M-0.39 6.49 C1 4.89, 2.94 3.18, 4.63 0.45 M0.78 11.93 C1.79 9.91, 4.05 5.53, 9.58 -1.56 M0.38 11.35 C3.93 8.52, 5.6 6, 9.99 -0.72 M1.48 18.88 C5.83 12.36, 9.55 6.01, 14.38 -0.91 M-0.2 18.14 C3.98 13.3, 8.86 7.11, 15.18 0.35 M-1.67 24.19 C5.72 19.78, 10.43 11.94, 21.81 -0.12 M-0.26 25.01 C8.03 13.74, 17.19 5.23, 21.65 -0.36 M-0.09 32.14 C6.99 22.56, 17.46 12, 24.54 -0.97 M-0.21 29.72 C9.41 21.19, 17.76 10.53, 26.46 -0.69 M1.32 38.36 C6.05 27.49, 14.69 17.42, 31.98 -1.39 M0.29 37.48 C10.95 22.78, 23.86 9.8, 32.78 0.73 M-1.45 41.95 C9.42 31.1, 23.38 17.84, 36.91 -0.02 M-0.64 43.01 C11.53 29.01, 22.79 16.07, 37.35 0.42 M-1.41 49.56 C11.75 36.62, 19.44 23.21, 40.84 -0.26 M-0.09 48.93 C11.63 33.71, 23.26 21.32, 42.69 0.04 M0.18 56.05 C13.24 39.97, 25.48 27.02, 48.91 1.53 M1.1 54.53 C17.77 35.43, 32.38 17.2, 46.83 0.55 M0.67 60.37 C13.68 48.07, 24.93 32.29, 51.23 -0.05 M0.07 61.86 C13.65 44.97, 28.09 28.68, 53.42 0.15 M1.38 65.39 C23.07 42.07, 45.97 12.93, 57.79 0.44 M0.15 65.75 C10.91 53.08, 22.95 38.88, 57.49 0.48 M3.78 67.78 C20.48 48.35, 37.91 28.13, 63.81 -0.88 M5.75 67.89 C19 52.07, 30.05 36.82, 63.6 0.54 M11.06 67.99 C24.09 52.05, 34.85 41.33, 68.61 -1.32 M10.8 66.94 C30.08 43.53, 50.21 20.99, 69.52 0.89 M14.75 68 C36.86 46.38, 56.58 22.23, 73.02 0.28 M16.23 66.57 C38.52 40.02, 61.43 13.02, 74.46 -0.41 M22.91 65.23 C43.11 40.39, 65.62 13.1, 78.23 -0.61 M20.88 67.45 C40.57 44.35, 60.48 21.66, 78.7 0.37 M26.94 68.46 C46.73 39.98, 68.8 15.84, 83.15 1.69 M27.19 67.41 C44.57 45.82, 60.98 26.55, 85.83 0.61 M30.98 65.62 C53.49 41.72, 77.89 12.93, 91.33 -1.09 M31.36 67.44 C44.71 52.87, 56.79 39.34, 90.4 -0.57 M38.78 67.75 C50.97 51.86, 63.97 31.94, 96.29 0.76 M37.1 67.78 C59.35 40.58, 80.71 16.88, 96.12 -0.22 M43.1 64.81 C55.41 49.78, 68.4 37.47, 100.41 -1.23 M43.77 65.98 C60.12 46.24, 77.3 26.01, 101.57 0.46 M48.52 65.63 C65.17 48.6, 79.03 28.56, 104.32 -1.87 M48.07 66.96 C65.4 47.01, 82.7 28.42, 106.35 0.21 M52.91 65.7 C67.01 49.58, 82.61 32.73, 109.77 1.66 M54.25 67.05 C68.66 50.06, 82.43 34.19, 110.79 -0.23 M58.21 67.09 C70.4 53.87, 82.71 39.26, 116.32 2.34 M57.78 66.12 C75.7 46.39, 90.78 27.75, 115.46 0.68 M63.87 66.31 C86.2 41.4, 106.27 15.3, 123.53 -0.51 M63.53 65.55 C84.61 42.64, 105.88 18.28, 122.19 -0.42 M69.71 66.24 C86.83 44.65, 103.97 25.63, 125.11 -1.12 M69.5 66.37 C82.18 54.14, 93.43 39.31, 126.97 0.58 M72.62 68.66 C92.42 44.55, 111 26.53, 133.62 1.35 M74.28 68.02 C87.98 51.64, 103.31 35.92, 133.53 0.01 M80.72 66.45 C94.7 52.98, 104.87 36.38, 134.13 4.72 M80.1 66.7 C94.16 49.45, 108.16 32.68, 131.76 6.55 M83.54 67.67 C96.82 52.64, 110.67 35.22, 132.64 14.33 M85.73 67.66 C103.3 46.67, 122.55 24.02, 132.99 11.91 M88.71 68.21 C106.57 51.16, 119.39 31.1, 130.53 17.23 M90.05 66.01 C103.47 52.64, 117.4 37.44, 133.22 19.3 M96.87 67.69 C106.65 54.16, 118.05 43.36, 131.94 24.31 M95.73 66.81 C102.21 58.46, 110.63 50.22, 131.32 25.65 M103.01 65.26 C108.02 56.06, 117.75 48.04, 132.51 30.91 M101.4 67.11 C110.58 55.65, 120.72 44.31, 132.57 30.44 M107.34 67.54 C114.16 56.02, 123.02 48.1, 134.24 36.7 M105.38 68 C116.05 56.7, 124.4 46.66, 132.38 37.8 M112.72 68.47 C118.28 62.47, 122.34 56.51, 130.2 42.28 M111.81 66.71 C117.29 58.97, 124.12 51.77, 131.75 43.27 M115.46 65.2 C119.01 60.37, 126.02 58.55, 130.71 49.33 M116.39 66.64 C119.61 62.59, 124.22 58.33, 132.3 48.12 M122.66 66.1 C124.11 63.67, 126.66 62.4, 133.16 56.37 M122.48 67.23 C124.89 63.17, 126.83 60.6, 131.45 55.6 M127.42 66.51 C129.16 65.4, 130.21 64.41, 132.48 61.03 M127.21 66.99 C128.71 65.74, 129.45 63.61, 132.65 60.65" stroke="#ced4da" stroke-width="0.5" fill="none"></path><path d="M-1.93 1.24 C45.85 0.43, 92.62 -2.65, 132.18 -1.09 M0.8 -0.66 C48.06 0.58, 96.42 0.52, 132.17 -0.34 M131.58 -1.45 C133.77 21.79, 130.96 40.42, 132.42 65.38 M131.18 -0.56 C132.09 26.72, 131.78 52.8, 131.3 66.36 M130.79 64.64 C107.17 68.57, 78.96 65.55, 0.92 65.63 M131.65 65.96 C91.43 66.81, 51.51 68.46, -0.01 66.05 M-0.38 67.2 C-0.95 49.62, 0.47 37.38, -0.34 1.43 M-0.36 66.62 C0.21 46.92, -0.19 27.05, -0.95 0.54" stroke="#000000" stroke-width="1" fill="none"></path></g><g transform="translate(41.12109375 154.17578125) rotate(0 33 12.5)"><text x="0" y="18" font-family="Virgil, Segoe UI Emoji" font-size="20px" fill="#000000" text-anchor="start" style="white-space: pre;" direction="ltr">Source</text></g><g stroke-linecap="round"><g transform="translate(133.5435165983531 79.35277200884661) rotate(0 -26.804034977764843 27.463401030288082)"><path d="M0.75 0.03 C-8.38 9.54, -44.45 46.71, -53.85 55.93 M-0.32 -1.01 C-9.61 8.26, -45.52 44.51, -54.35 54.13" stroke="#000000" stroke-width="1" fill="none"></path></g></g><g stroke-linecap="round"><g transform="translate(226.2199381880464 140.8885905999084) rotate(0 -45.50506891817321 -29.921361904591322)"><path d="M0.03 0.86 C-14.85 -9.38, -75.24 -50.5, -90.4 -60.7 M-1.42 0.26 C-16.3 -9.93, -75.98 -49.74, -91.04 -59.68" stroke="#000000" stroke-width="1" fill="none"></path></g></g><g stroke-linecap="round" transform="translate(160.21484375 138.8125) rotate(0 66.0703125 33.267578125)"><path d="M0 0 C0 0, 0 0, 0 0 M0 0 C0 0, 0 0, 0 0 M0.35 6.31 C1.01 5.41, 2.19 3.07, 5.61 0.1 M0.12 6.44 C1.1 4.52, 2.91 2.63, 5.32 0.52 M-0.93 11.4 C2.22 6.92, 6.08 4.17, 9.36 0.45 M-0.41 12.76 C1.63 8.79, 4.69 6.22, 10.36 0.61 M-0.78 17.66 C3.64 11.39, 10.09 6.36, 14.58 0.18 M-0.84 18.14 C3.83 13.52, 7.86 9.2, 15.05 -0.64 M0.77 23.1 C7.14 16.52, 14.96 8.93, 19.54 -1.12 M0.44 24.27 C9.04 14.51, 17.1 4.62, 20.61 -0.12 M0.4 31.21 C8.59 17.45, 20.81 7.64, 28.14 -0.14 M0.86 30.31 C5.81 22.53, 10.99 16.72, 26.88 1.08 M-1.46 36.19 C12.19 21.73, 25.35 8.07, 33.87 0.98 M0.44 36.82 C12.43 24.53, 23.11 10.02, 31.3 -0.9 M1.21 42.94 C10.53 30.6, 20.62 21.31, 38.3 -1.29 M0.58 42.34 C13.2 28.04, 25 12.72, 36.51 -0.39 M-1.78 47.21 C12.07 32.59, 27.6 16.76, 44.5 -0.07 M-0.91 49.64 C13.03 34.69, 25.37 19.17, 42.59 -0.18 M-0.14 56.17 C19.36 35.52, 36.51 12.55, 47.91 1.87 M-0.34 54.52 C13.1 38.95, 27.14 21.82, 46.7 0.55 M-0.22 60.33 C12.19 44.3, 27.9 28.69, 53.7 -0.04 M-0.38 61.94 C21.27 37.06, 42.68 12.76, 53.31 0.32 M0.38 65.38 C13.92 50.47, 26.09 35.24, 59.66 -0.31 M0.06 66.01 C12.69 52.47, 25.58 38.1, 57.84 -0.62 M4.9 66.08 C25.77 43.31, 43.92 20.24, 65.56 0.5 M4.79 66.06 C27.57 41.35, 49.73 14.29, 62.87 -0.2 M11.1 68.17 C31.89 40.85, 54.39 19.48, 68.04 -0.32 M10.8 66.8 C31.53 45.01, 50.58 21.77, 67.87 -0.48 M17.82 66.23 C34.79 43.36, 58.76 21.08, 73.98 0.18 M15.68 66.28 C31.53 49.21, 47.81 32.61, 75.3 0.38 M21.16 65.49 C34.21 50.12, 49.61 37, 79.37 -1.44 M22.54 65.96 C43.43 40.79, 67.41 13.75, 80.36 0.26 M25.34 65.79 C47.48 43.94, 71.38 14.63, 86.67 0.8 M25.73 66.82 C48 44.56, 68.68 19.59, 85.18 -0.93 M32.05 65.39 C48.99 47.91, 60.61 32.53, 91.75 -1.78 M33 67.37 C55 39.33, 76.8 13.54, 90.47 0.84 M35.34 64.9 C58.25 44.34, 79.25 21.23, 97.16 -0.66 M37.21 67.77 C60.28 40.97, 81.95 15.08, 95.73 -0.23 M43.02 67.11 C55.25 51.27, 68.12 38.74, 99.11 1.75 M42.51 65.83 C58.41 50.5, 71.69 33.27, 100.93 0.35 M47.49 64.9 C59.49 49.14, 75.34 32.51, 104.78 -0.02 M48 67.13 C66.37 46.75, 84.02 25.86, 106.73 -0.67 M55.16 65.08 C67.25 50.74, 82.92 31.95, 111.21 1.41 M53.98 67.03 C73.35 42.1, 93.93 17.43, 112.1 -0.15 M57.29 68.31 C77.13 47.32, 95.06 25.3, 118.03 -1.15 M57.56 66.79 C70.74 51.96, 85.77 36.8, 115.91 0.22 M63.38 64.92 C82.63 46.33, 99.24 27.89, 121.59 -1.32 M64.92 65.58 C76.87 51.75, 89.16 37.68, 121.89 0.25 M68.05 66.83 C83.34 47.51, 99.15 29.67, 125.17 0.99 M68.94 66.57 C83.96 49.18, 99.07 32.45, 127.57 -0.43 M75.73 68.17 C96.96 43.61, 116.71 15.01, 131.63 0.19 M74.78 67.75 C98.47 40.74, 119.74 13.67, 131.84 0.4 M78.88 65.38 C96.16 47.67, 108.86 30.68, 133.09 6.94 M78.81 66.19 C95.22 49.16, 111.19 30.87, 131.37 5.72 M84.05 65.34 C101.31 50.68, 118.08 31.39, 131.35 14.62 M85.58 66.44 C102.62 46.48, 119.17 27.3, 131.91 11.88 M88.71 66.02 C104.18 46.95, 122.05 29.68, 132.36 17.62 M91.4 67.26 C100.97 56.03, 109.92 43.88, 131.48 19.11 M96.02 68.35 C107.36 52.64, 117.86 40.64, 133.56 25.4 M95.96 67.74 C104.9 56.11, 115.64 43.01, 132.63 25.75 M100.28 68.04 C108.61 58.88, 116.24 49.03, 132.63 31.11 M100.55 67.31 C112.2 53.99, 123.31 40.87, 131.92 31.07 M105.78 67.56 C116.65 57.21, 124.38 47.71, 130.39 35.49 M105.78 67.87 C116.39 55.9, 126.23 42.15, 131.65 37.34 M112.16 67.89 C117.68 56.34, 127.51 46.48, 131.47 43.47 M111.7 65.78 C117.86 59.56, 124.22 52.59, 131.38 42.61 M117.31 68.53 C118.48 63.74, 121.83 60.72, 130.48 48.29 M117.55 65.98 C120.81 61.5, 124.18 57.16, 132.88 49.09 M122.62 67.07 C125.98 64.69, 126.86 61.45, 130.69 55.57 M121.99 66.15 C125.38 62.65, 129.44 58.51, 132.88 55.36 M127.73 67.36 C128.48 65.58, 129.41 64.37, 133.24 60.7 M126.91 66.61 C129.01 64.76, 130.7 63.38, 132.25 61.1" stroke="#ced4da" stroke-width="0.5" fill="none"></path><path d="M1 -1.66 C47.89 -2.04, 97.02 -0.64, 132.55 1.61 M-0.31 0.79 C31.01 -1.47, 62.1 -1.49, 131.61 -0.28 M131.2 -1.42 C133.04 13.97, 134.76 29.24, 130.36 64.61 M132.12 -0.42 C131.49 16.09, 131.35 32.06, 132.83 65.86 M132.33 64.64 C105.94 66.37, 77.94 67.44, 1.41 65.56 M131.55 67.53 C100.08 65.18, 67.33 65.49, -0.53 66.34 M0.36 68.01 C0.01 45.8, 0.37 21.93, -1.54 -0.71 M-0.29 67.12 C-1.04 46.57, 0.66 24.64, -0.75 -0.87" stroke="#000000" stroke-width="1" fill="none"></path></g><g transform="translate(193.28515625 159.580078125) rotate(0 33 12.5)"><text x="33" y="18" font-family="Virgil, Segoe UI Emoji" font-size="20px" fill="#000000" text-anchor="middle" style="white-space: pre;" direction="ltr">Source</text></g><g stroke-linecap="round"><g transform="translate(281.412109375 89.09288204118138) rotate(0 70.00447006755974 0.21260448245567432)"><path d="M0.55 0.91 C23.96 1.03, 117.4 -0.48, 140.63 -0.49 M-0.63 0.35 C22.59 0.68, 115.7 0.18, 139.53 0.51" stroke="#000000" stroke-width="1" fill="none"></path></g><g transform="translate(281.412109375 89.09288204118138) rotate(0 70.00447006755974 0.21260448245567432)"><path d="M112.83 10.18 C118.53 5.78, 129.59 3.49, 138.34 -0.79 M111 9.87 C121.01 6.6, 130.02 3.69, 139.09 0.52" stroke="#000000" stroke-width="1" fill="none"></path></g><g transform="translate(281.412109375 89.09288204118138) rotate(0 70.00447006755974 0.21260448245567432)"><path d="M112.89 -10.34 C118.37 -8.32, 129.41 -4.19, 138.34 -0.79 M111.07 -10.65 C121.02 -7.17, 130.01 -3.34, 139.09 0.52" stroke="#000000" stroke-width="1" fill="none"></path></g></g><g transform="translate(285.341796875 43.46397579118138) rotate(0 62.5 12.5)"><text x="0" y="18" font-family="Virgil, Segoe UI Emoji" font-size="20px" fill="#000000" text-anchor="start" style="white-space: pre;" direction="ltr">Same Source</text></g><g stroke-linecap="round" transform="translate(504.38671875 10) rotate(0 66.0703125 33.267578125)"><path d="M0 0 C0 0, 0 0, 0 0 M0 0 C0 0, 0 0, 0 0 M-0.02 6.38 C0.82 4.38, 1.88 2.62, 4.57 0.52 M-0.51 6.51 C0.96 4.83, 2.55 2.7, 5.11 0.68 M1.64 12.96 C4.32 8.49, 9.62 1.59, 12.18 -1.36 M-0.55 12.65 C4.27 8.45, 7.11 3.04, 9.87 -0.5 M-0.9 17.08 C4.77 14.57, 11.55 8.4, 17.21 2.15 M0.6 18.76 C4.7 12.88, 9.61 8.38, 15.51 0.09 M0.88 23.61 C3.61 19.6, 9.72 15.45, 19.58 1.66 M1.24 23.38 C5.22 17.11, 11.52 11.44, 21.24 0.18 M0.69 31.39 C7.18 21.89, 15.79 12.64, 26.29 0.32 M0.65 30.74 C8.41 20.16, 17.11 11.3, 27.22 0.23 M-1.59 38.86 C12.55 24.38, 22.02 12.62, 32.06 1.85 M0.26 37.8 C8.63 28.72, 16.07 19.52, 30.97 -0.58 M0.38 42.71 C10.11 28.58, 22.6 15.54, 36.31 0.35 M-0.47 41.63 C9.24 30.16, 20.77 20.01, 36.02 0.49 M-0.7 48.25 C8.05 37.49, 19.68 26.2, 42.26 -1.63 M0.1 48.6 C8.54 38.34, 17.61 29.02, 43.19 0.6 M0.69 56.28 C12.2 39.64, 22.62 26.78, 45.61 1.13 M0.41 54.02 C12.02 40.99, 23.12 28.49, 47.41 0.38 M-0.5 61.2 C13.47 47.15, 23.76 28.89, 53.6 -1.46 M0.49 61.16 C17.29 40.64, 35.69 19.72, 53.07 0.76 M-0.73 65.16 C18.66 44.04, 41.72 21.77, 57.7 -0.6 M1.35 66.09 C14.24 48.47, 29.33 32.2, 58.79 0 M6.01 66.13 C29.64 38.75, 51.56 14.11, 64.7 1.47 M4.96 66.68 C20.71 47.47, 38.07 28.06, 64.74 0.55 M11.51 66.14 C30.96 45.04, 51.92 19.94, 69.31 1.66 M11.85 67.55 C29.5 46.25, 47.37 24.46, 69.46 0.06 M17.79 67.31 C35.18 45.47, 50.56 25.86, 73.35 -1.91 M15.67 66.98 C36.26 44.1, 57.56 21.39, 75.19 0.23 M22.95 67.98 C35.72 51.33, 51.53 34.71, 78.32 0.26 M21.28 65.83 C42.68 41.63, 65.38 17.04, 78.65 -0.16 M25.76 68.88 C46.32 46.85, 62.02 24.06, 84.56 -0.86 M27.49 66.51 C43.8 46.05, 60.58 26.21, 84.36 -0.38 M32.83 67.18 C54.83 40.73, 76.12 15.67, 91.83 1.34 M32.44 65.9 C53.02 42.12, 75.99 16.5, 89.47 -0.76 M39.24 66.71 C50.32 51.97, 65.12 35.92, 94.49 -0.82 M36.4 66.29 C57.88 44.39, 80.3 18.77, 95.06 0.17 M43.6 68.03 C60.26 47.75, 74.56 28.9, 102.1 0.87 M43.04 66.33 C64.25 41.73, 86.52 18.33, 100.96 0.73 M48.75 66.54 C70.57 39.68, 93.85 11.41, 106.53 0.58 M48.31 65.93 C59.77 52.51, 72.05 38.94, 107.03 -1.1 M52.85 66.66 C69.07 47.72, 88.48 26.74, 110.6 0.62 M53.68 67.25 C65.51 52.69, 78.81 39.24, 112.04 -0.61 M58 67.89 C80.22 38.96, 104.29 12.63, 114.55 2.27 M59.02 67.62 C80.96 42.05, 102.33 16.37, 116.25 1.19 M65.39 66.99 C83.51 45.59, 103.06 20.37, 119.97 0.18 M63.86 66.43 C80.88 47.81, 96.96 28.35, 121.56 0.88 M67.9 68.08 C88.01 47.58, 103.57 26.52, 125.63 0.74 M68.25 66.15 C86.14 47.46, 102.02 26.26, 127.57 -0.26 M72.57 65.52 C93.61 43.03, 112.95 24.06, 134.04 0.95 M73.36 67.95 C93.65 43.72, 114.47 19.86, 132.26 -0.54 M80.52 66.28 C99.29 46.08, 115.9 21.98, 130.77 4.59 M79.62 66.91 C91.15 53.87, 102.41 41.95, 131.54 7.15 M82.87 68.31 C100.99 47.4, 120.49 24.72, 130.69 10.96 M84.81 67.23 C101.2 49.77, 116.83 32.17, 131.65 12.83 M91.15 67.44 C105.24 49.93, 125.05 27.54, 134.11 19.42 M90.67 65.88 C98.58 56.26, 109.34 45.91, 131.51 18.82 M93.99 67.47 C109.67 51.09, 125.57 35.56, 131.94 25.67 M95.78 67.56 C105.42 54.69, 117.34 42.92, 132.09 24.84 M100.23 66.33 C114.51 51.75, 126.81 37.06, 132.18 28.64 M100.82 67.63 C111.27 55.95, 122.6 42.67, 133 29.71 M107.51 66.19 C110.56 58.78, 116.72 52.43, 132.52 36.66 M105.41 67.06 C111.93 60.14, 119.93 51.05, 131.38 36.29 M113.42 67.55 C120.51 58.71, 129.07 47.39, 130.83 42.25 M111.42 67.34 C118.46 58.09, 127.51 50.04, 132.52 43.17 M116.14 67.45 C123.33 58.19, 127.44 51.82, 133.03 48.57 M115.75 67.45 C119.94 62.61, 125.28 57.4, 131.92 49.82 M121.74 65.76 C125.21 62.16, 130.86 57.04, 132.82 55.65 M121.86 66.72 C125.05 63.58, 126.55 61.05, 131.62 55.71 M127.52 66.59 C128.66 65.52, 131.43 62.81, 132.03 60.5 M127.48 66.57 C129.28 64.63, 131.14 62.38, 132.32 60.81" stroke="#ced4da" stroke-width="0.5" fill="none"></path><path d="M1.4 1.25 C34.57 0.12, 66.22 1.25, 131.14 -0.49 M-0.17 0.15 C27.87 -0.15, 56.25 -0.31, 132.16 0.98 M130.62 -1.33 C133.81 18.05, 130.46 38.61, 130.52 67.14 M131.98 -0.04 C132.96 24.81, 132.17 49.18, 132.95 66.29 M130.84 64.85 C85.12 66.01, 39.31 64.69, 0.54 65.73 M132.41 66.28 C90.96 65.74, 49.57 66.53, -0.9 65.81 M0.65 65.77 C1.52 54.15, -0.1 38.36, 0.13 0.48 M-0.77 67.31 C-0.13 45.33, 0.19 26.19, 0.54 0.7" stroke="#000000" stroke-width="1" fill="none"></path></g><g transform="translate(550.95703125 30.767578125) rotate(0 19.5 12.5)"><text x="19.5" y="18" font-family="Virgil, Segoe UI Emoji" font-size="20px" fill="#000000" text-anchor="middle" style="white-space: pre;" direction="ltr">Join</text></g><g stroke-linecap="round" transform="translate(511.56640625 223.16015625) rotate(0 66.0703125 33.267578125)"><path d="M0 0 C0 0, 0 0, 0 0 M0 0 C0 0, 0 0, 0 0 M-0.67 6.07 C0.71 3.92, 2.87 2.46, 4.84 0.28 M-0.52 6.48 C0.72 4.78, 2.09 4.18, 5.35 0.4 M0.22 13.19 C4.09 7.74, 7.16 4.22, 11.62 -0.96 M0.4 12.81 C2.57 8.21, 5.53 4.53, 10.7 -0.14 M-0.11 20.16 C6.55 14.31, 10.89 9.62, 15.61 0.3 M-0.02 18.16 C3.29 15.3, 6.13 10.67, 14.66 1.11 M-0.48 24.68 C9.03 16.58, 14.04 7.99, 20.74 -1.18 M-0.67 23.83 C6.93 16.54, 14.59 7.7, 21.43 -0.58 M-1.3 31.48 C6.86 22.5, 15.9 12.03, 26.75 -0.9 M-0.29 29.81 C5.89 23.53, 13.21 16.05, 26.8 0.4 M1.16 37.22 C6.05 30.7, 13.35 23.34, 30.81 -1.57 M0.45 37.62 C7.38 28.49, 13.82 18.65, 31.9 -0.91 M-1.28 41.18 C10.1 29.32, 19.51 19.58, 36.44 0.87 M-0.86 41.68 C9.34 33.7, 16.79 23.23, 36.03 0.89 M-0.83 47.64 C10.41 37.12, 17.07 27.66, 40.6 -0.66 M-0.29 48.55 C14.68 32.45, 29.87 15.93, 42.01 0.46 M0.74 52.73 C8.82 42.04, 17.34 33.12, 46.32 1.74 M1.07 54.52 C19.4 33.86, 37.45 12, 46.96 0.72 M0.75 62.58 C18.64 35.7, 41.53 12.54, 53.83 1.07 M-0.07 60.65 C12.19 46.33, 23.43 34.41, 53.59 -0.27 M-1.29 67.4 C24.56 42.78, 44.9 14.97, 57.18 1.62 M0.16 65.63 C21.6 41.63, 43.47 17.19, 59.09 -0.35 M6.21 65.65 C26.06 43.4, 48.52 20.09, 63.38 0.97 M4.76 66.74 C28.34 40.69, 51.18 16.65, 64.35 -0.32 M10.28 68.2 C22.37 53.24, 35.22 40.82, 69.01 0.26 M11.51 66.86 C27.03 46.6, 43.59 28.64, 68.84 1.01 M17.78 66.38 C34.5 44.43, 54.14 19.39, 75.35 -1.82 M15.48 67.31 C33.47 48.66, 50.43 28.96, 73.91 -0.29 M21.28 68.11 C41.66 45.33, 58.94 21.65, 80.99 1.22 M21.12 66.81 C39 48.46, 54.87 27.9, 79.55 -0.27 M27.65 68.08 C43.37 45.03, 62.72 24.03, 85 1.67 M27.05 66.44 C47.19 42.32, 68.04 17.97, 85.79 -0.21 M33.24 65.83 C52.27 42.97, 73.02 22.57, 91.49 -0.14 M31.39 66.56 C46.5 50.22, 59.22 34.27, 89.44 0.34 M36.44 67.89 C51.51 50.8, 65.44 31.9, 96.8 -1.79 M36.57 67.78 C50.8 52.6, 61.33 39.99, 95.43 0.49 M44.86 65.9 C58.54 47.05, 75.21 31.09, 102.07 -0.63 M42.63 65.83 C55.76 52.95, 67.79 38.87, 101.64 0.96 M47.94 66.74 C68.38 41.5, 89.23 20.23, 104.39 0.38 M48.06 66.58 C68.87 43.42, 89.86 18.88, 106.17 -1.01 M52.05 66.64 C70.8 46.62, 84.5 30.85, 109.45 -1.25 M53.06 66.91 C75.43 42.47, 96.56 16.62, 112.2 -0.68 M57.14 65.36 C80.05 40.26, 99.53 19.45, 117.96 -0.66 M58.42 67.68 C75.67 45.91, 94.96 24.85, 116.61 -0.19 M63.88 68.22 C85.89 39.54, 106.04 15.56, 121.58 0.78 M64.79 66.67 C82.58 45.47, 99.73 26.21, 122.08 0.7 M70.24 68.31 C82.67 50.96, 97.72 32.95, 126.84 1.8 M69.5 67.51 C89.69 42.41, 112.09 18.6, 127.2 -0.22 M73.98 65.34 C93.76 46.93, 114.51 24.5, 133.57 0.1 M73.2 67.36 C92.2 45.74, 110.68 24.43, 133.12 0.02 M80.58 67.97 C97.11 43.83, 115.85 21.62, 130.33 4.57 M80.01 66.1 C96.88 47.75, 111.35 30.39, 133.1 6.65 M83.12 68.27 C100.44 48.4, 114.64 29.74, 132.56 11.97 M85.54 67.54 C99.91 51.31, 112.77 34.46, 132.94 12.61 M88.73 68.51 C101.23 54.18, 110.53 46.19, 130.82 19.48 M89.6 67.07 C105.29 51.25, 117.99 34.57, 133.28 17.95 M95.28 67.35 C107.57 56.26, 116.05 44.22, 131.87 25.03 M94.99 66.63 C106.07 55.46, 114.81 44.35, 133.01 24.96 M102.43 65.92 C114.29 51.97, 123.92 38.37, 133.17 30.15 M100.81 67.63 C108.27 58.59, 114.52 50.76, 131.86 29.8 M104.31 65.98 C114.47 54.9, 126.6 43.32, 131.51 38.11 M105.29 67.9 C113.41 58.86, 118.91 50.86, 133.26 37.51 M112.61 68.02 C119.28 58.54, 123.05 50.87, 133.47 44.79 M111.08 66.6 C116.77 62.34, 120.52 56.89, 132.96 43.67 M117.23 65.38 C120.7 59.76, 128.31 54.02, 131.34 49.07 M116.09 67.19 C123.75 59.43, 128.38 54.01, 133.15 49.55 M121.62 66.45 C127.31 61.39, 130.36 58.59, 131.29 55.2 M122.67 66.42 C125.77 62.11, 129.68 58.01, 132.46 55.35 M126.88 67.59 C129.59 64.96, 130.23 62.57, 133.3 60.38 M127.17 66.95 C128.02 65.89, 129.2 64.41, 132.77 60.52" stroke="#ced4da" stroke-width="0.5" fill="none"></path><path d="M1.88 0.07 C39.97 0.37, 77.25 -1.31, 130.44 -1.7 M-0.56 0.92 C49.7 0.56, 100.66 0.79, 132.04 0.43 M133.53 -1.25 C129.67 25.79, 130.01 52.18, 133.64 67.81 M132.53 -0.15 C131.64 16.79, 132.84 34.82, 132.71 66.9 M132.27 66.23 C96.11 63.79, 57.69 64.62, 0.21 66.26 M131.97 65.78 C92.34 66.24, 52.76 65.47, -0.91 66 M1.17 68.06 C-0.67 51.98, -0.09 38.63, 0.14 1.79 M0.46 65.76 C1.3 42.7, 1.05 18.5, -0.61 -0.92" stroke="#000000" stroke-width="1" fill="none"></path></g><g transform="translate(542.6875 239.66015625) rotate(0 33 12.5)"><text x="0" y="18" font-family="Virgil, Segoe UI Emoji" font-size="20px" fill="#000000" text-anchor="start" style="white-space: pre;" direction="ltr">Source</text></g><g stroke-linecap="round"><g transform="translate(565.0903915983531 75.36058450884661) rotate(0 -11.724470862750877 26.920303249815447)"><path d="M0.04 0.51 C-3.9 9.13, -18.92 44.23, -22.92 52.89 M-1.4 -0.27 C-5.5 9.02, -19.58 45.19, -23.49 54.12" stroke="#000000" stroke-width="1" fill="none"></path></g></g><g stroke-linecap="round"><g transform="translate(596.2121256880464 130.0096843499084) rotate(0 -14.950641637295462 -26.12716139033438)"><path d="M0.51 0.72 C-4.75 -8.12, -25.19 -43.9, -30.41 -52.97 M-0.69 0.05 C-5.64 -8.61, -23.38 -42.76, -28.01 -51.59" stroke="#000000" stroke-width="1" fill="none"></path></g></g><g stroke-linecap="round" transform="translate(511.580078125 130.314453125) rotate(0 66.0703125 33.267578125)"><path d="M0 0 C0 0, 0 0, 0 0 M0 0 C0 0, 0 0, 0 0 M-0.93 7.18 C1.53 4.18, 3.33 2.22, 4.25 0.6 M0.07 6.21 C0.75 4.86, 2.23 3.34, 4.72 0.27 M1.68 11.34 C4.34 8.21, 7.73 5.94, 10.98 0.32 M0.04 11.84 C3.88 7.31, 8.58 2.58, 11.13 -0.78 M-1.87 18.09 C3.83 11.86, 9.23 3.62, 14.92 1.14 M0.77 18.23 C3.64 13.53, 8.22 8.91, 16.23 1.17 M-0.56 23.34 C3.98 19.4, 8.38 13.6, 21.04 1.04 M1.23 23.88 C5.35 18.09, 11.97 11.51, 22.03 -0.12 M0.93 32.09 C11.49 17.07, 20.58 5.2, 26.63 1.83 M-0.76 29.69 C10.21 18.72, 17.69 9.49, 25.34 -0.61 M-0.01 37.06 C8.93 24.15, 22.77 12.06, 33.12 0.9 M-0.43 37.75 C6.2 28.79, 12.17 21.91, 32.84 0.83 M-1.38 42.69 C14.27 27.3, 25.36 12.51, 37.06 -0.76 M0.88 41.54 C11.95 29.19, 24.88 14.49, 36.95 0.36 M1.6 49.26 C14.29 32.37, 31.26 15.05, 43.5 1.28 M0.75 48.33 C9.06 39.33, 17.79 27.94, 42.02 -0.84 M1.17 53.46 C9.91 44.52, 18.74 34, 48.84 -1.23 M1.16 53.9 C9.95 44.02, 19.51 32.94, 47.97 -0.44 M-0.04 60.34 C18.22 39.41, 37.11 16.08, 54.22 -1.34 M0.17 60.71 C11.97 46.23, 24.4 32.85, 52.53 -0.96 M0.34 67.13 C21.22 42.97, 39.66 24.61, 56.39 -1 M0.15 65.84 C17.38 45.95, 34.94 27.25, 58.89 0.35 M4.52 65.11 C23.71 45.5, 40.06 26.75, 65.11 0.75 M4.68 67.11 C18.33 52.36, 30.45 37.27, 63.91 -0.47 M12.23 65.57 C24.51 49.66, 41.66 33.66, 69.97 -0.29 M11.02 67.2 C25.83 49.54, 42.72 31.44, 67.8 0.01 M15.27 65.59 C28.17 50.15, 42.13 37.28, 73.82 -1.62 M15.5 67.67 C34.98 44.37, 52.48 23.16, 74.3 0.62 M21.72 65.96 C36.43 52.87, 49.76 33.83, 79.62 1.85 M22.53 66.94 C43.61 41.42, 67.54 14.99, 80.39 -0.28 M26.76 67.03 C51.24 42.2, 70.55 13.67, 83.81 1.63 M26.2 66.49 C42.2 48.26, 59.05 30.67, 84.43 -0.81 M34.05 64.6 C51.88 45.86, 69.22 23.2, 91.21 -0.42 M32.53 66.82 C49.57 47.29, 66.53 26.99, 89.92 0.57 M38.61 65.82 C57.86 42.66, 78.72 19.97, 96.36 -0.27 M37.16 67.55 C58.97 41.28, 83.74 13.82, 95.62 -0.95 M44.22 64.99 C62.44 43.84, 78.07 23.8, 102.43 0.22 M43.49 65.49 C58.28 48.09, 73.45 30.89, 101.27 -0.43 M46.26 67.54 C64.7 45.34, 84.26 26.76, 106.56 1.12 M48.39 66.7 C59.9 53.05, 73.5 38.43, 105.79 -1.12 M53.08 65.81 C73.6 44.19, 95.04 17.92, 110.76 0.31 M54.43 66.53 C70.33 47.27, 87.17 26.22, 110.91 -0.39 M56.94 66.98 C75.86 44.65, 93.84 24.92, 114.64 2.15 M59.48 67.73 C69.46 53.86, 81.85 39.57, 116.79 1.05 M63.28 64.91 C84.86 39.93, 108.94 17.51, 121.52 1.55 M64.99 66.44 C79.19 49.5, 94.17 33.97, 122.89 -0.5 M69.7 68.08 C87.74 46.49, 104.82 27.53, 128.63 0.13 M69.62 66.32 C86.48 46.29, 104.42 26.12, 127.04 0.57 M74.62 68.12 C86.07 53.39, 98.75 36.33, 131.82 -1.17 M74.76 67.34 C91.83 46.33, 108.41 25.48, 132.87 -0.04 M79.43 68 C92.87 52.74, 106.23 35.83, 131.16 7.84 M79.56 66.07 C99.2 42.33, 118.46 20.62, 132.34 5.64 M86.69 66.16 C102.14 46.58, 120.37 25.78, 131.43 13.08 M83.86 68.02 C98.51 49.78, 114.18 32.8, 132.94 12.44 M88.8 65.08 C107.15 49.15, 122.87 28.46, 132.55 18.46 M89.7 66.46 C102.66 51.77, 115.73 37.28, 132.97 18.58 M94.92 67.22 C110.2 49.54, 123.73 33.5, 132.92 23.98 M95.05 66.44 C103.46 57.48, 111.6 47.51, 131.74 23.88 M100.3 66.83 C105.7 57.82, 112.76 51.14, 134.21 30.31 M101.99 66.9 C112.41 53.39, 124.06 40.64, 133.08 30.6 M105.21 65.9 C111.87 59.68, 115.3 55.19, 132.18 38.74 M106.36 66.71 C112.25 59.39, 119.51 51.18, 133.05 37.48 M112.24 65.97 C117.47 59.91, 123.32 54.9, 133.44 43.71 M111.99 66.71 C119.28 58.54, 127.82 47.84, 131.48 42.58 M117.27 68.02 C124.3 60.58, 130.01 54.07, 133.58 49.02 M116.37 67.82 C122.2 60.48, 128.78 52.31, 132.9 49.56 M122.64 67.93 C123.39 63.57, 126.82 61.26, 131.54 55.73 M122.71 66.96 C124.8 63.32, 127.65 60.17, 131.71 55.86 M127.83 66.79 C129.09 65.31, 130.72 61.84, 132.85 60.4 M127.7 67.25 C128.5 66.03, 129.17 64.11, 132.7 60.7" stroke="#ced4da" stroke-width="0.5" fill="none"></path><path d="M0.9 0.61 C31.17 -1.39, 64.26 -0.89, 132.2 0.5 M0.8 0.05 C32.89 -1.46, 64.71 -0.64, 131.83 0.08 M131.31 1.75 C133.81 18.57, 133.18 40.25, 131.6 65.34 M133.07 0.05 C131.61 25.21, 132.06 52.97, 131.21 67.08 M131.97 67.82 C90.14 66.26, 45.73 65.97, 0.26 66 M131.39 67.08 C82.51 68.03, 31.61 67.74, -0.05 65.66 M-1.19 65.85 C-1.28 50.82, 0.04 37.68, 1.93 1.88 M0.74 66.62 C-0.3 48.65, 0.26 30.64, -0.48 0.26" stroke="#000000" stroke-width="1" fill="none"></path></g><g transform="translate(549.150390625 151.08203125) rotate(0 28.5 12.5)"><text x="28.5" y="18" font-family="Virgil, Segoe UI Emoji" font-size="20px" fill="#000000" text-anchor="middle" style="white-space: pre;" direction="ltr">Share</text></g><g stroke-linecap="round"><g transform="translate(577.2186114877511 194.41172800018444) rotate(0 -0.8673104593281096 16.40871144555979)"><path d="M-1.12 -1.06 C-1.44 4.25, -2.24 26.99, -2.24 32.85 M0.49 0.99 C0.57 6.34, 0.34 28.11, -0.04 33.88" stroke="#000000" stroke-width="1" fill="none"></path></g></g></svg>