<svg version="1.1" xmlns="http://www.w3.org/2000/svg" viewBox="0 0 491.61328125 346.65625" width="491.61328125" height="346.65625">
  <!-- svg-source:excalidraw -->
  
  <defs>
    <style class="style-fonts">
      @font-face {
        font-family: "Virgil";
        src: url("https://excalidraw.com/Virgil.woff2");
      }
      @font-face {
        font-family: "Cascadia";
        src: url("https://excalidraw.com/Cascadia.woff2");
      }
    </style>
  </defs>
  <rect x="0" y="0" width="491.61328125" height="346.65625" fill="#ffffff"></rect><g stroke-linecap="round" transform="translate(150.0078125 163.134765625) rotate(0 66.0703125 33.267578125)"><path d="M0 0 C0 0, 0 0, 0 0 M0 0 C0 0, 0 0, 0 0 M-0.92 6.26 C2.06 4.73, 4.21 0.94, 4.4 0.28 M-0.29 6.67 C1.29 4.07, 3.02 2.76, 5.21 0.13 M-1.41 10.58 C2.7 7.51, 9.08 2.82, 9.27 1.19 M0.15 11.95 C2.9 9.33, 4.18 7.41, 10.6 0.24 M1.23 16.65 C4.36 13.99, 8.43 7.47, 15.9 -0.38 M0.5 17.97 C4.01 12.76, 9.44 8.78, 15.45 0.82 M1.46 24.76 C8.63 12.83, 17.47 3.34, 21.3 1.57 M0.31 24.69 C5.06 17.89, 10.14 11.73, 21.99 -0.07 M-1.61 31.81 C8.4 20.14, 15.34 14.22, 28.01 1.37 M0.93 31.34 C8.98 21.02, 16.62 11.91, 26.4 0.48 M-0.83 35.78 C10.95 23.5, 23.36 10.22, 32.15 -1.83 M0.12 36.65 C10.12 24.64, 21.68 12.36, 32.46 0.46 M-1.45 41.78 C9.34 33.81, 17.69 25.42, 35.64 -1.65 M0.12 42.01 C8.62 33.09, 15.51 23.39, 36.4 0 M-1.28 48.43 C8.86 36.44, 19.22 25.22, 41.37 1.64 M-0.21 48.67 C12.83 33.86, 27.54 17.96, 42.2 0.21 M-0.15 54.67 C10.69 40.68, 22.8 26.37, 45.79 -0.71 M1.18 55.4 C12.6 41.27, 24.71 27.07, 48.38 0.23 M0.68 61.96 C23.17 37.91, 42.94 11.01, 54.06 0.13 M0.45 61.46 C12.23 48.17, 25.04 32.93, 53.34 0.06 M1.64 68.36 C19.02 45.89, 38.86 21.12, 56.65 0.75 M1.1 67.52 C20.3 44.43, 38.96 22.26, 58.16 -0.4 M6.73 68.65 C22.79 45.06, 43.38 25.4, 64.48 -0.4 M6.07 66.55 C19.37 49.66, 33.98 33.17, 63.91 -0.51 M10.93 66.5 C27.75 47.37, 45.32 28.28, 69.56 -0.89 M11.28 66.9 C26.75 48.74, 41.98 30.57, 68.47 0.13 M16.5 66.6 C28.43 52.14, 41.73 37, 76.1 -0.18 M16.23 67.09 C33.02 48.13, 50.96 26.81, 73.85 0.56 M22.93 66.69 C43.08 42.55, 66.89 16.17, 81.1 -1.47 M22.03 66.82 C37.77 47.81, 53.8 28.67, 78.96 -0.55 M27.52 67.79 C43.35 47.35, 63.71 25.74, 85.55 -1.63 M26.22 67.87 C41.92 47.31, 58.96 27.75, 84.98 -0.04 M32.54 68.26 C45.6 50.25, 61.08 30.74, 91 -0.99 M32.07 67.06 C47.07 48.13, 63.03 30.76, 90.15 0.76 M37.8 65.96 C51.1 51.17, 67.71 33.16, 94.68 -1.33 M37.43 67.22 C53.48 49.27, 68.77 31.98, 95.07 -1.07 M43.84 68.36 C64.09 42.63, 82.99 18.12, 102.18 0.36 M42.01 66.03 C64.31 40.21, 88.21 14.82, 101.51 0.89 M48.51 66.67 C58.53 50.87, 71.89 37.9, 106.51 -2.08 M48.21 67.07 C62.7 48.71, 77.39 31.82, 105.75 -0.66 M54.11 65.95 C71.66 45.81, 85.53 28.78, 112.77 -1.8 M54.39 66.68 C70.24 46.58, 86.74 27.77, 111.38 0.22 M60.02 67.28 C71.6 52.71, 83.11 37.87, 116.59 -0.11 M57.77 66.95 C71.38 53.01, 85.09 38.14, 115.94 0.38 M65.82 65.81 C82.06 47.89, 100.15 27.33, 120.07 -0.05 M63.64 66.6 C77.3 50.66, 88.81 36.63, 121.04 0.76 M67.89 64.98 C82.22 52.91, 96.13 35.02, 127.64 -0.07 M68.26 65.99 C86.98 47.13, 104.5 25.3, 126.42 -0.4 M73.94 67.29 C96.89 44.72, 114.49 20.39, 132.57 0.87 M73.45 66.72 C93.03 44.7, 112.76 23.33, 132.64 0.1 M78.85 64.75 C91.53 50.95, 106.65 39.16, 132.33 7.46 M80.72 66.89 C101.1 42.77, 120.92 18.32, 132.64 5.42 M84.62 65.26 C100.75 49.18, 114.78 33.62, 130.79 12.83 M85.37 66.27 C94.23 54.6, 104.9 43.99, 132.12 12.24 M90.83 67.41 C100.29 55.85, 109.37 46.08, 130.43 18.96 M91.11 65.97 C105.3 48.94, 119.23 31.78, 131.9 18.07 M95.24 66.69 C105.73 55.16, 117.74 42.93, 133.42 25.12 M94.9 67.38 C108.15 52.89, 119.8 37.5, 131.26 24.38 M100.95 65.57 C112.14 54.47, 120.62 45.34, 132.15 30.65 M100.26 67.12 C112.95 53.59, 125.6 38.69, 132.61 30.33 M105 67.62 C116.24 57.52, 121.64 45.9, 133.84 37.17 M106.09 67.99 C110.88 61.02, 116.91 54.78, 132.28 37.65 M113.52 67.66 C118.52 59.2, 121.89 53.18, 130.99 43.38 M111.96 65.85 C117.36 61.13, 121.17 54.47, 131.21 42.38 M118.31 65.88 C124 60.91, 127.32 55, 133.3 47.48 M116.93 66.64 C120.75 63.28, 122.89 59.45, 133 48.01 M123.59 66.1 C123.34 64.44, 127.6 60.77, 131.73 53.97 M122.73 67.08 C125.42 63.53, 127.8 60.61, 132.06 54.86 M127.88 66.21 C129.48 65.01, 130.88 63.08, 132.43 61.49 M127.29 66.75 C128.98 64.34, 131.69 62.31, 132.37 60.95" stroke="#ced4da" stroke-width="0.5" fill="none"></path><path d="M-1.29 -0.73 C25.54 0.24, 53.19 -3, 130.92 0.2 M0.6 0.58 C51.15 0, 101.98 0.83, 132.62 0.87 M132.74 0.13 C130.64 23.87, 131.92 44.78, 131.08 65.55 M132.22 0.12 C132.87 17.45, 132.65 34.27, 131.79 66.66 M133.05 67.15 C92.42 66.3, 55.24 67, 0.6 65.15 M132.07 66.79 C99.41 65.24, 68.58 65.7, 0.29 66.12 M1.64 67.71 C1.08 39.11, 1.3 13.47, -0.1 1.47 M-0.46 66.63 C0.56 49.19, 0.84 29.56, -0.76 -0.68" stroke="#000000" stroke-width="1" fill="none"></path></g><g transform="translate(180.98828125 179.345703125) rotate(0 28.5 12.5)"><text x="0" y="18" font-family="Virgil, Segoe UI Emoji" font-size="20px" fill="#000000" text-anchor="start" style="white-space: pre;" direction="ltr">Share</text></g><g stroke-linecap="round" transform="translate(149.16015625 270.12109375) rotate(0 66.0703125 33.267578125)"><path d="M0 0 C0 0, 0 0, 0 0 M0 0 C0 0, 0 0, 0 0 M-0.33 6.2 C0.79 4.99, 3.41 2.79, 4.73 0.64 M-0.34 6.42 C0.78 4.87, 2.13 3.24, 4.64 0.17 M1.59 13.38 C3.9 9.85, 6.94 5.92, 12.03 -0.02 M0.4 12.44 C5.07 7.82, 8.69 1.99, 10.99 0.09 M0.76 19.44 C4.11 16.26, 8.94 9.68, 16 0.79 M0.49 19.32 C4.7 13.2, 10.14 5.97, 14.87 0.61 M1.66 25.91 C8.18 16.5, 13.33 9.15, 21.31 -1.25 M0.94 24.92 C6.39 16.08, 14.14 9.17, 21.61 -0.17 M1.36 29.66 C6.69 21.5, 13.8 13.99, 26.51 -0.32 M-0.05 30.45 C7.59 21.75, 15.63 13.07, 26.65 -0.23 M0.24 37.54 C8.95 26.2, 17.07 15.55, 31.3 -0.15 M-0.02 36.71 C6.53 28.75, 13.8 20.48, 32.73 -0.07 M0.56 42.85 C10.99 31.79, 22.99 16.61, 35.75 1.86 M0.77 42.6 C14 27.04, 28.99 10.31, 37.73 -0.54 M0.61 49.49 C12.23 35.01, 24.23 19.82, 41.64 -1.48 M0.31 49.37 C12.49 34.25, 26.94 18.53, 42.78 -0.81 M-0.6 56.51 C11.47 38.18, 25.54 22.09, 47.39 0.69 M0.39 55.44 C11.59 40.95, 24 25.82, 47.99 -0.32 M-0.44 62.09 C12.95 43.11, 28.42 27.29, 53.4 1.18 M0.27 60.51 C12.8 46.24, 27.18 30.25, 52.66 -0.68 M0.7 67.32 C16.48 49.16, 31.21 32.83, 56.93 -1.33 M0.86 67.55 C21.45 42.45, 41.32 18.21, 58.9 0.34 M3.57 66.08 C26.15 40.46, 51.45 15.55, 65.48 1.47 M5.69 66.88 C16.96 51.25, 30.12 37.32, 63.89 -1.08 M11.62 67.05 C25.77 47.74, 40.04 31.32, 67.67 -0.48 M11.31 66.33 C28.34 46.6, 43.56 28.55, 69.51 -0.76 M17.7 67.43 C33.07 46.2, 49.79 27.32, 74.6 0.17 M16.76 67.17 C28.86 52.38, 41.1 37.5, 74.57 -0.48 M20.12 66.85 C34.55 53.37, 49.02 38.53, 78.74 0.14 M22.48 66.24 C39.29 47.45, 56.99 27.21, 78.47 0.1 M25.57 67.31 C40.05 50.2, 50.65 36.42, 83.28 1.29 M26.01 66 C40.27 51.97, 54.12 35.1, 85.41 -0.48 M30.47 64.96 C50.7 47.68, 67.98 24.46, 89.06 -1.4 M32.18 66.58 C53.87 43.46, 72.83 19.6, 90.04 0.54 M35.86 66.06 C55.56 43.9, 75.84 23.26, 95.86 -0.01 M36.8 65.87 C51.26 50.36, 66.57 35.54, 95.69 0.25 M44.77 66.8 C66.74 40.58, 87.49 13.39, 101.37 -1.8 M42.84 65.55 C61.18 45.8, 78.57 26.07, 100.04 0.09 M49.07 65.21 C59.11 51.01, 72.61 38.82, 106.49 -1.35 M48.11 67.19 C60.86 52.54, 73.3 38.57, 105.3 -0.06 M54.9 64.99 C74.05 41.5, 92.66 17.82, 110.24 -0.62 M53.47 66.25 C70.29 47.65, 87.44 28.71, 111.92 0.18 M57.5 67.46 C78.68 44.68, 96.63 20.06, 114.47 -0.42 M58.49 66.25 C76.59 45.68, 93.55 26.48, 116.07 0.49 M62.59 67.34 C85.99 42.58, 109.3 15.07, 122.03 -0.21 M63.66 66.7 C83.84 44.9, 100.9 22.57, 122.69 0.15 M69.26 68.71 C79.93 53.47, 93.12 39.69, 126.89 2 M70.08 67.28 C84.86 48.38, 99.18 30.84, 126.38 0.42 M74.7 65.59 C89.84 51.23, 101.87 32.85, 130.91 -1.74 M74.97 66.57 C95.59 43.99, 114.45 21.25, 132.99 -0.74 M80.3 66.05 C92.55 54.01, 101.38 41.12, 133.43 4.63 M80.65 66.4 C91.24 52.19, 105.09 37.08, 132 5.48 M85.87 68.4 C99.25 51.92, 111.77 37.03, 131.74 11.66 M85.5 66.17 C101.75 48.32, 117.72 29.55, 131.86 13.47 M90.34 65.74 C104.97 46.59, 124.54 29.54, 131.5 18.61 M89.52 67.63 C104.48 50.48, 119.4 32.6, 133.18 17.53 M94.61 65.9 C104.69 57.05, 111.24 51.61, 134.13 23.6 M95.98 66.99 C103.78 57.27, 113.03 46.12, 132.94 24.27 M102.95 67.26 C108.28 57.72, 115 52.65, 133.54 32.17 M101.63 66.91 C111.12 53.53, 121.45 42.92, 132.03 31.29 M105.88 66.65 C114.09 58.5, 119.06 51.56, 131.03 37.23 M106.39 66.66 C111.46 60.57, 117.53 52.37, 132.96 37.37 M113.5 67.24 C116.36 62.42, 120.09 56.15, 131.94 43.59 M111.51 66.09 C118.17 60.04, 124.32 53.95, 131.34 43.19 M118.44 66.39 C122.77 58.5, 129.27 52.38, 131.88 48.15 M117.3 67.74 C122.65 60.88, 127.86 52.59, 132.92 49.66 M121.46 67.29 C126.41 63.56, 126.76 59.15, 131.17 55.83 M123.03 66.82 C124.82 62.93, 128.05 59.56, 132.39 54.52 M127.94 67.38 C128.77 64.89, 129.96 63.83, 133.1 60.99 M127.54 67.23 C128.57 65.42, 130.38 63.73, 132.9 61.3" stroke="#ced4da" stroke-width="0.5" fill="none"></path><path d="M1.26 -0.93 C36.67 -1.22, 76.2 1.14, 131.81 0.99 M0.6 0.34 C52.67 -0.19, 105.45 -0.14, 132.16 0.82 M132.22 1.22 C131.97 16.1, 131.81 32.03, 133.61 66.52 M131.33 0.66 C132.03 19.1, 131.59 40.44, 133.02 67.08 M133.99 68.26 C92.22 66.18, 49.08 67.08, 0.3 66.91 M131.86 65.99 C79.78 65.97, 28.09 66.56, 0.13 65.67 M0.75 66.08 C-0.44 44.02, 1.57 21.88, 1.13 1.14 M-0.8 66.17 C0.4 52.17, 0.6 38.15, -0.62 -0.95" stroke="#000000" stroke-width="1" fill="none"></path></g><g transform="translate(180.28125 286.4765625) rotate(0 42.5 12.5)"><text x="0" y="18" font-family="Virgil, Segoe UI Emoji" font-size="20px" fill="#000000" text-anchor="start" style="white-space: pre;" direction="ltr">Sub-Plan</text></g><g stroke-linecap="round"><g transform="translate(213.9296875 227.962890625) rotate(0 -0.4360947233531647 22.59058736615347)"><path d="M-0.57 -0.62 C-0.67 6.85, -1.22 37.13, -1.31 44.59 M1.33 1.66 C1.14 9.32, -1.7 38.6, -2.21 45.81" stroke="#000000" stroke-width="1" fill="none"></path></g></g><g stroke-linecap="round" transform="translate(10 13.43359375) rotate(0 66.0703125 33.267578125)"><path d="M0 0 C0 0, 0 0, 0 0 M0 0 C0 0, 0 0, 0 0 M-0.18 6.2 C1.18 3.96, 3.69 2.95, 4.57 0.58 M0.13 6.24 C1.76 4.51, 3.29 2.37, 4.92 0.5 M-0.84 12.59 C4.81 9.38, 5.96 5.28, 10.03 -1.52 M-0.27 11.94 C4.03 7.97, 7.95 3.39, 10.23 0.66 M1.03 19.79 C2.93 13.71, 7.26 9.58, 16.68 1.73 M-0.3 17.95 C3.8 13.79, 9.16 7.79, 16.17 0.87 M1.76 26.04 C7.42 15.31, 13.68 5.89, 21.85 -1.09 M0.07 23.65 C5.99 17.21, 9.84 12.72, 20.61 -0.72 M1.27 28.83 C6.95 23.21, 9.89 15.98, 24.46 0.25 M-0.1 30.12 C10.39 19.78, 20.49 7.85, 25.64 0.48 M-1.12 38.72 C10.53 24.54, 23.6 12.5, 32.3 -2.03 M-1.03 37.68 C6.61 29.88, 13.57 20.95, 31.35 -0.18 M1 41.9 C14.29 27.9, 25.39 11.15, 38.46 0.03 M-0.17 43.04 C13.73 26.03, 26.58 10.87, 36.51 0.49 M1.02 50.57 C11.02 36.94, 24.9 20.96, 44.5 0.24 M-0.16 48.54 C11.37 37.93, 20.27 25.67, 41.89 0.46 M1.76 53.74 C10.58 43.65, 20.01 29.25, 49.04 0.43 M-0.11 53.8 C14.71 38.71, 27.5 21.78, 47.04 -0.58 M0.13 59.46 C18.77 38.69, 36.85 19.33, 54.9 0.5 M-0.87 60.65 C19.54 39.8, 37.29 18.77, 53.66 -0.25 M2.24 64.85 C17.61 48.04, 31.2 30.04, 57.75 0.63 M0.38 66.1 C15.57 49.49, 30.48 32.52, 58.36 -0.6 M5.27 68.28 C23.46 47.17, 40.43 27.99, 65.17 -0.67 M6.1 67.22 C21.38 49.76, 36.53 32.93, 64 -1.13 M12.84 65.51 C22.01 50.84, 35.61 35.94, 69.33 -0.37 M12.03 66.17 C23.76 52.31, 35.09 39.33, 68.5 0.13 M15.42 65.78 C32.66 46.22, 53.28 23.91, 74.12 -0.86 M15.68 67.07 C33.75 48.01, 49.22 29.25, 74.15 -0.43 M20.16 67.93 C39.97 43.14, 59.72 21.81, 79.72 0.23 M22.45 66.95 C40.86 43.12, 59.79 20.72, 78.42 0.93 M27.53 66.55 C47.77 44.37, 67.25 21.77, 85.79 0.13 M26.42 66.69 C43.99 47.84, 61.77 26.66, 85.28 0.22 M30.46 66.08 C51.24 45.52, 71.76 22.66, 88.04 1.05 M31.67 65.94 C51 44.5, 70.27 22.34, 89.98 0.7 M38.95 66.96 C55.31 44.05, 79.01 18.81, 97.38 0.33 M37.08 66.1 C56.13 45.8, 73.75 23.68, 96.43 -0.24 M43.2 67.73 C57.15 51.67, 68.32 37.27, 100.57 0.53 M43.64 67.21 C60.48 44.89, 79.9 24.19, 99.94 -0.07 M46.24 67.19 C64.67 49.6, 77.59 32.81, 107.3 -0.43 M47.28 66.92 C67.8 44.06, 86.95 22.22, 106.58 -0.27 M55.04 66.47 C71.25 43.32, 88.97 23.16, 110.82 0.9 M54.18 67.42 C71.09 46.2, 88.41 28.08, 111.96 0.71 M57.14 67.23 C79.28 41.85, 102.56 14.11, 114.46 0.27 M57.56 66.36 C73.37 48.5, 88.37 29.8, 115.93 1.03 M63.8 65.7 C76.28 52.01, 91.52 36.8, 123.47 0.21 M65.04 65.83 C80.38 48.24, 97.74 28.75, 122.63 0.73 M70.58 66.89 C83.6 48.34, 98.13 31.14, 124.96 0.37 M69.39 67.24 C84.37 50.23, 97 32.85, 126.59 0.87 M75.85 67.39 C85.77 50.73, 98.63 36.04, 134.38 0.35 M73.23 67.06 C87.55 51.09, 100.51 37.42, 133.41 -0.74 M80.67 65.78 C91.01 54.07, 103.53 41.05, 130.85 7.94 M79.1 65.95 C97.51 46.09, 115.33 25.96, 131.32 5.38 M84.72 69.04 C98.63 52.92, 110.88 37.81, 131.44 11.82 M85.6 68.04 C97.18 52.45, 109.39 38.46, 131.56 12 M88.73 67.35 C103.19 53.08, 115.88 38.35, 131.28 18.07 M89.98 66.49 C104.46 50.88, 117.8 34.43, 132.73 18.46 M95.14 68.26 C107.54 54.45, 116.98 43.1, 132.72 26.52 M94.98 66.57 C102.61 58.28, 112.22 48.01, 132.16 23.84 M99.23 66.82 C109.17 55.66, 116.18 47.82, 131.83 29.61 M100.17 66.46 C108.1 58.96, 114.64 50.56, 132.54 30.6 M105.71 67.69 C115.98 53.05, 128.61 41.06, 130.98 38.52 M106.73 66.29 C116.36 56.24, 126.71 42.83, 132.76 37.58 M111.86 67.26 C119.6 58.11, 124.81 50.96, 133.37 42.04 M110.77 67.02 C120.14 58.51, 126.69 49.64, 132.52 43.64 M116.18 67.79 C121.33 62.77, 126.71 55.98, 130.85 48.94 M116.14 67.42 C122.23 61.11, 127.39 54.82, 132.47 48.88 M121.7 67.29 C124.27 65.22, 126.02 60.55, 131.98 54.59 M121.89 66.87 C124.94 62.98, 127.95 60.71, 132.25 55.66 M127.4 66.9 C128.51 65.02, 129.01 64.02, 132.38 61.63 M126.94 66.89 C128.88 65.5, 129.72 64.38, 132.86 60.93" stroke="#ced4da" stroke-width="0.5" fill="none"></path><path d="M1.75 0.73 C48.89 1.13, 97.59 -0.13, 131.31 -1.32 M0.87 -0.68 C30.03 0.17, 61.31 0.51, 133.02 -0.83 M132.55 -1.3 C133.45 20.12, 132.28 43.53, 131.19 67.32 M132.69 -0.6 C131.4 15.19, 132.57 32.53, 132 67.15 M132.51 66.39 C101.05 65.89, 71.39 65.41, 0.84 66.96 M132.11 67.35 C84.11 66.36, 37.24 65.33, 0.03 65.81 M-0.72 68.24 C0.67 44.04, 1.45 24.53, -0.12 1.65 M0.79 66.54 C0.39 53.36, -0.26 39.33, 0.76 0.3" stroke="#000000" stroke-width="1" fill="none"></path></g><g transform="translate(41.5703125 34.201171875) rotate(0 34.5 12.5)"><text x="34.5" y="18" font-family="Virgil, Segoe UI Emoji" font-size="20px" fill="#000000" text-anchor="middle" style="white-space: pre;" direction="ltr">Parent</text></g><g stroke-linecap="round" transform="translate(177.69140625 13.53515625) rotate(0 66.0703125 33.267578125)"><path d="M0 0 C0 0, 0 0, 0 0 M0 0 C0 0, 0 0, 0 0 M-0.61 7.13 C1.41 4.55, 4.01 2.76, 5.15 -0.41 M-0.57 6.72 C0.97 5.39, 2.16 3.65, 4.77 0.33 M0.83 11.55 C4.37 8.29, 6.33 2.86, 11.9 -0.22 M-0.11 12.46 C4.14 7.01, 7.48 2.86, 10.34 0.15 M1.01 20.09 C3.41 15.12, 9.8 7.75, 17.59 0.71 M-0.16 18.06 C4.73 14.89, 7.06 10.2, 14.99 0.92 M1.75 23.26 C4.76 20.02, 8.14 12.58, 22.79 0.14 M-0.12 23.32 C7.1 17, 12.08 9.06, 20.79 -0.87 M0.12 28.98 C9.83 18.59, 18.91 9.57, 28 0.96 M-0.87 30.17 C10.06 19.94, 18.51 9.6, 26.76 0.21 M1.58 35.13 C9.99 26.12, 16.7 16.03, 31.5 0.34 M-0.28 36.38 C7.98 27.59, 16.26 18.24, 32.11 -0.89 M0.01 43.84 C12.15 29.81, 22.89 17.81, 38.26 -0.2 M0.85 42.78 C10.42 31.71, 19.98 21.29, 37.09 -0.67 M1.69 47.86 C7.59 37.11, 17.78 26.14, 43.09 -0.66 M0.87 48.52 C9.51 38.15, 17.79 28.68, 42.25 -0.16 M-0.33 53.41 C13.41 37.8, 30.62 19.4, 47.22 -0.4 M-0.07 54.71 C14.77 39.33, 27.04 24.26, 47.25 0.04 M-1.49 62.35 C16.8 39.38, 34.99 19.85, 53.48 -0.06 M0.79 61.38 C17.69 39.34, 35.07 18.72, 52.18 0.64 M1.28 66.26 C21.3 44.34, 40.55 22, 58.89 0.59 M0.18 66.4 C17.54 47.77, 35.13 26.82, 58.37 0.68 M3.56 66.54 C24.56 45.73, 45.3 22.62, 61.79 0.76 M4.77 66.41 C24.32 44.71, 43.81 22.3, 63.74 0.41 M12.7 66.67 C28.84 44.03, 52.32 19.04, 70.48 0.79 M10.83 65.81 C29.67 45.75, 47.08 23.87, 69.53 0.22 M16.3 68.19 C30.39 51.96, 41.71 37.39, 74.33 0.24 M16.73 67.67 C33.79 45.11, 53.41 24.17, 73.69 -0.36 M19.99 66.9 C38.26 49.5, 51.01 32.9, 80.39 0.04 M21.03 66.63 C41.33 44.02, 60.27 22.42, 79.67 0.2 M28.14 66.93 C44.56 43.54, 62.49 23.14, 84.58 0.6 M27.27 67.88 C44.38 46.44, 61.89 28.09, 85.72 0.42 M30.89 66.94 C53.04 41.56, 76.32 13.82, 88.21 -0.02 M31.32 66.07 C47.12 48.21, 62.12 29.51, 89.69 0.74 M36.9 66.16 C49.53 52.31, 64.92 36.93, 97.22 -0.08 M38.14 66.29 C53.66 48.49, 71.22 28.78, 96.38 0.43 M44.33 66.6 C57.35 48.05, 71.89 30.85, 98.71 0.08 M43.14 66.95 C58.12 49.94, 70.76 32.55, 100.34 0.58 M49.6 67.09 C59.52 50.44, 72.38 35.75, 108.13 0.06 M46.98 66.76 C61.3 50.8, 74.26 37.13, 107.17 -1.04 M54.43 65.49 C65.83 52.44, 79.48 38.14, 109.85 1.61 M52.86 65.66 C73.05 43.76, 92.6 21.64, 110.32 -0.95 M58.47 68.75 C75.36 49.29, 90.56 30.78, 115.69 -0.55 M59.36 67.75 C73.55 49.03, 88.45 31.95, 115.81 -0.37 M62.48 67.05 C81.81 47.15, 99.45 26.72, 120.78 -0.34 M63.73 66.2 C83.38 44.47, 101.9 22.06, 122.22 0.06 M68.89 67.97 C87.44 47.3, 102.93 28.99, 127.47 2.08 M68.73 66.28 C80.96 52.59, 95.17 37.04, 126.9 -0.61 M72.33 67.28 C89.29 47.88, 103.39 31.88, 131.82 -0.87 M73.27 66.92 C87.22 52.25, 99.94 36.75, 132.54 0.12 M79.46 67.4 C99.95 40.71, 122.99 16.74, 130.98 8.04 M80.49 66 C100.45 44.2, 121.18 18.85, 132.76 7.1 M84.96 67.72 C102.11 47.76, 116.51 30.04, 133.36 11.56 M83.87 67.49 C103.47 47.46, 120.01 27.1, 132.52 13.16 M89.94 67.5 C101.97 54.45, 114.14 39.84, 130.84 18.46 M89.89 67.13 C104.47 50.64, 118.3 34.37, 132.47 18.4 M94.58 67.99 C103.37 59.21, 110.91 46.99, 131.91 23.89 M94.84 67.43 C105.14 55.19, 115.15 45.25, 132.28 25.31 M101.29 66.55 C108.24 57.23, 113.45 50.17, 132.11 32.23 M100.13 66.51 C109.14 58.1, 115.46 50.46, 133.3 30.5 M107.26 66.78 C114.55 55.3, 125.57 44.04, 130.71 35.22 M105.08 67.12 C114.59 56.45, 124.88 45.78, 131.38 37.61 M111.66 64.64 C119.34 58.68, 123.26 52.47, 133.12 42.84 M112.29 67.54 C119.44 57.41, 126.68 49.65, 131.51 43 M116.22 66.58 C121.92 64.18, 123.14 60.01, 130.84 49.68 M116.39 66.53 C120.8 63.42, 124 58.67, 131.94 48.94 M120.87 67.39 C124.71 64.72, 128.36 62.27, 133.06 53.82 M121.61 66.33 C124.32 64.29, 126.86 61.27, 132.23 54.93 M126.75 66.44 C129.01 64.87, 130.04 64.52, 131.77 61.04 M127.36 67.05 C129.1 65.07, 130.76 62.89, 132.33 60.86" stroke="#ced4da" stroke-width="0.5" fill="none"></path><path d="M0.21 -0.5 C42.87 -1.92, 88.51 0.54, 131.09 0.55 M0.99 -0.4 C45.5 -0.61, 89.71 -0.83, 131.96 0.36 M130.92 0.69 C134.5 21.73, 131.94 41.54, 131.39 64.67 M131.64 -0.13 C132.8 22.72, 133.21 44.93, 131.64 67.4 M133.3 67.89 C100.35 67.18, 69.93 67.31, 1.06 67.94 M131.97 66.04 C92.95 67.03, 55.28 66.29, 0.56 67.08 M1.49 68.49 C-0.35 42.83, -1.49 18.47, 0.59 -1.02 M-0.19 66.1 C0.33 49.25, -1.07 34.15, -0.66 -0.66" stroke="#000000" stroke-width="1" fill="none"></path></g><g transform="translate(209.26171875 34.302734375) rotate(0 34.5 12.5)"><text x="34.5" y="18" font-family="Virgil, Segoe UI Emoji" font-size="20px" fill="#000000" text-anchor="middle" style="white-space: pre;" direction="ltr">Parent</text></g><g stroke-linecap="round" transform="translate(349.47265625 10) rotate(0 66.0703125 33.267578125)"><path d="M0 0 C0 0, 0 0, 0 0 M0 0 C0 0, 0 0, 0 0 M-0.06 5.89 C1.47 3.81, 3.54 1.87, 4.81 0.05 M-0.44 6.75 C1.59 4.33, 3.42 2.61, 4.77 0.29 M1.7 13.33 C1.91 9.91, 4.42 6.94, 9.52 1.19 M0.07 12.61 C2.13 8.76, 6.13 5.87, 10.61 0.56 M1.39 18.3 C2.24 13.09, 5.7 9.27, 16.3 0.64 M0.42 17.56 C5.53 12.5, 10.67 7.47, 16.07 -0.25 M1.89 23.72 C6.62 17.38, 12.98 10.78, 20.64 -0.65 M1.01 23.6 C5.25 17.48, 10.69 12.01, 20.85 -1.07 M-0.91 31.54 C8.83 20.84, 20.11 6.42, 26.01 1.78 M0.88 30.14 C7.8 22.2, 14.37 14.37, 25.83 -0.23 M0.92 36.92 C9.95 27.32, 18.13 13.99, 30.42 1.76 M-1 36.51 C8.3 25.97, 18.43 15.23, 30.91 -0.33 M1.96 40.73 C11.52 29.49, 20.5 18.1, 36.98 -1.27 M-0.71 42.5 C12.85 27.96, 24.2 14.72, 36.75 0.07 M1.54 49.69 C11.97 35.9, 25.24 18.91, 43.3 1.53 M-0.48 48.65 C15.18 31.45, 30.84 13.67, 42.89 0.43 M0.47 52.92 C14.72 34.6, 29.42 19.72, 48.34 0.38 M0.88 55.03 C18.57 34.39, 36.74 13.04, 47.5 0.36 M-0.05 61.93 C11.76 47.17, 22.63 36.74, 53.81 -1.35 M-0.33 61.36 C13.72 46.33, 25.24 32.03, 53.5 -0.38 M-1.1 66.36 C13.01 50.94, 28.34 36.38, 59.02 0.82 M-0.52 67.01 C23.16 40.12, 45.56 15.29, 58.31 0.26 M6.1 67.94 C24.19 44.04, 46.61 22.03, 62.28 0.3 M6.1 67.1 C23.97 45.28, 43.02 23.39, 64.02 0.58 M9.83 66.39 C28.14 47.63, 43.75 26.07, 67.75 -0.68 M12 66.58 C34.09 40.74, 56.81 14.98, 69.04 -0.71 M16.48 65.24 C34.25 45.62, 51.41 27.44, 74.86 0.83 M15.75 66.28 C36.45 41.99, 58.58 17.55, 74.33 -0.47 M22.67 65.71 C44.4 43.26, 65.14 18.42, 81.1 0.35 M20.95 66.92 C40.4 44.47, 58.15 23.87, 79.1 0.91 M26.14 66.59 C44.97 43.04, 65.4 23.85, 83.5 -2.18 M25.94 67.24 C47.26 44.23, 67.57 21.18, 84.93 -0.39 M31.12 68.12 C46.71 50.83, 62.81 34.2, 89.43 1.54 M31.95 66.02 C43.38 52.05, 55.73 37.86, 89.53 0.43 M39.2 67.88 C56.86 41.41, 79.44 18.25, 94 -0.01 M36.82 66.2 C59.06 39.92, 83.03 14.75, 94.89 -1.14 M42.71 64.62 C62.81 44.72, 84.16 20.39, 98.93 1.74 M43.18 66.83 C66.3 40.87, 87.42 15.19, 100.96 -0.88 M47.59 66.19 C71.13 40.82, 90.56 14.61, 105.93 -0.72 M48.13 67.27 C62.2 50.03, 76.78 32.27, 105.86 0.23 M54.77 65.37 C74.04 42.16, 91.2 19.38, 111.58 0.96 M53.44 67.15 C69.13 49.5, 84.31 30.7, 111.58 0.12 M59.05 67.79 C81.35 40.41, 105.36 14.25, 116.03 -0.44 M59.23 66.5 C73.5 49.58, 88.42 33.36, 115.46 0.34 M62.46 67.75 C86.29 42.52, 105.27 17.84, 121.19 0.42 M64.13 65.73 C83.34 44.39, 102.94 21.64, 121.22 0.49 M69.15 68.15 C86.96 46.71, 106.94 24.42, 128.84 1.62 M69.03 65.8 C89.22 43.78, 106.57 23.76, 127.86 0.44 M74.08 69.07 C87 51.1, 101.47 38.18, 133.38 -1.48 M74.55 66.95 C96.24 41.17, 120 14.3, 133.26 -0.8 M81.24 67.92 C95.82 48.9, 113.44 30.43, 131.47 5.75 M80.06 67.03 C100.84 42.78, 119.13 20.57, 132.59 6.99 M85.72 67.56 C103.74 46.25, 120.8 25.91, 130.43 11.66 M84.6 67.84 C99.21 49.3, 114.21 32.68, 131.57 11.94 M90.51 64.92 C107.33 48.88, 121.34 32.62, 130.75 16.62 M90.45 65.92 C102.81 51.13, 116.59 37.2, 131.71 18.55 M97.31 66.9 C109.29 52.86, 124.02 36.51, 133.4 23.04 M94.79 66.62 C105.42 54.85, 114.62 42.99, 132.53 23.92 M99.95 66.18 C114.67 51.97, 122.5 41.83, 132.59 32.06 M101.91 66.14 C107.86 58.76, 115.72 50.54, 133.08 30.58 M107.25 65.2 C115.5 56.38, 121.47 47.19, 130.67 35.37 M106.88 67.63 C114.94 57.11, 123.53 46.53, 131.66 36.57 M112.37 67.92 C116.32 61.41, 120.71 55.46, 130.79 43.88 M111.75 67.23 C120.83 58.1, 128.49 47.17, 131.3 42.22 M115.74 67.78 C121.82 60.76, 127.23 54.4, 131.11 47.8 M117.23 66.14 C121.49 62.53, 124.59 57.16, 132.76 48.49 M122.37 67.29 C125.91 62.21, 129.2 57.48, 131.24 56.43 M122.73 66.65 C125.15 63.05, 128.65 60.44, 131.66 55.26 M127.92 67.01 C128.17 65.98, 129.21 63.66, 132.1 60.81 M127.1 66.7 C128.69 64.72, 130.7 63.3, 132.81 60.61" stroke="#ced4da" stroke-width="0.5" fill="none"></path><path d="M0.86 -0.08 C29.43 -1.03, 54.47 1.9, 130.84 -1.06 M-0.37 -0.18 C49.63 -1.01, 99.89 -0.19, 132.05 -0.55 M130.64 1.21 C132.07 19.13, 133.14 39.85, 133.19 67 M132.04 -0.12 C131.97 19.86, 132.93 40.35, 131.64 66.87 M133.24 65.27 C78.67 67.81, 27.31 64.65, -1.55 66.66 M132.7 66.31 C86.39 64.96, 41.52 65.42, 0.76 66.74 M1.16 67.56 C1.71 49.96, -1.15 34.07, 0.92 -0.27 M-0.19 66.88 C1.07 42.04, 0.49 15.14, -0.91 0.8" stroke="#000000" stroke-width="1" fill="none"></path></g><g transform="translate(381.04296875 30.767578125) rotate(0 34.5 12.5)"><text x="34.5" y="18" font-family="Virgil, Segoe UI Emoji" font-size="20px" fill="#000000" text-anchor="middle" style="white-space: pre;" direction="ltr">Parent</text></g><g stroke-linecap="round"><g transform="translate(63.640625 77.208984375) rotate(0 70.90937699601056 41.61708180711605)"><path d="M-1.12 -0.07 C22.87 13.76, 118.92 69.27, 142.94 83.43 M0.49 -1.15 C24.4 12.75, 118.31 70.41, 141.92 84.39" stroke="#000000" stroke-width="1" fill="none"></path></g></g><g stroke-linecap="round"><g transform="translate(234.17656050398932 80.03330881788395) rotate(0 -12.225197093607846 39.72636284157636)"><path d="M-0.49 -0.53 C-4.65 12.82, -20.97 66.75, -24.87 79.99 M1.45 1.8 C-2.89 14.83, -21.63 65.21, -25.9 78.25" stroke="#000000" stroke-width="1" fill="none"></path></g></g><g stroke-linecap="round"><g transform="translate(414.5923845936079 76.17402778342364) rotate(0 -101.80097810432778 42.52692133858801)"><path d="M-0.53 -0.55 C-34.56 13.74, -170.96 71.29, -204.99 85.6 M1.39 1.78 C-32.2 15.74, -168.24 70.3, -202.78 83.87" stroke="#000000" stroke-width="1" fill="none"></path></g></g></svg>