<svg version="1.1" xmlns="http://www.w3.org/2000/svg" viewBox="0 0 923.9765625 664.81640625" width="923.9765625" height="664.81640625">
  <!-- svg-source:excalidraw -->
  
  <defs>
    <style class="style-fonts">
      @font-face {
        font-family: "Virgil";
        src: url("https://excalidraw.com/Virgil.woff2");
      }
      @font-face {
        font-family: "Cascadia";
        src: url("https://excalidraw.com/Cascadia.woff2");
      }
    </style>
  </defs>
  <rect x="0" y="0" width="923.9765625" height="664.81640625" fill="#ffffff"></rect><g stroke-linecap="round" transform="translate(388.69921875 438.810546875) rotate(0 66.0703125 33.267578125)"><path d="M0 0 C0 0, 0 0, 0 0 M0 0 C0 0, 0 0, 0 0 M-0.92 6.26 C2.06 4.73, 4.21 0.94, 4.4 0.28 M-0.29 6.67 C1.29 4.07, 3.02 2.76, 5.21 0.13 M-1.41 10.58 C2.7 7.51, 9.08 2.82, 9.27 1.19 M0.15 11.95 C2.9 9.33, 4.18 7.41, 10.6 0.24 M1.23 16.65 C4.36 13.99, 8.43 7.47, 15.9 -0.38 M0.5 17.97 C4.01 12.76, 9.44 8.78, 15.45 0.82 M1.46 24.76 C8.63 12.83, 17.47 3.34, 21.3 1.57 M0.31 24.69 C5.06 17.89, 10.14 11.73, 21.99 -0.07 M-1.61 31.81 C8.4 20.14, 15.34 14.22, 28.01 1.37 M0.93 31.34 C8.98 21.02, 16.62 11.91, 26.4 0.48 M-0.83 35.78 C10.95 23.5, 23.36 10.22, 32.15 -1.83 M0.12 36.65 C10.12 24.64, 21.68 12.36, 32.46 0.46 M-1.45 41.78 C9.34 33.81, 17.69 25.42, 35.64 -1.65 M0.12 42.01 C8.62 33.09, 15.51 23.39, 36.4 0 M-1.28 48.43 C8.86 36.44, 19.22 25.22, 41.37 1.64 M-0.21 48.67 C12.83 33.86, 27.54 17.96, 42.2 0.21 M-0.15 54.67 C10.69 40.68, 22.8 26.37, 45.79 -0.71 M1.18 55.4 C12.6 41.27, 24.71 27.07, 48.38 0.23 M0.68 61.96 C23.17 37.91, 42.94 11.01, 54.06 0.13 M0.45 61.46 C12.23 48.17, 25.04 32.93, 53.34 0.06 M1.64 68.36 C19.02 45.89, 38.86 21.12, 56.65 0.75 M1.1 67.52 C20.3 44.43, 38.96 22.26, 58.16 -0.4 M6.73 68.65 C22.79 45.06, 43.38 25.4, 64.48 -0.4 M6.07 66.55 C19.37 49.66, 33.98 33.17, 63.91 -0.51 M10.93 66.5 C27.75 47.37, 45.32 28.28, 69.56 -0.89 M11.28 66.9 C26.75 48.74, 41.98 30.57, 68.47 0.13 M16.5 66.6 C28.43 52.14, 41.73 37, 76.1 -0.18 M16.23 67.09 C33.02 48.13, 50.96 26.81, 73.85 0.56 M22.93 66.69 C43.08 42.55, 66.89 16.17, 81.1 -1.47 M22.03 66.82 C37.77 47.81, 53.8 28.67, 78.96 -0.55 M27.52 67.79 C43.35 47.35, 63.71 25.74, 85.55 -1.63 M26.22 67.87 C41.92 47.31, 58.96 27.75, 84.98 -0.04 M32.54 68.26 C45.6 50.25, 61.08 30.74, 91 -0.99 M32.07 67.06 C47.07 48.13, 63.03 30.76, 90.15 0.76 M37.8 65.96 C51.1 51.17, 67.71 33.16, 94.68 -1.33 M37.43 67.22 C53.48 49.27, 68.77 31.98, 95.07 -1.07 M43.84 68.36 C64.09 42.63, 82.99 18.12, 102.18 0.36 M42.01 66.03 C64.31 40.21, 88.21 14.82, 101.51 0.89 M48.51 66.67 C58.53 50.87, 71.89 37.9, 106.51 -2.08 M48.21 67.07 C62.7 48.71, 77.39 31.82, 105.75 -0.66 M54.11 65.95 C71.66 45.81, 85.53 28.78, 112.77 -1.8 M54.39 66.68 C70.24 46.58, 86.74 27.77, 111.38 0.22 M60.02 67.28 C71.6 52.71, 83.11 37.87, 116.59 -0.11 M57.77 66.95 C71.38 53.01, 85.09 38.14, 115.94 0.38 M65.82 65.81 C82.06 47.89, 100.15 27.33, 120.07 -0.05 M63.64 66.6 C77.3 50.66, 88.81 36.63, 121.04 0.76 M67.89 64.98 C82.22 52.91, 96.13 35.02, 127.64 -0.07 M68.26 65.99 C86.98 47.13, 104.5 25.3, 126.42 -0.4 M73.94 67.29 C96.89 44.72, 114.49 20.39, 132.57 0.87 M73.45 66.72 C93.03 44.7, 112.76 23.33, 132.64 0.1 M78.85 64.75 C91.53 50.95, 106.65 39.16, 132.33 7.46 M80.72 66.89 C101.1 42.77, 120.92 18.32, 132.64 5.42 M84.62 65.26 C100.75 49.18, 114.78 33.62, 130.79 12.83 M85.37 66.27 C94.23 54.6, 104.9 43.99, 132.12 12.24 M90.83 67.41 C100.29 55.85, 109.37 46.08, 130.43 18.96 M91.11 65.97 C105.3 48.94, 119.23 31.78, 131.9 18.07 M95.24 66.69 C105.73 55.16, 117.74 42.93, 133.42 25.12 M94.9 67.38 C108.15 52.89, 119.8 37.5, 131.26 24.38 M100.95 65.57 C112.14 54.47, 120.62 45.34, 132.15 30.65 M100.26 67.12 C112.95 53.59, 125.6 38.69, 132.61 30.33 M105 67.62 C116.24 57.52, 121.64 45.9, 133.84 37.17 M106.09 67.99 C110.88 61.02, 116.91 54.78, 132.28 37.65 M113.52 67.66 C118.52 59.2, 121.89 53.18, 130.99 43.38 M111.96 65.85 C117.36 61.13, 121.17 54.47, 131.21 42.38 M118.31 65.88 C124 60.91, 127.32 55, 133.3 47.48 M116.93 66.64 C120.75 63.28, 122.89 59.45, 133 48.01 M123.59 66.1 C123.34 64.44, 127.6 60.77, 131.73 53.97 M122.73 67.08 C125.42 63.53, 127.8 60.61, 132.06 54.86 M127.88 66.21 C129.48 65.01, 130.88 63.08, 132.43 61.49 M127.29 66.75 C128.98 64.34, 131.69 62.31, 132.37 60.95" stroke="#ced4da" stroke-width="0.5" fill="none"></path><path d="M-1.29 -0.73 C25.54 0.24, 53.19 -3, 130.92 0.2 M0.6 0.58 C51.15 0, 101.98 0.83, 132.62 0.87 M132.74 0.13 C130.64 23.87, 131.92 44.78, 131.08 65.55 M132.22 0.12 C132.87 17.45, 132.65 34.27, 131.79 66.66 M133.05 67.15 C92.42 66.3, 55.24 67, 0.6 65.15 M132.07 66.79 C99.41 65.24, 68.58 65.7, 0.29 66.12 M1.64 67.71 C1.08 39.11, 1.3 13.47, -0.1 1.47 M-0.46 66.63 C0.56 49.19, 0.84 29.56, -0.76 -0.68" stroke="#000000" stroke-width="1" fill="none"></path></g><g transform="translate(419.6796875 455.021484375) rotate(0 28.5 12.5)"><text x="0" y="18" font-family="Virgil, Segoe UI Emoji" font-size="20px" fill="#000000" text-anchor="start" style="white-space: pre;" direction="ltr">Share</text></g><g stroke-linecap="round" transform="translate(382.4609375 588.28125) rotate(0 66.0703125 33.267578125)"><path d="M0 0 C0 0, 0 0, 0 0 M0 0 C0 0, 0 0, 0 0 M-0.33 6.2 C0.79 4.99, 3.41 2.79, 4.73 0.64 M-0.34 6.42 C0.78 4.87, 2.13 3.24, 4.64 0.17 M1.59 13.38 C3.9 9.85, 6.94 5.92, 12.03 -0.02 M0.4 12.44 C5.07 7.82, 8.69 1.99, 10.99 0.09 M0.76 19.44 C4.11 16.26, 8.94 9.68, 16 0.79 M0.49 19.32 C4.7 13.2, 10.14 5.97, 14.87 0.61 M1.66 25.91 C8.18 16.5, 13.33 9.15, 21.31 -1.25 M0.94 24.92 C6.39 16.08, 14.14 9.17, 21.61 -0.17 M1.36 29.66 C6.69 21.5, 13.8 13.99, 26.51 -0.32 M-0.05 30.45 C7.59 21.75, 15.63 13.07, 26.65 -0.23 M0.24 37.54 C8.95 26.2, 17.07 15.55, 31.3 -0.15 M-0.02 36.71 C6.53 28.75, 13.8 20.48, 32.73 -0.07 M0.56 42.85 C10.99 31.79, 22.99 16.61, 35.75 1.86 M0.77 42.6 C14 27.04, 28.99 10.31, 37.73 -0.54 M0.61 49.49 C12.23 35.01, 24.23 19.82, 41.64 -1.48 M0.31 49.37 C12.49 34.25, 26.94 18.53, 42.78 -0.81 M-0.6 56.51 C11.47 38.18, 25.54 22.09, 47.39 0.69 M0.39 55.44 C11.59 40.95, 24 25.82, 47.99 -0.32 M-0.44 62.09 C12.95 43.11, 28.42 27.29, 53.4 1.18 M0.27 60.51 C12.8 46.24, 27.18 30.25, 52.66 -0.68 M0.7 67.32 C16.48 49.16, 31.21 32.83, 56.93 -1.33 M0.86 67.55 C21.45 42.45, 41.32 18.21, 58.9 0.34 M3.57 66.08 C26.15 40.46, 51.45 15.55, 65.48 1.47 M5.69 66.88 C16.96 51.25, 30.12 37.32, 63.89 -1.08 M11.62 67.05 C25.77 47.74, 40.04 31.32, 67.67 -0.48 M11.31 66.33 C28.34 46.6, 43.56 28.55, 69.51 -0.76 M17.7 67.43 C33.07 46.2, 49.79 27.32, 74.6 0.17 M16.76 67.17 C28.86 52.38, 41.1 37.5, 74.57 -0.48 M20.12 66.85 C34.55 53.37, 49.02 38.53, 78.74 0.14 M22.48 66.24 C39.29 47.45, 56.99 27.21, 78.47 0.1 M25.57 67.31 C40.05 50.2, 50.65 36.42, 83.28 1.29 M26.01 66 C40.27 51.97, 54.12 35.1, 85.41 -0.48 M30.47 64.96 C50.7 47.68, 67.98 24.46, 89.06 -1.4 M32.18 66.58 C53.87 43.46, 72.83 19.6, 90.04 0.54 M35.86 66.06 C55.56 43.9, 75.84 23.26, 95.86 -0.01 M36.8 65.87 C51.26 50.36, 66.57 35.54, 95.69 0.25 M44.77 66.8 C66.74 40.58, 87.49 13.39, 101.37 -1.8 M42.84 65.55 C61.18 45.8, 78.57 26.07, 100.04 0.09 M49.07 65.21 C59.11 51.01, 72.61 38.82, 106.49 -1.35 M48.11 67.19 C60.86 52.54, 73.3 38.57, 105.3 -0.06 M54.9 64.99 C74.05 41.5, 92.66 17.82, 110.24 -0.62 M53.47 66.25 C70.29 47.65, 87.44 28.71, 111.92 0.18 M57.5 67.46 C78.68 44.68, 96.63 20.06, 114.47 -0.42 M58.49 66.25 C76.59 45.68, 93.55 26.48, 116.07 0.49 M62.59 67.34 C85.99 42.58, 109.3 15.07, 122.03 -0.21 M63.66 66.7 C83.84 44.9, 100.9 22.57, 122.69 0.15 M69.26 68.71 C79.93 53.47, 93.12 39.69, 126.89 2 M70.08 67.28 C84.86 48.38, 99.18 30.84, 126.38 0.42 M74.7 65.59 C89.84 51.23, 101.87 32.85, 130.91 -1.74 M74.97 66.57 C95.59 43.99, 114.45 21.25, 132.99 -0.74 M80.3 66.05 C92.55 54.01, 101.38 41.12, 133.43 4.63 M80.65 66.4 C91.24 52.19, 105.09 37.08, 132 5.48 M85.87 68.4 C99.25 51.92, 111.77 37.03, 131.74 11.66 M85.5 66.17 C101.75 48.32, 117.72 29.55, 131.86 13.47 M90.34 65.74 C104.97 46.59, 124.54 29.54, 131.5 18.61 M89.52 67.63 C104.48 50.48, 119.4 32.6, 133.18 17.53 M94.61 65.9 C104.69 57.05, 111.24 51.61, 134.13 23.6 M95.98 66.99 C103.78 57.27, 113.03 46.12, 132.94 24.27 M102.95 67.26 C108.28 57.72, 115 52.65, 133.54 32.17 M101.63 66.91 C111.12 53.53, 121.45 42.92, 132.03 31.29 M105.88 66.65 C114.09 58.5, 119.06 51.56, 131.03 37.23 M106.39 66.66 C111.46 60.57, 117.53 52.37, 132.96 37.37 M113.5 67.24 C116.36 62.42, 120.09 56.15, 131.94 43.59 M111.51 66.09 C118.17 60.04, 124.32 53.95, 131.34 43.19 M118.44 66.39 C122.77 58.5, 129.27 52.38, 131.88 48.15 M117.3 67.74 C122.65 60.88, 127.86 52.59, 132.92 49.66 M121.46 67.29 C126.41 63.56, 126.76 59.15, 131.17 55.83 M123.03 66.82 C124.82 62.93, 128.05 59.56, 132.39 54.52 M127.94 67.38 C128.77 64.89, 129.96 63.83, 133.1 60.99 M127.54 67.23 C128.57 65.42, 130.38 63.73, 132.9 61.3" stroke="#ced4da" stroke-width="0.5" fill="none"></path><path d="M1.26 -0.93 C36.67 -1.22, 76.2 1.14, 131.81 0.99 M0.6 0.34 C52.67 -0.19, 105.45 -0.14, 132.16 0.82 M132.22 1.22 C131.97 16.1, 131.81 32.03, 133.61 66.52 M131.33 0.66 C132.03 19.1, 131.59 40.44, 133.02 67.08 M133.99 68.26 C92.22 66.18, 49.08 67.08, 0.3 66.91 M131.86 65.99 C79.78 65.97, 28.09 66.56, 0.13 65.67 M0.75 66.08 C-0.44 44.02, 1.57 21.88, 1.13 1.14 M-0.8 66.17 C0.4 52.17, 0.6 38.15, -0.62 -0.95" stroke="#000000" stroke-width="1" fill="none"></path></g><g transform="translate(413.58203125 604.7734375) rotate(0 18.5 12.5)"><text x="0" y="18" font-family="Virgil, Segoe UI Emoji" font-size="20px" fill="#000000" text-anchor="start" style="white-space: pre;" direction="ltr">LHS</text></g><g stroke-linecap="round"><g transform="translate(439.0859375 508.396484375) rotate(0 -0.2700790983531647 38.08863424115344)"><path d="M-0.57 -0.62 C-0.62 12.02, -0.94 62.96, -0.98 75.59 M1.33 1.66 C1.2 14.48, -1.42 64.43, -1.87 76.8" stroke="#000000" stroke-width="1" fill="none"></path></g></g><g stroke-linecap="round" transform="translate(653.875 132.2109375) rotate(0 66.0703125 33.267578125)"><path d="M0 0 C0 0, 0 0, 0 0 M0 0 C0 0, 0 0, 0 0 M-0.18 6.2 C1.18 3.96, 3.69 2.95, 4.57 0.58 M0.13 6.24 C1.76 4.51, 3.29 2.37, 4.92 0.5 M-0.84 12.59 C4.81 9.38, 5.96 5.28, 10.03 -1.52 M-0.27 11.94 C4.03 7.97, 7.95 3.39, 10.23 0.66 M1.03 19.79 C2.93 13.71, 7.26 9.58, 16.68 1.73 M-0.3 17.95 C3.8 13.79, 9.16 7.79, 16.17 0.87 M1.76 26.04 C7.42 15.31, 13.68 5.89, 21.85 -1.09 M0.07 23.65 C5.99 17.21, 9.84 12.72, 20.61 -0.72 M1.27 28.83 C6.95 23.21, 9.89 15.98, 24.46 0.25 M-0.1 30.12 C10.39 19.78, 20.49 7.85, 25.64 0.48 M-1.12 38.72 C10.53 24.54, 23.6 12.5, 32.3 -2.03 M-1.03 37.68 C6.61 29.88, 13.57 20.95, 31.35 -0.18 M1 41.9 C14.29 27.9, 25.39 11.15, 38.46 0.03 M-0.17 43.04 C13.73 26.03, 26.58 10.87, 36.51 0.49 M1.02 50.57 C11.02 36.94, 24.9 20.96, 44.5 0.24 M-0.16 48.54 C11.37 37.93, 20.27 25.67, 41.89 0.46 M1.76 53.74 C10.58 43.65, 20.01 29.25, 49.04 0.43 M-0.11 53.8 C14.71 38.71, 27.5 21.78, 47.04 -0.58 M0.13 59.46 C18.77 38.69, 36.85 19.33, 54.9 0.5 M-0.87 60.65 C19.54 39.8, 37.29 18.77, 53.66 -0.25 M2.24 64.85 C17.61 48.04, 31.2 30.04, 57.75 0.63 M0.38 66.1 C15.57 49.49, 30.48 32.52, 58.36 -0.6 M5.27 68.28 C23.46 47.17, 40.43 27.99, 65.17 -0.67 M6.1 67.22 C21.38 49.76, 36.53 32.93, 64 -1.13 M12.84 65.51 C22.01 50.84, 35.61 35.94, 69.33 -0.37 M12.03 66.17 C23.76 52.31, 35.09 39.33, 68.5 0.13 M15.42 65.78 C32.66 46.22, 53.28 23.91, 74.12 -0.86 M15.68 67.07 C33.75 48.01, 49.22 29.25, 74.15 -0.43 M20.16 67.93 C39.97 43.14, 59.72 21.81, 79.72 0.23 M22.45 66.95 C40.86 43.12, 59.79 20.72, 78.42 0.93 M27.53 66.55 C47.77 44.37, 67.25 21.77, 85.79 0.13 M26.42 66.69 C43.99 47.84, 61.77 26.66, 85.28 0.22 M30.46 66.08 C51.24 45.52, 71.76 22.66, 88.04 1.05 M31.67 65.94 C51 44.5, 70.27 22.34, 89.98 0.7 M38.95 66.96 C55.31 44.05, 79.01 18.81, 97.38 0.33 M37.08 66.1 C56.13 45.8, 73.75 23.68, 96.43 -0.24 M43.2 67.73 C57.15 51.67, 68.32 37.27, 100.57 0.53 M43.64 67.21 C60.48 44.89, 79.9 24.19, 99.94 -0.07 M46.24 67.19 C64.67 49.6, 77.59 32.81, 107.3 -0.43 M47.28 66.92 C67.8 44.06, 86.95 22.22, 106.58 -0.27 M55.04 66.47 C71.25 43.32, 88.97 23.16, 110.82 0.9 M54.18 67.42 C71.09 46.2, 88.41 28.08, 111.96 0.71 M57.14 67.23 C79.28 41.85, 102.56 14.11, 114.46 0.27 M57.56 66.36 C73.37 48.5, 88.37 29.8, 115.93 1.03 M63.8 65.7 C76.28 52.01, 91.52 36.8, 123.47 0.21 M65.04 65.83 C80.38 48.24, 97.74 28.75, 122.63 0.73 M70.58 66.89 C83.6 48.34, 98.13 31.14, 124.96 0.37 M69.39 67.24 C84.37 50.23, 97 32.85, 126.59 0.87 M75.85 67.39 C85.77 50.73, 98.63 36.04, 134.38 0.35 M73.23 67.06 C87.55 51.09, 100.51 37.42, 133.41 -0.74 M80.67 65.78 C91.01 54.07, 103.53 41.05, 130.85 7.94 M79.1 65.95 C97.51 46.09, 115.33 25.96, 131.32 5.38 M84.72 69.04 C98.63 52.92, 110.88 37.81, 131.44 11.82 M85.6 68.04 C97.18 52.45, 109.39 38.46, 131.56 12 M88.73 67.35 C103.19 53.08, 115.88 38.35, 131.28 18.07 M89.98 66.49 C104.46 50.88, 117.8 34.43, 132.73 18.46 M95.14 68.26 C107.54 54.45, 116.98 43.1, 132.72 26.52 M94.98 66.57 C102.61 58.28, 112.22 48.01, 132.16 23.84 M99.23 66.82 C109.17 55.66, 116.18 47.82, 131.83 29.61 M100.17 66.46 C108.1 58.96, 114.64 50.56, 132.54 30.6 M105.71 67.69 C115.98 53.05, 128.61 41.06, 130.98 38.52 M106.73 66.29 C116.36 56.24, 126.71 42.83, 132.76 37.58 M111.86 67.26 C119.6 58.11, 124.81 50.96, 133.37 42.04 M110.77 67.02 C120.14 58.51, 126.69 49.64, 132.52 43.64 M116.18 67.79 C121.33 62.77, 126.71 55.98, 130.85 48.94 M116.14 67.42 C122.23 61.11, 127.39 54.82, 132.47 48.88 M121.7 67.29 C124.27 65.22, 126.02 60.55, 131.98 54.59 M121.89 66.87 C124.94 62.98, 127.95 60.71, 132.25 55.66 M127.4 66.9 C128.51 65.02, 129.01 64.02, 132.38 61.63 M126.94 66.89 C128.88 65.5, 129.72 64.38, 132.86 60.93" stroke="#ced4da" stroke-width="0.5" fill="none"></path><path d="M1.75 0.73 C48.89 1.13, 97.59 -0.13, 131.31 -1.32 M0.87 -0.68 C30.03 0.17, 61.31 0.51, 133.02 -0.83 M132.55 -1.3 C133.45 20.12, 132.28 43.53, 131.19 67.32 M132.69 -0.6 C131.4 15.19, 132.57 32.53, 132 67.15 M132.51 66.39 C101.05 65.89, 71.39 65.41, 0.84 66.96 M132.11 67.35 C84.11 66.36, 37.24 65.33, 0.03 65.81 M-0.72 68.24 C0.67 44.04, 1.45 24.53, -0.12 1.65 M0.79 66.54 C0.39 53.36, -0.26 39.33, 0.76 0.3" stroke="#000000" stroke-width="1" fill="none"></path></g><g transform="translate(695.4453125 152.978515625) rotate(0 24.5 12.5)"><text x="24.5" y="18" font-family="Virgil, Segoe UI Emoji" font-size="20px" fill="#000000" text-anchor="middle" style="white-space: pre;" direction="ltr">Apply</text></g><g stroke-linecap="round" transform="translate(563.79296875 10) rotate(0 66.0703125 33.267578125)"><path d="M0 0 C0 0, 0 0, 0 0 M0 0 C0 0, 0 0, 0 0 M-0.61 7.13 C1.41 4.55, 4.01 2.76, 5.15 -0.41 M-0.57 6.72 C0.97 5.39, 2.16 3.65, 4.77 0.33 M0.83 11.55 C4.37 8.29, 6.33 2.86, 11.9 -0.22 M-0.11 12.46 C4.14 7.01, 7.48 2.86, 10.34 0.15 M1.01 20.09 C3.41 15.12, 9.8 7.75, 17.59 0.71 M-0.16 18.06 C4.73 14.89, 7.06 10.2, 14.99 0.92 M1.75 23.26 C4.76 20.02, 8.14 12.58, 22.79 0.14 M-0.12 23.32 C7.1 17, 12.08 9.06, 20.79 -0.87 M0.12 28.98 C9.83 18.59, 18.91 9.57, 28 0.96 M-0.87 30.17 C10.06 19.94, 18.51 9.6, 26.76 0.21 M1.58 35.13 C9.99 26.12, 16.7 16.03, 31.5 0.34 M-0.28 36.38 C7.98 27.59, 16.26 18.24, 32.11 -0.89 M0.01 43.84 C12.15 29.81, 22.89 17.81, 38.26 -0.2 M0.85 42.78 C10.42 31.71, 19.98 21.29, 37.09 -0.67 M1.69 47.86 C7.59 37.11, 17.78 26.14, 43.09 -0.66 M0.87 48.52 C9.51 38.15, 17.79 28.68, 42.25 -0.16 M-0.33 53.41 C13.41 37.8, 30.62 19.4, 47.22 -0.4 M-0.07 54.71 C14.77 39.33, 27.04 24.26, 47.25 0.04 M-1.49 62.35 C16.8 39.38, 34.99 19.85, 53.48 -0.06 M0.79 61.38 C17.69 39.34, 35.07 18.72, 52.18 0.64 M1.28 66.26 C21.3 44.34, 40.55 22, 58.89 0.59 M0.18 66.4 C17.54 47.77, 35.13 26.82, 58.37 0.68 M3.56 66.54 C24.56 45.73, 45.3 22.62, 61.79 0.76 M4.77 66.41 C24.32 44.71, 43.81 22.3, 63.74 0.41 M12.7 66.67 C28.84 44.03, 52.32 19.04, 70.48 0.79 M10.83 65.81 C29.67 45.75, 47.08 23.87, 69.53 0.22 M16.3 68.19 C30.39 51.96, 41.71 37.39, 74.33 0.24 M16.73 67.67 C33.79 45.11, 53.41 24.17, 73.69 -0.36 M19.99 66.9 C38.26 49.5, 51.01 32.9, 80.39 0.04 M21.03 66.63 C41.33 44.02, 60.27 22.42, 79.67 0.2 M28.14 66.93 C44.56 43.54, 62.49 23.14, 84.58 0.6 M27.27 67.88 C44.38 46.44, 61.89 28.09, 85.72 0.42 M30.89 66.94 C53.04 41.56, 76.32 13.82, 88.21 -0.02 M31.32 66.07 C47.12 48.21, 62.12 29.51, 89.69 0.74 M36.9 66.16 C49.53 52.31, 64.92 36.93, 97.22 -0.08 M38.14 66.29 C53.66 48.49, 71.22 28.78, 96.38 0.43 M44.33 66.6 C57.35 48.05, 71.89 30.85, 98.71 0.08 M43.14 66.95 C58.12 49.94, 70.76 32.55, 100.34 0.58 M49.6 67.09 C59.52 50.44, 72.38 35.75, 108.13 0.06 M46.98 66.76 C61.3 50.8, 74.26 37.13, 107.17 -1.04 M54.43 65.49 C65.83 52.44, 79.48 38.14, 109.85 1.61 M52.86 65.66 C73.05 43.76, 92.6 21.64, 110.32 -0.95 M58.47 68.75 C75.36 49.29, 90.56 30.78, 115.69 -0.55 M59.36 67.75 C73.55 49.03, 88.45 31.95, 115.81 -0.37 M62.48 67.05 C81.81 47.15, 99.45 26.72, 120.78 -0.34 M63.73 66.2 C83.38 44.47, 101.9 22.06, 122.22 0.06 M68.89 67.97 C87.44 47.3, 102.93 28.99, 127.47 2.08 M68.73 66.28 C80.96 52.59, 95.17 37.04, 126.9 -0.61 M72.33 67.28 C89.29 47.88, 103.39 31.88, 131.82 -0.87 M73.27 66.92 C87.22 52.25, 99.94 36.75, 132.54 0.12 M79.46 67.4 C99.95 40.71, 122.99 16.74, 130.98 8.04 M80.49 66 C100.45 44.2, 121.18 18.85, 132.76 7.1 M84.96 67.72 C102.11 47.76, 116.51 30.04, 133.36 11.56 M83.87 67.49 C103.47 47.46, 120.01 27.1, 132.52 13.16 M89.94 67.5 C101.97 54.45, 114.14 39.84, 130.84 18.46 M89.89 67.13 C104.47 50.64, 118.3 34.37, 132.47 18.4 M94.58 67.99 C103.37 59.21, 110.91 46.99, 131.91 23.89 M94.84 67.43 C105.14 55.19, 115.15 45.25, 132.28 25.31 M101.29 66.55 C108.24 57.23, 113.45 50.17, 132.11 32.23 M100.13 66.51 C109.14 58.1, 115.46 50.46, 133.3 30.5 M107.26 66.78 C114.55 55.3, 125.57 44.04, 130.71 35.22 M105.08 67.12 C114.59 56.45, 124.88 45.78, 131.38 37.61 M111.66 64.64 C119.34 58.68, 123.26 52.47, 133.12 42.84 M112.29 67.54 C119.44 57.41, 126.68 49.65, 131.51 43 M116.22 66.58 C121.92 64.18, 123.14 60.01, 130.84 49.68 M116.39 66.53 C120.8 63.42, 124 58.67, 131.94 48.94 M120.87 67.39 C124.71 64.72, 128.36 62.27, 133.06 53.82 M121.61 66.33 C124.32 64.29, 126.86 61.27, 132.23 54.93 M126.75 66.44 C129.01 64.87, 130.04 64.52, 131.77 61.04 M127.36 67.05 C129.1 65.07, 130.76 62.89, 132.33 60.86" stroke="#ced4da" stroke-width="0.5" fill="none"></path><path d="M0.21 -0.5 C42.87 -1.92, 88.51 0.54, 131.09 0.55 M0.99 -0.4 C45.5 -0.61, 89.71 -0.83, 131.96 0.36 M130.92 0.69 C134.5 21.73, 131.94 41.54, 131.39 64.67 M131.64 -0.13 C132.8 22.72, 133.21 44.93, 131.64 67.4 M133.3 67.89 C100.35 67.18, 69.93 67.31, 1.06 67.94 M131.97 66.04 C92.95 67.03, 55.28 66.29, 0.56 67.08 M1.49 68.49 C-0.35 42.83, -1.49 18.47, 0.59 -1.02 M-0.19 66.1 C0.33 49.25, -1.07 34.15, -0.66 -0.66" stroke="#000000" stroke-width="1" fill="none"></path></g><g transform="translate(610.36328125 30.767578125) rotate(0 19.5 12.5)"><text x="19.5" y="18" font-family="Virgil, Segoe UI Emoji" font-size="20px" fill="#000000" text-anchor="middle" style="white-space: pre;" direction="ltr">Join</text></g><g stroke-linecap="round"><g transform="translate(720.953125 130.650390625) rotate(0 -27.775171083817213 -23.824744325131178)"><path d="M-1.12 -0.07 C-10.13 -8.07, -46.05 -39.9, -55.03 -47.58 M0.49 -1.15 C-8.59 -9.09, -46.66 -38.77, -56.04 -46.62" stroke="#000000" stroke-width="1" fill="none"></path></g></g><g stroke-linecap="round"><g transform="translate(603.1140605039893 78.19737131788398) rotate(0 -75.67050959360779 177.15995659157633)"><path d="M-0.49 -0.53 C-25.8 58.63, -126.71 295.8, -151.76 354.85 M1.45 1.8 C-24.03 60.64, -127.37 294.26, -152.8 353.11" stroke="#000000" stroke-width="1" fill="none"></path></g></g><g stroke-linecap="round" transform="translate(590.6796875 255.921875) rotate(0 66.0703125 33.267578125)"><path d="M0 0 C0 0, 0 0, 0 0 M0 0 C0 0, 0 0, 0 0 M-0.97 7.13 C1.07 4.47, 3.18 2.61, 5.78 1.13 M-0.65 6.35 C1.4 4.81, 2.73 2.6, 4.76 0.33 M1.46 10.85 C2.44 9.37, 6.94 2.42, 9.6 -0.81 M0.24 11.87 C3.37 9.38, 5.13 5.39, 10.81 -0.34 M-0.8 19.15 C4.41 10.34, 12.32 4.32, 15.02 0.65 M-0.15 19.24 C5.13 14.22, 8.33 8.22, 15.68 -0.42 M0.42 22.67 C3.71 18.02, 10.66 13.17, 21.31 -0.95 M-0.01 24.45 C8.07 15.81, 15.57 6.38, 21.37 -0.42 M1.42 31.19 C3.55 24.41, 10.22 18.81, 28.06 0.56 M0.71 31.46 C10.89 17.68, 21.34 6.8, 26.53 -0.56 M-1.72 35.01 C6.9 25.45, 17.03 15.91, 32.83 0.09 M0.16 35.96 C6.31 28.2, 12.35 21.35, 31.08 0.35 M-0.79 43.02 C11.84 29.15, 21.01 17.24, 35.51 -0.66 M0.74 42.59 C11.64 29.64, 21.7 17.81, 37.16 -0.08 M0.37 49.12 C11.05 34.47, 23.17 19.56, 41.44 0.82 M-0.83 48.05 C15.28 29.55, 30.88 12.06, 42.38 -1 M0.36 55.07 C15.37 36.68, 31.44 20.73, 46.01 2.09 M1.19 54.85 C15.94 38.22, 30.13 19.52, 46.68 0.68 M0.88 60.63 C21.79 38.2, 40.21 11.64, 53.84 1.77 M0.34 60.23 C19.2 38.34, 36.98 15.62, 53.6 -0.78 M1.82 65.64 C11.77 53.2, 23.9 40.08, 59.35 1.75 M1.26 67.07 C16.44 48.05, 33.7 30.99, 59.11 0.96 M7.13 66.18 C17.18 50.06, 33.23 34.1, 61.92 1.27 M5.8 66.84 C18.43 52.5, 30.84 38.36, 62.93 -0.7 M12.23 66.73 C24.24 54.34, 35.47 40.05, 70.52 -0.93 M10.54 66.6 C24.71 51.68, 38.4 36.1, 69.35 -0.39 M16.35 68.26 C31.5 48.82, 46.62 32.34, 74.78 -0.52 M15.36 67.85 C37.29 43, 57.59 18.51, 74.51 0.14 M20.44 68.32 C37.54 49.23, 52.13 33.26, 77.7 -1.41 M21.52 67.51 C40.63 46.54, 58.16 24.43, 79.24 1.04 M27.74 67.22 C46.74 43.43, 66.55 20.72, 86.69 -1.65 M26.46 66.85 C47.98 40.81, 69.76 15.85, 84.36 -0.78 M30.96 66.12 C52.21 46.32, 67.48 23.44, 90.26 0.69 M33.1 66.42 C49.11 45.89, 65.94 26.83, 89.51 -0.7 M36.89 65.17 C52.34 46.28, 70.06 29.98, 97.1 1.66 M36.7 66.99 C60.71 40.87, 83.69 13.77, 96.42 0.6 M41.51 65.65 C61.9 45.78, 83.92 23.36, 100.75 1.55 M42.1 66.51 C55.68 51.08, 69.28 36.02, 99.79 0 M46.62 68.05 C65.34 42.47, 86.57 23.35, 106.67 -1 M48.6 67.03 C66.96 47.38, 83.91 26.06, 106.52 -1.05 M54.98 66.24 C68.96 46.72, 87.8 24.67, 112.91 1.15 M53.23 65.6 C76.49 39.43, 100.32 12.47, 110.62 0.36 M58.91 65.59 C74.12 46.76, 90.79 27.43, 116.57 -1.48 M57.58 67.29 C81.57 40.95, 104.05 16.06, 115.77 0.3 M63.45 65.06 C81.76 45.02, 98.72 27.78, 121.67 -0.68 M65.11 66.05 C87.22 39.6, 108.97 14.16, 121.46 -0.82 M70.95 67.36 C87.19 42.04, 110.87 20.13, 127.13 -0.08 M69.97 67.71 C82.12 51.94, 96.96 35.96, 127.11 0.98 M75.56 65.82 C90.69 47.6, 106.14 29.2, 133.16 -0.35 M73.62 67.61 C96.85 41.89, 119.79 15.64, 132.66 0.87 M79.11 66.72 C95.86 46.51, 113.66 26.62, 132.67 5.02 M78.98 65.82 C90.95 53.08, 103.29 38.82, 132.21 6.24 M83.06 67.77 C100.31 47.25, 116.58 28.34, 133.5 14.42 M84.49 66.34 C100.06 51.06, 114.1 34.41, 132.34 12.25 M90.93 64.86 C100.23 57.99, 107.7 44.68, 130.58 18.66 M90.77 66.74 C103.77 52.75, 114.89 37.42, 132.53 19.12 M96.94 66.27 C104.26 55.93, 112.42 46.05, 131.02 25.29 M95.42 67.16 C105.7 56.16, 114.17 43.93, 132.46 25.32 M101.15 66.76 C114.14 51.31, 124.92 40.94, 132.69 29.45 M100.37 67.18 C112.45 53.93, 123.05 41.77, 132.69 31.22 M106.05 65.71 C110.26 60.27, 115.39 53.66, 132.73 36.06 M106.65 66.83 C113.77 58.68, 119.89 49.79, 131.45 36.03 M111.71 65.23 C120.92 56.72, 125.89 47.69, 130.12 42.61 M111.74 67.46 C116.53 61.8, 119.99 56.47, 131.32 43.52 M116.41 68.3 C121.1 59.74, 128.36 51.12, 133.5 49.59 M116.34 66.71 C122.48 60.11, 127.65 53.15, 133.29 49.15 M123.38 65.31 C127.54 61.17, 130.23 58.45, 132.9 54.98 M121.87 67.24 C125.34 63.2, 129.05 58.7, 132.72 55.32 M127.27 66.59 C127.67 65.56, 129.58 63.78, 132.09 60.78 M127 66.87 C128.46 65.44, 130.42 63.19, 132.68 60.96" stroke="#ced4da" stroke-width="0.5" fill="none"></path><path d="M0.53 1.77 C36.89 -0.22, 77.74 1.04, 130.78 0.72 M0.85 0.94 C31.58 1.24, 64.27 1.63, 132.46 0.01 M130.77 1.9 C133.39 18.28, 132.22 39.76, 132.5 66.18 M132.65 0.29 C130.73 21.79, 131.94 43.09, 132.77 67.24 M133.7 66.17 C82.39 63.95, 28.87 64.93, -1.44 66.55 M132.65 66.81 C99.1 68.01, 65.48 66.86, -0.03 66.96 M0.74 65.76 C-1.75 47.17, -2.01 30.33, -0.67 -0.41 M0.39 65.74 C-0.52 44.14, -0.16 21.51, -0.92 0.7" stroke="#000000" stroke-width="1" fill="none"></path></g><g transform="translate(621.80078125 272.27734375) rotate(0 39.5 12.5)"><text x="0" y="18" font-family="Virgil, Segoe UI Emoji" font-size="20px" fill="#000000" text-anchor="start" style="white-space: pre;" direction="ltr">Distinct</text></g><g stroke-linecap="round" transform="translate(593.76953125 345.59765625) rotate(0 66.0703125 33.267578125)"><path d="M0 0 C0 0, 0 0, 0 0 M0 0 C0 0, 0 0, 0 0 M-0.93 6.34 C1.19 4.81, 3.5 2.5, 5.71 0.13 M-0.53 6.07 C1.68 3.85, 3.84 1.52, 5.2 0.3 M-0.34 11.05 C3.14 8.19, 8.39 3.17, 10.51 -1.14 M0.62 12.37 C4.11 6.98, 8.75 3.33, 10.93 -0.32 M-1.2 17.15 C2.87 11.42, 11.6 8.15, 14.11 1.92 M0 18.44 C3.13 14, 8.68 10.63, 15.98 0.69 M1.15 24.27 C4.53 20.05, 9.18 14.12, 20.89 -0.29 M1.01 24.98 C6.94 16.74, 12.7 9.75, 20.61 -0.02 M0.39 31.34 C8.16 21.72, 12.97 17.27, 27.66 -1.09 M-0.03 31.22 C7.94 22.55, 14.93 13.31, 25.55 0.25 M-0.48 38.37 C7.53 25.99, 16.94 14.32, 30.21 -0.57 M0.65 36.79 C11.37 22.25, 23.48 9.64, 32.15 0.57 M0.92 42.28 C7.01 30.5, 16.86 20.97, 38.21 2.02 M-0.62 42.13 C13.17 25.72, 27.47 10.37, 36.06 0.41 M0.47 49.1 C9.98 37.59, 19.01 27.08, 40.57 0.1 M-0.03 48.8 C14.25 32.42, 30.11 15.31, 43.52 -0.37 M0.29 54.56 C18.33 37.48, 32.7 15.26, 48.31 -0.29 M1.27 54.28 C10.82 41.09, 21.4 28.19, 46.95 0.62 M-0.37 59.95 C11.78 48.68, 20.89 34.86, 51.94 -0.71 M0.86 60.06 C11.47 47.87, 22.36 36.41, 53.2 0.29 M0.21 68 C23.25 41.13, 42.5 18.35, 56.33 1.64 M1.23 65.67 C19.39 46.96, 36.23 25.62, 57.23 0.21 M6.38 68.75 C16.98 55.49, 30.15 38.43, 62.1 1.73 M4.72 66.74 C21.49 49.01, 39.08 28.73, 64.27 0.59 M10.71 65.5 C28.34 48.05, 43.58 26.7, 68.46 -1.37 M11.95 67.14 C28.63 45, 48.03 24.63, 69.53 0.43 M16.65 68.6 C39.83 40.03, 60.56 14.24, 74.62 -0.66 M15.29 66.97 C34.27 45.22, 51.98 24.05, 74.39 -0.51 M22.62 65.33 C36.46 48.87, 50.21 33.36, 78.67 -1.29 M21.74 66.61 C36.38 48.23, 50.89 31.8, 80.07 0.43 M24.93 67.81 C49.37 42.63, 68.15 18.14, 86.92 -0.75 M26.67 66.82 C41.95 50.71, 55.92 34.57, 85.83 -1.17 M31.1 64.85 C48.19 47.49, 66.41 25.53, 88.79 -0.91 M31.97 66.8 C47.67 49.66, 61.81 33.53, 90.65 -0.73 M38.78 65.84 C54.8 48.4, 68.89 31.16, 94.19 -0.24 M37.79 66.22 C59.16 40.48, 82.93 15.32, 95.43 -0.62 M41.1 64.62 C63.46 44.1, 79.62 20.65, 100.42 -1.84 M42.64 67.34 C59.11 49.19, 74.07 31.35, 100.67 -0.08 M49.56 67.34 C63.32 51.7, 74.22 37.59, 105.48 -1.64 M47.17 67.02 C62.86 49.95, 79.13 33.08, 106.65 -1.19 M55.4 68.37 C71.24 44.01, 93.56 20.73, 111 -0.48 M54.31 66.78 C64.83 51.95, 77.15 38.32, 111.14 -0.76 M60.46 66.14 C72.3 50.17, 87.32 32.62, 114.95 0.49 M58.94 66.94 C78.42 42.97, 99.67 19.82, 116.88 0.45 M62.58 67.03 C79.42 48.04, 94.5 27.98, 121.77 -0.07 M64.14 66.58 C78.27 50.03, 91.65 34.16, 122.63 0.02 M70.47 65.26 C83.31 50.33, 97.93 31.18, 128.57 0.49 M68.82 67.66 C91.55 41.36, 112.41 18.03, 126.06 0.26 M72.39 67.48 C89.76 49, 109.99 27.78, 133.79 1.36 M73.25 67.83 C87.73 52.34, 100.25 38.74, 133.33 0.94 M78.39 64.91 C95.94 47.9, 112.68 28.57, 130.9 8.22 M80.1 66.72 C100.83 42.28, 121.23 17.5, 131.52 5.44 M86.36 65.5 C97.98 53.13, 110.17 36.93, 132.78 11.77 M85.31 66.3 C97.77 50.42, 112 34.61, 131.87 13.42 M90.85 66.5 C102.39 55.52, 111.91 42.46, 134.2 17.92 M89.69 67.6 C102.65 51.15, 116.37 36.85, 133.08 19.27 M93.85 66.35 C104.13 58.26, 111.8 47.06, 131.21 25.93 M94.6 66.9 C107.52 52.62, 119.98 37.34, 131.43 24.38 M102.27 68.6 C112.92 54.28, 120.36 44.99, 133.83 28.98 M100.09 65.67 C112.22 53.66, 123.75 41.24, 132.4 29.92 M106.7 65.71 C112.67 59.67, 115.42 52.91, 132.94 38.11 M106.66 66.72 C113.2 59.34, 119.24 50.79, 132.31 36.96 M110.89 66.98 C116.01 61.62, 119.59 57.51, 133.01 42.77 M111.39 66.2 C116.06 62.48, 119.55 57.7, 131.85 43.24 M118.56 66.43 C122.13 59.42, 128.09 55.14, 134.25 47.01 M117.64 67.72 C122.52 61.6, 126.72 55.93, 133.07 49.48 M122.67 66.61 C124.85 63.2, 129 57.83, 131.12 54.01 M123.03 66.43 C125.68 63.66, 128.98 59.36, 132.3 55.62 M127.94 66.8 C127.75 65.56, 129.08 63.42, 132.05 60.76 M127.69 66.89 C129.03 65.06, 131.04 62.53, 132.28 60.6" stroke="#ced4da" stroke-width="0.5" fill="none"></path><path d="M-0.24 0.28 C33.64 0.93, 68.53 -0.6, 131.71 -1.19 M0.78 0.76 C31.62 -1.34, 62.32 -0.99, 131.34 -0.89 M132.54 -1.71 C131.36 21.87, 132.56 43.1, 131.47 67.03 M132.3 -0.93 C131.45 23.41, 131.93 45.2, 132.89 66.02 M133.95 65.89 C103.96 68.01, 72.93 67.98, 1.43 65.06 M132.76 67.52 C101.27 68.15, 68.83 68.4, -0.29 65.67 M-1.7 64.6 C-1.71 54.05, -1.26 37.04, 0.47 -1.97 M-0.24 65.54 C-0.78 42.02, 0.07 15.24, -0.47 0.8" stroke="#000000" stroke-width="1" fill="none"></path></g><g transform="translate(624.890625 361.953125) rotate(0 37 12.5)"><text x="0" y="18" font-family="Virgil, Segoe UI Emoji" font-size="20px" fill="#000000" text-anchor="start" style="white-space: pre;" direction="ltr">Project</text></g><g stroke-linecap="round"><g transform="translate(714.2232040983531 197.59886575884656) rotate(0 -26.880793501259745 27.28494756517003)"><path d="M-1.01 0.12 C-9.79 9.32, -45.14 45.23, -53.9 54.39 M0.67 -0.86 C-8.1 8.54, -45.36 45.91, -54.43 55.43" stroke="#000000" stroke-width="1" fill="none"></path></g></g><g stroke-linecap="round"><g transform="translate(653.7401685012596 322.64278680983) rotate(0 0.10401080347503466 12.515734136779827)"><path d="M-0.65 -0.32 C-0.77 4, 0.1 22.09, 0.06 26.56 M1.21 -1.53 C0.85 2.37, -1.04 20.35, -1 24.67" stroke="#000000" stroke-width="1" fill="none"></path></g></g><g stroke-linecap="round"><g transform="translate(659.3764579465253 413.5682502382201) rotate(0 -101.97189131304629 12.789143775091532)"><path d="M0.22 1.04 C-34 5.26, -170.46 20.95, -204.17 25.04 M-1.12 0.53 C-35.08 4.41, -168.49 19.26, -201.99 23.12" stroke="#000000" stroke-width="1" fill="none"></path></g></g><g stroke-linecap="round"><g transform="translate(846.6886881880464 280.5565593499084) rotate(0 -65.03311653376568 -40.7002192816837)"><path d="M-0.81 0.91 C-22.7 -12.48, -108.67 -66.84, -130.33 -80.51 M0.97 0.35 C-21.13 -13.38, -108.95 -68.95, -131.04 -82.31" stroke="#000000" stroke-width="1" fill="none"></path></g></g><g stroke-linecap="round" transform="translate(781.8359375 286.375) rotate(0 66.0703125 33.267578125)"><path d="M0 0 C0 0, 0 0, 0 0 M0 0 C0 0, 0 0, 0 0 M-1.05 5.68 C0.49 4.69, 2.74 3.54, 5.14 -0.03 M0.06 6.58 C1.25 4.96, 2.72 3.58, 4.61 0.27 M1.32 12.19 C5.93 7.23, 7.71 0.91, 9.83 0.03 M-0.05 11.77 C3.92 7.93, 6.45 3.95, 10.85 -0.73 M1.12 20.34 C4.88 12.98, 12.93 3.83, 16.59 -1.63 M-0.96 18.84 C2.55 15.16, 6.35 10.99, 14.66 -0.04 M-0.43 23.9 C7.14 18.51, 12.71 9.17, 19.74 -0.68 M0.66 23.86 C5.01 18.27, 9.61 13.07, 21.43 -0.73 M0.07 31.12 C6.5 21.32, 15.38 12.89, 25.22 2.25 M0.9 31.47 C9.59 18.11, 18.56 6.99, 25.38 1.13 M0.04 38.28 C11.53 23.54, 21.96 8.04, 31.03 -1.04 M-0.04 37.14 C10.18 24.23, 21.19 10.7, 31.94 0.1 M-0.91 44.18 C10.68 33.61, 17.83 22.13, 35.6 -0.08 M0.26 42.33 C11.43 29.14, 23.64 15.29, 36.7 0.17 M-1.06 48.49 C13.24 30.61, 29.82 13.98, 40.93 0.28 M0.47 49.66 C13.79 30.9, 29.87 14.17, 42.64 -0.35 M1.87 54.58 C15.39 34.62, 31.48 14.71, 49.24 2.09 M0.21 54.6 C17.7 32.97, 35.55 14.64, 47.02 0.17 M-0.63 59.74 C17.84 39.84, 34.57 22.82, 54.06 0.39 M0.82 60.42 C22.22 35.71, 43.16 12.84, 52.64 -0.43 M-0.73 65.19 C16.9 46.57, 35.55 28.52, 56.87 1.3 M0.72 67.07 C15.12 49.83, 29.63 32.42, 58.66 0.85 M3.56 68.28 C29.06 42.26, 52.3 16.81, 62.22 0.21 M5.44 66.18 C22.91 47.19, 39.43 28, 63.94 -0.9 M11.83 66.62 C30.37 45.11, 45.52 26.07, 70.37 -0.13 M11.19 66.02 C23.87 51.45, 36.9 37.81, 67.83 0.48 M17.63 66.19 C28.11 51.46, 39.69 37.71, 76.39 0.51 M15.43 66.38 C31.95 48.98, 48.04 29.54, 73.47 -0.91 M22.31 65.43 C37.94 49.31, 51.98 31.18, 78.83 1.96 M20.91 67.5 C38.79 47.76, 55.29 28.64, 78.65 -0.03 M27.69 65.41 C44.87 45.41, 61.09 24.64, 86.77 -2.18 M26.52 67.06 C44.89 46.86, 61.75 24.16, 85.05 -0.03 M31.14 67.93 C54.65 40.62, 75.3 14.37, 88.52 1.53 M32.57 67.07 C44.63 52.26, 57.84 35.82, 89.14 0.78 M38.25 65.65 C55.18 48.53, 70.09 28.21, 94.71 0.52 M37.62 66.83 C58.2 43.17, 78.6 18.52, 95.42 -0.23 M41.92 68.23 C63.84 44.59, 78.97 24.71, 98.91 -1.65 M43.79 65.87 C65.06 41.57, 85.78 17.24, 101.25 0.99 M47.02 68.44 C61.62 52.18, 73.64 34.99, 104.77 0.79 M47.55 66.89 C61.74 50.32, 76.82 33.8, 106.2 0.1 M53.47 68.28 C70.39 47.67, 88.12 26.94, 110.64 2.01 M53.07 66.66 C69.21 50.38, 82.26 33.66, 110.81 -0.73 M56.9 65.11 C80.67 41.78, 103.62 17.79, 116.03 -0.62 M59.01 67.02 C75.66 45.97, 92.56 26.8, 115.29 0.93 M63.77 65.8 C82.54 44.64, 101.16 22.06, 121.54 -0.09 M63.84 65.77 C80.87 48.23, 97.52 29.99, 121.57 0.88 M67.98 64.81 C92.54 41.15, 112.67 15.21, 128.74 -1.42 M68.63 67.62 C85.44 48.02, 101.33 31.17, 127.45 -0.43 M73.35 67.11 C87.41 52.41, 97.42 36.92, 130.65 1.26 M73.75 67.89 C91.71 47.67, 107.84 27.47, 133.19 -0.32 M81.53 66.51 C93.3 50.41, 106.32 34.83, 131.11 4.81 M78.94 67.66 C98.99 43.61, 120.22 21.05, 133.12 7.2 M83.89 68.08 C103.34 49.19, 119.27 27.38, 131.01 13.91 M85.37 67.03 C98.2 54.07, 111.02 38.65, 132.06 12.94 M92 66.97 C101.14 55.23, 108.93 46.26, 132.43 17.49 M90.36 66.72 C103.22 52.59, 116.48 38.29, 131.58 17.83 M94.28 66.62 C105.57 53.05, 117.95 38.92, 131.83 25.12 M96.16 67.08 C107.16 53.32, 118.78 40.75, 131.46 24.12 M103.05 64.79 C109.68 59.29, 115.64 48.59, 134.46 29.83 M101.25 66.97 C112.96 54.16, 125.44 40.66, 132.24 31 M107.26 67.75 C113.63 55.97, 123.77 47.8, 131.04 38.3 M105.17 66.74 C116.39 55.94, 125.23 44.64, 132.11 37.61 M111.52 68.36 C116.98 62.09, 121.28 57.86, 132.2 41.65 M111.84 67.16 C118.7 56.62, 127.82 47.35, 131.52 42.65 M116.77 68.26 C123.66 59.49, 127.07 54.03, 132.41 49.89 M116.36 66.33 C119.96 63.19, 123.72 58.31, 133.29 49.64 M123.14 67.57 C124.06 64.91, 127.17 62.55, 133.43 54.53 M122.3 66.64 C123.97 63.96, 126.39 60.91, 132.57 55.86 M127.55 67.67 C128.16 66.06, 129.63 63.93, 132.7 61.42 M127.01 67.27 C129.53 64.69, 131.44 62.49, 132.41 60.96" stroke="#ced4da" stroke-width="0.5" fill="none"></path><path d="M-0.92 1.57 C51.15 0.05, 103.94 0.16, 133.29 0.49 M-0.11 0.03 C42.01 0.43, 86.09 0.93, 132.28 -0.21 M132.42 -1.96 C131.64 21.27, 130.69 42.65, 132.18 67.67 M132.07 0.12 C131.73 14.95, 132.33 30.15, 133.09 65.59 M131.13 67.71 C96.78 64.72, 57.22 65.1, 1.79 66.94 M132.26 67.48 C90.55 64.85, 48.31 65.57, 0.2 66.97 M1.07 64.66 C0.9 41.64, 0.07 15.99, -1.94 1.82 M0.5 65.7 C-1.08 47.13, 0.63 27.85, 0.58 -0.64" stroke="#000000" stroke-width="1" fill="none"></path></g><g transform="translate(828.40625 307.142578125) rotate(0 19.5 12.5)"><text x="19.5" y="18" font-family="Virgil, Segoe UI Emoji" font-size="20px" fill="#000000" text-anchor="middle" style="white-space: pre;" direction="ltr">RHS</text></g><g stroke-linecap="round" transform="translate(73.1953125 62.501953125) rotate(0 66.0703125 33.267578125)"><path d="M0 0 C0 0, 0 0, 0 0 M0 0 C0 0, 0 0, 0 0 M-0.37 7.17 C1.69 4.41, 3.62 1.57, 5.59 0.35 M-0.62 6.75 C1.26 4.27, 2.98 3.05, 5.15 0.04 M0 12.83 C4.41 8.95, 4.36 4.51, 10.76 -1.09 M0.67 11.92 C2.91 9.27, 6.27 5.9, 11.05 0.69 M0.66 17.65 C3.35 13.72, 8.12 12.34, 16.77 -1.32 M0.06 17.79 C3.82 14.06, 8.83 7.48, 15.46 0.9 M-0.16 22.68 C5.21 18.74, 9.55 13.11, 20.5 1.33 M-0.59 23.68 C7.75 14.69, 15.5 5.8, 21.72 -0.86 M-1.76 29.26 C10.74 18.23, 17.75 11.28, 25.4 1.27 M0.76 30.72 C9.72 19.83, 20.07 6.78, 27.06 -0.05 M1.54 38 C10.21 26.04, 20.53 14.23, 33.33 0.98 M-0.2 36.14 C6.84 29.04, 13.48 21.26, 31.57 -0.56 M0.23 43.38 C11.75 28.74, 23.33 14.64, 37.24 0.97 M0.08 42.45 C13.18 27.75, 24.11 13.68, 37.18 0.49 M1.51 48.11 C10.38 36.43, 19.23 23.42, 44.26 1.85 M-0.87 48.65 C12.1 34.28, 25.3 18.98, 42.9 -0.41 M-0.18 54.01 C16.99 36.09, 32.16 16.71, 48.35 -1.53 M1.09 53.91 C18.23 33.97, 36.36 13.8, 47.71 -0.12 M1.39 60.17 C13.72 45.03, 24.78 32.02, 53.42 -1.96 M-0.48 60.47 C16.07 43.77, 31.15 25.86, 53.8 0.01 M-0.57 65.01 C11.88 53, 23.9 41.95, 57.97 -1.74 M0.75 66.64 C20.66 43.3, 42.42 20.63, 57.44 1.1 M3.93 66.41 C25.63 44, 46.79 20.02, 62.16 1.44 M5.88 67.65 C18.85 49.44, 33.31 33.68, 64.26 -0.3 M9.12 65.93 C32.81 42.53, 54.66 14.41, 68.52 0.65 M10.42 66.71 C24.62 51.54, 37.77 35.64, 68.07 0.71 M17.79 68.87 C27.06 53.34, 39.89 37.5, 73 -2.22 M16.79 67.87 C35.94 44.24, 55.46 21.28, 74.18 0.28 M23.18 68.33 C38.36 44.86, 60.44 21.96, 77.63 1.75 M22.4 66.93 C43.2 42.28, 64.79 16.86, 80.2 0.84 M25.6 67.46 C40.67 48.64, 57.94 33.44, 85.64 -1.44 M26.48 66.45 C45.17 45.49, 62.49 24.64, 85.38 -0.06 M31.57 65.47 C48.7 46.8, 64.57 26.26, 90.09 1.49 M31.36 66.62 C47.29 48.5, 62.48 31.62, 89.36 -0.74 M38.42 67.86 C51.54 50.53, 66.34 34.3, 96.99 1.13 M37.33 66.25 C54.41 47.16, 71.74 27.06, 95.56 -0.52 M41.43 68.45 C56.33 46.42, 74.77 30.74, 101.91 -0.38 M43.89 65.69 C65.94 40.9, 88.16 13.69, 99.95 -0.7 M46.47 67.57 C62.05 50.46, 76.92 34.56, 105.13 0.64 M48.64 67.75 C67.07 43.37, 86.71 21.72, 106.36 0.28 M53.1 66.15 C73.03 43.08, 93.37 20.16, 112.25 -0.31 M54.5 66.65 C74.16 43.07, 93.78 19.13, 111.31 -0.12 M59.2 67.89 C79.55 42.97, 103.34 13.29, 116.67 -1.19 M58.6 66.99 C73.01 48.86, 90.15 31.76, 116.64 1.08 M64.1 65.3 C80.24 49.11, 96.42 26.73, 123.48 1.07 M63.57 66.62 C84.69 42.06, 106.13 18.71, 121.66 -0.45 M69.22 65.93 C89.45 44.39, 104.58 25.33, 125.39 0.9 M68.34 67.64 C84.87 47.03, 102.06 29.26, 127.15 0.93 M72.49 67.17 C92.03 46.95, 111.18 25.99, 133.16 -1.06 M74.78 68.04 C92.45 45.59, 111.68 23.25, 132.13 0.42 M80.32 66.64 C96.02 47.11, 115.8 25.7, 131.03 6.28 M79.84 66.93 C97.62 48.23, 113.51 27, 131.33 5.8 M83.47 68.59 C94.06 54.63, 105.99 44.43, 130.88 13.13 M85.63 67.7 C103.51 47.17, 121.24 26.63, 131.63 13.03 M91.51 66.75 C103.76 51.7, 114.1 36.79, 132.43 17.36 M90.05 65.71 C103.49 51.99, 115.78 37.94, 132.42 17.46 M93.47 66.46 C108.62 48.7, 125.61 32.98, 132.37 24.85 M95.61 67.24 C106.62 52.73, 119.61 37.33, 132.91 25.1 M100.96 66.81 C110.24 56.3, 118.1 46.75, 130.85 32.32 M100.77 66.4 C110.88 56.12, 118.06 48.02, 132.82 30.22 M104.78 66.75 C117.8 54.98, 126.67 42.7, 132.09 37.48 M106.73 66.13 C114.03 59.31, 120.16 50.36, 133.17 36.31 M110.04 67.21 C117.37 58.4, 123.95 51.74, 130.85 41.92 M110.75 67.05 C116.73 60.45, 121.8 54.26, 132.94 43.77 M116.83 65.23 C119.17 62.42, 123.09 57.78, 132.35 49.45 M116.94 66.46 C121.75 61.65, 127.23 55.43, 133.17 49.13 M123.06 67.73 C124.73 63.32, 126.47 62.1, 132.15 56.2 M121.79 67.09 C124.67 63.88, 127.23 60.79, 132.83 55.94 M126.9 67.16 C129.57 64.21, 131.75 62.1, 131.79 60.15 M127.61 66.92 C128.76 65.54, 130.1 63.38, 132.56 61.21" stroke="#ced4da" stroke-width="0.5" fill="none"></path><path d="M0.22 0.65 C36.99 0.9, 74.68 -0.61, 134.1 0.67 M0.89 0.94 C32.87 -0.03, 63.84 1.34, 131.38 0.81 M132.7 -1.59 C133.33 12.76, 132.14 28.9, 133.85 66.08 M132.39 0.8 C132.48 16.84, 130.93 35.32, 132.91 67 M131.45 67.63 C82.17 65.05, 31.35 65.27, 1.52 66.59 M132.27 66.97 C103.57 65.38, 73.33 66.02, -0.66 66.58 M0.19 67.05 C1.14 44.59, 2.14 20.58, -1.48 0.79 M0.23 65.63 C0.04 46.85, 0.75 28.03, 0.44 -0.64" stroke="#000000" stroke-width="1" fill="none"></path></g><g transform="translate(114.765625 83.26953125) rotate(0 24.5 12.5)"><text x="24.5" y="18" font-family="Virgil, Segoe UI Emoji" font-size="20px" fill="#000000" text-anchor="middle" style="white-space: pre;" direction="ltr">Apply</text></g><g stroke-linecap="round" transform="translate(10 186.212890625) rotate(0 66.0703125 33.267578125)"><path d="M0 0 C0 0, 0 0, 0 0 M0 0 C0 0, 0 0, 0 0 M-0.08 6.46 C2.06 3.35, 4.25 1.85, 4.88 -0.17 M-0.28 6.04 C2.01 4.19, 4 1.39, 4.85 0.11 M1.54 12.13 C1.51 7.63, 5.87 4.5, 10.2 1.17 M0.13 12.6 C3.94 8.63, 7.28 4.96, 9.93 0.16 M0.05 17.61 C6.57 14.2, 11.29 4.95, 15.31 2.27 M-0.49 19.1 C3.52 13.73, 6.69 11.05, 14.71 -0.19 M0.69 23.79 C6.93 16.18, 12.04 11.27, 22.78 -1.95 M-0.37 23.77 C5.95 16.85, 13.46 8.97, 21.61 -0.19 M1.92 28.52 C10.26 20.52, 19.1 8.98, 27.91 -0.45 M-0.45 31.21 C5.61 22.78, 12.57 16.29, 26.41 1.19 M0.37 37.53 C7.61 28.69, 15.71 20.68, 30.16 1.75 M0.32 36.75 C7.92 28.09, 15.07 18.64, 32.28 -0.51 M-0.87 42.73 C5.98 33.89, 15.94 25.29, 37.68 1.98 M1.05 41.84 C7.7 32.75, 16.85 23.93, 36.34 -0.19 M-0.36 48.7 C11.97 31.39, 30.02 17.94, 42.46 -1.94 M-1.01 49.22 C16.35 29.68, 33.55 10.89, 43.06 -0.3 M0.17 55.47 C14.09 37.79, 31.96 17.6, 48.94 -1.55 M0.19 54.58 C18.62 33.87, 36.63 12.42, 47 0.17 M0.43 60.7 C17.88 40.06, 40.02 13.18, 53.13 0.31 M0.34 61.56 C11.05 49.28, 23.37 35.62, 52.16 0.51 M0.71 65.79 C12.99 55.27, 23.69 38.53, 59.22 -0.32 M0.04 66.61 C16.24 50.05, 29.73 32.69, 58.79 -0.63 M3.75 67.97 C15.9 55.08, 27.94 41.54, 62.77 1.59 M4.9 65.97 C19.84 48.87, 36.26 31.12, 64.69 -0.44 M10.11 68.51 C27.79 46.1, 46.9 26.44, 67.23 -1.82 M11.08 66.63 C31.72 42.49, 50.71 21.05, 68.02 1.11 M14.56 68.77 C34.33 43.7, 55.37 16.81, 75.18 -1.16 M15.86 67.26 C35.35 43.19, 55.8 20.28, 74.64 0.1 M19.94 66.36 C40.66 43.93, 54.97 26.72, 80.87 0.31 M21.69 67.09 C38.47 46.4, 56.49 27.33, 78.9 -0.31 M25.78 65.24 C44.24 48.9, 58.49 30.03, 85.37 0.81 M27.05 66.91 C45.05 45.67, 65.2 23.55, 84.95 -1.03 M31.43 65.84 C45.52 47.91, 62.12 34.24, 89.22 -1.8 M31.69 65.95 C52.05 43.77, 71.32 20.65, 89.55 -0.01 M36.72 67.26 C51.4 50.44, 68.23 33.49, 95.51 0.05 M37.48 66.91 C56.63 45.04, 74.94 23.52, 95.43 0.61 M41.02 65.27 C66.76 41.21, 90.09 13.21, 102.55 1.82 M43.75 66.78 C56.54 50.11, 69.58 33.95, 100.01 -0.5 M47.92 66.55 C69.68 43.06, 87.55 21.21, 106.96 0.93 M48.05 65.87 C66.55 44.44, 85.06 23.69, 106.82 -0.97 M52.32 66.75 C73.02 43.66, 95.69 18.99, 112.32 -1.06 M53.49 66.71 C72.28 42.88, 93.15 19.92, 112.21 0.28 M57.08 68.64 C71.5 49.17, 85.72 33.85, 115.63 0.38 M57.56 66.99 C80.12 43.49, 100.7 19.26, 116.09 0.62 M64.13 68.22 C85.19 40.57, 108.04 19.18, 123.19 -0.85 M63.42 66.5 C84.59 43.81, 104.96 19.09, 121.98 -1 M71.1 64.86 C86.83 45.32, 104.3 25.38, 126.56 0.89 M68.74 66.07 C90.15 43.57, 109.96 20.84, 127.11 1.08 M73.78 68.17 C88.82 52.57, 103.46 33.74, 132.98 1.85 M74.31 67.25 C92.41 45.19, 109.46 25.48, 133.08 0.93 M78.06 68.36 C93.92 51.3, 107.98 32.64, 132.78 5.06 M80.19 67.49 C91.31 51.61, 103.41 37.79, 131.42 6.01 M83.78 66.65 C104.19 46.75, 120.44 25.19, 133.57 13.08 M85.79 67.37 C96.39 54.2, 106.23 41.43, 132.01 12.75 M91.24 66.11 C101.54 50.94, 115.64 36.36, 132.41 16.5 M90.46 66.22 C100.71 55.16, 111.29 42.39, 133.38 17.82 M93.83 65.79 C111.27 50.12, 125.22 33.65, 132.97 26.28 M94.43 67.14 C106.07 53.13, 118.59 41.42, 132.12 25.32 M101.11 66.87 C107.47 59.03, 115.02 50.52, 131.99 28.6 M101.98 65.85 C108.92 58.23, 117.88 47.6, 133.49 30.45 M107.48 66.77 C113.09 58.48, 119.81 51.87, 131.93 35.04 M106.37 67.7 C111.55 59.82, 120.04 51.4, 132.24 36.44 M111.29 65.24 C117.66 58.98, 121.89 52.4, 131.38 41.37 M111.08 66.54 C115.36 61.41, 121.69 56.88, 131.27 42.26 M115.47 66.57 C121.51 59.61, 127.89 54.7, 133.03 50.01 M116.66 67.74 C122.76 60.83, 129.1 53.83, 131.73 49.75 M122.56 65.86 C124.25 64.56, 126.79 62.22, 131.7 56.08 M122.09 66.93 C125.17 63.27, 129.26 60.07, 132.87 55 M127.48 66.57 C128.97 65.27, 129.25 63.08, 132.35 60.41 M127.28 67.2 C128.79 64.8, 130.57 63.45, 132.28 61.14" stroke="#ced4da" stroke-width="0.5" fill="none"></path><path d="M-1.22 0.26 C31.41 -1.68, 68.27 0.25, 130.98 0.67 M0.92 -0.62 C33.72 -0.49, 66.79 -0.43, 131.2 -1 M133.99 -0.93 C133 20.17, 134.04 36.82, 131.34 65.58 M132.8 -0.44 C131.41 22.23, 133.08 43.4, 133.03 66.92 M133.5 65.23 C96.13 66.17, 57.9 67.32, -1.6 65.28 M132.61 65.64 C94.38 66.86, 57.4 67.16, 0.51 65.82 M0.66 67.94 C1.6 41.01, -1.55 14.79, -0.18 0.2 M0.1 66.21 C0.67 49.97, 0.29 32.33, -0.82 -0.75" stroke="#000000" stroke-width="1" fill="none"></path></g><g transform="translate(41.12109375 202.568359375) rotate(0 18.5 12.5)"><text x="0" y="18" font-family="Virgil, Segoe UI Emoji" font-size="20px" fill="#000000" text-anchor="start" style="white-space: pre;" direction="ltr">LHS</text></g><g stroke-linecap="round"><g transform="translate(133.5435165983531 127.88988138384661) rotate(0 -26.996211892971758 28.273761234739823)"><path d="M-0.75 1.17 C-9.83 10.45, -45.38 45.7, -54.31 54.63 M1.05 0.74 C-8.16 10.26, -45.72 46.62, -55.04 55.8" stroke="#000000" stroke-width="1" fill="none"></path></g></g><g stroke-linecap="round"><g transform="translate(226.2199381880464 189.4256999749084) rotate(0 -45.46693182021846 -29.343216784219265)"><path d="M0.4 -0.7 C-14.57 -10.93, -75.54 -50.59, -90.6 -60.24 M-0.84 1.55 C-15.87 -8.02, -76.45 -48.67, -91.34 -58.98" stroke="#000000" stroke-width="1" fill="none"></path></g></g><g stroke-linecap="round" transform="translate(160.21484375 187.349609375) rotate(0 66.0703125 33.267578125)"><path d="M0 0 C0 0, 0 0, 0 0 M0 0 C0 0, 0 0, 0 0 M-0.79 7.08 C0.98 4.85, 3.63 1.16, 5.38 0.68 M-0.51 6.26 C1.54 4.55, 3.72 2.32, 4.63 0.08 M1.34 12.42 C4.52 8.11, 6.67 5.74, 11.6 0.94 M0.33 12.27 C4.04 7.55, 7.5 3.28, 11.27 0.62 M1.81 16.89 C6.03 10.68, 10.57 6.82, 15.97 -1.22 M-0.65 18.41 C4.03 12.73, 8.93 8.14, 15.8 -0.11 M-1.62 24.05 C3.88 16.8, 9.82 10.65, 19.68 -0.3 M0.15 24.83 C6.84 15.04, 15.95 6.31, 21.33 0.53 M-0.74 29.05 C8.12 22.98, 12.46 16.17, 25.92 -1.2 M0.91 29.79 C11.01 19.49, 20.43 7.75, 26.63 0.56 M1.59 35.75 C11.61 21.92, 24.62 9.39, 32.62 -0.14 M-0.66 35.98 C8.59 27.25, 16.67 17, 30.96 0.11 M1.86 40.98 C11.56 28.78, 25.19 14.13, 35.58 -0.5 M-0.31 42.9 C12.99 28.35, 24.19 14.69, 35.92 -0.31 M-1.92 50.64 C14.4 29.42, 30.6 11.58, 41.82 -0.98 M-0.28 49.17 C14.21 31.81, 28.81 15.94, 41.69 0.25 M-1.5 56.31 C18.54 34.32, 32.9 17.09, 48.49 0.33 M0.21 55.34 C16.27 37.01, 30.9 19.88, 46.61 1.22 M0.49 59.18 C16.25 40.82, 34.54 23.82, 52.22 1.74 M0.69 59.96 C18.8 38.38, 38.82 16.47, 53.5 0.59 M-0.11 65.84 C18.56 47.01, 33.96 27.59, 60.02 1.93 M-0.42 65.63 C12.34 50.67, 25.53 36.18, 57.23 0.98 M7.19 66.22 C18.62 53.92, 29.44 35.83, 62.61 -0.24 M5.16 67.03 C24.79 42.77, 45.58 20.71, 62.97 -0.33 M9.07 67.49 C26.26 48.2, 44.17 28.93, 69.35 -1.85 M11.99 67.11 C24.83 52.69, 36.5 37.37, 67.88 0.71 M15.1 67.87 C31.62 53.18, 43.15 36.55, 73.58 0 M16.37 67.01 C32.59 49.1, 47.14 29.52, 75.27 -1.05 M21.85 66.51 C34.81 52.85, 45.62 39.12, 79.48 0.01 M21.24 66.18 C42.64 41.82, 64.7 15.43, 80.29 0.09 M27.74 67.42 C45.97 43.73, 66.39 22.48, 83.51 0.58 M25.9 66.45 C45.62 44.03, 65.03 21.81, 84.15 -1.23 M30.41 67.27 C47.47 46.82, 65.64 25.35, 89.22 -0.29 M32.2 66.07 C46.87 51.78, 59.49 35.99, 89.77 0.65 M37.64 67.33 C58.26 41.11, 79.93 17.84, 96.64 -1.19 M38.2 67.79 C53.56 48.56, 70.25 27.54, 95.98 0.41 M44.69 65.31 C65.94 40.28, 86.58 18.39, 101.18 -1.34 M42.37 66.92 C55.96 51.97, 69.93 36.21, 101.22 -0.13 M49.18 67.26 C63.12 52.27, 76.03 32.31, 106.97 -0.82 M47.29 67.38 C65.14 45.82, 82.62 25.56, 105.7 0.03 M52.48 67.39 C75.64 43.46, 93.73 20.46, 109.78 -0.57 M53.82 65.77 C71.41 46.39, 87.78 26.71, 111.13 -0.87 M58.55 68.03 C77.65 46.14, 94.02 24.91, 117.7 2.12 M58.79 67.45 C77.48 43.97, 96.94 23.06, 116.2 -0.54 M63.35 67.43 C84.44 41.35, 105.98 16, 121.28 1.8 M63.21 66.57 C80.3 47.77, 97.04 29.05, 121.59 -0.31 M69.72 67.68 C80.26 53.72, 94.01 35.7, 127.77 0.99 M69.91 66.16 C86.71 45.08, 106.11 24, 126.92 1.17 M76.06 67.3 C95.05 46.62, 113.43 22.81, 133.74 -1.26 M75.14 66.93 C89.2 49.4, 103.16 32.89, 132.29 0.74 M78.51 65.41 C92.36 52.68, 105.51 39.48, 130.76 4.63 M79.47 67.58 C90.2 55.59, 101.08 42.28, 132.7 6.84 M85.12 65.8 C97.84 54.76, 109.61 40.9, 133.85 13.21 M84.8 67.11 C97.49 52.96, 109.67 38.47, 131.35 12.2 M88.54 65.61 C102.52 50.22, 115.97 36.74, 131.92 18.28 M89.86 67.66 C102.5 51.51, 115.26 36.69, 132.85 18.26 M96.91 67.17 C107.2 54.15, 116.24 40.84, 131.13 22.97 M95.96 66.53 C109.02 51.29, 122.87 35.46, 131.44 25.48 M99.24 65.88 C106.91 58.46, 116.09 49.57, 131.61 32.34 M101.08 66.27 C110.79 54.39, 122.43 42.57, 132.54 30.1 M104.26 66.09 C114.93 56.54, 121.81 50.92, 130.39 37.3 M105.67 66.76 C115.55 55.62, 126.35 42.94, 132.39 36.25 M109.85 64.98 C114.86 61.9, 120.43 55.24, 130.06 43.18 M110.73 67.21 C119.58 56.76, 126.85 48.29, 131.62 42.72 M117.83 68.42 C121.81 60.53, 125.91 57.72, 132.95 49.9 M117.57 66.28 C123.01 61.07, 128.57 53.05, 132.24 49.31 M123.14 66.8 C124.13 64.24, 127.67 60.54, 131.51 55.88 M122.06 66.25 C125.66 62.3, 130.03 57.35, 132.43 55.15 M126.81 67.06 C129.04 65.68, 129.45 65.01, 132.31 60.41 M127.54 66.76 C128.75 64.95, 130.47 63.27, 132.59 61.09" stroke="#ced4da" stroke-width="0.5" fill="none"></path><path d="M0.67 -0.89 C54.34 2.65, 106.96 -0.46, 132.02 1.51 M-1 -0.2 C29.83 0.45, 60.02 0.78, 132.47 0.77 M131.18 0.45 C132.49 27.26, 133.31 50.44, 130.35 68.05 M132.52 -0.13 C132.1 25.65, 133.13 49.55, 133.07 65.99 M130.88 66.14 C82.74 66.35, 33.77 63.68, -1.44 66.02 M131.42 67.48 C101.38 67.47, 70.75 67.91, 0.83 66.91 M0.2 65.58 C0.2 49.68, -0.06 35.82, 1.64 0.44 M-0.75 67.13 C-0.25 44.37, 0.63 20.14, -0.59 -0.68" stroke="#000000" stroke-width="1" fill="none"></path></g><g transform="translate(206.78515625 208.1171875) rotate(0 19.5 12.5)"><text x="19.5" y="18" font-family="Virgil, Segoe UI Emoji" font-size="20px" fill="#000000" text-anchor="middle" style="white-space: pre;" direction="ltr">RHS</text></g><g stroke-linecap="round"><g transform="translate(317.17578125 109.107421875) rotate(0 70.96067599758044 0.71031738446095)"><path d="M1.04 0.46 C24.59 0.35, 118.66 0.44, 141.79 0.33 M0.13 -0.35 C23.56 0.25, 117.62 1.58, 141.3 1.77" stroke="#000000" stroke-width="1" fill="none"></path></g><g transform="translate(317.17578125 109.107421875) rotate(0 70.96067599758044 0.71031738446095)"><path d="M113.75 13.13 C122.19 6.26, 130.94 5.66, 142.52 1.55 M113.59 10.81 C121 8.66, 131.51 4.82, 140.49 2.12" stroke="#000000" stroke-width="1" fill="none"></path></g><g transform="translate(317.17578125 109.107421875) rotate(0 70.96067599758044 0.71031738446095)"><path d="M113.99 -7.39 C122.52 -7.29, 131.19 -0.92, 142.52 1.55 M113.82 -9.71 C121.18 -5.5, 131.61 -2.96, 140.49 2.12" stroke="#000000" stroke-width="1" fill="none"></path></g></g><g transform="translate(302.17578125 64.029296875) rotate(0 95 12.5)"><text x="0" y="18" font-family="Virgil, Segoe UI Emoji" font-size="20px" fill="#000000" text-anchor="start" style="white-space: pre;" direction="ltr">SubQuery Unnesting</text></g></svg>